Monda-Regular.ufo
<glyph name="exclam" format="1">
  <advance width="375"/>
  <unicode hex="0021"/>
  <outline>
    <contour>
      <point x="137" y="0" type="line"/>
      <point x="236" y="0" type="line"/>
      <point x="236" y="101" type="line"/>
      <point x="137" y="101" type="line"/>
    </contour>
    <contour>
      <point x="172" y="181" type="curve"/>
      <point x="200" y="181" type="line"/>
      <point x="200" y="181"/>
      <point x="238" y="518"/>
      <point x="238" y="706" type="curve"/>
      <point x="140" y="706" type="line"/>
      <point x="140" y="518"/>
      <point x="172" y="181"/>
    </contour>
  </outline>
</glyph>
<glyph name="quotedbl" format="1">
  <advance width="434"/>
  <unicode hex="0022"/>
  <outline>
    <contour>
      <point x="107" y="454" type="line"/>
      <point x="162" y="454" type="line"/>
      <point x="186" y="735" type="line"/>
      <point x="86" y="735" type="line"/>
    </contour>
    <contour>
      <point x="270" y="454" type="line"/>
      <point x="325" y="454" type="line"/>
      <point x="349" y="735" type="line"/>
      <point x="249" y="735" type="line"/>
    </contour>
  </outline>
</glyph>
<glyph name="numbersign" format="1">
  <advance width="626"/>
  <unicode hex="0023"/>
  <outline>
    <contour>
      <point x="88" y="0" type="line"/>
      <point x="175" y="0" type="line"/>
      <point x="216" y="232" type="line"/>
      <point x="361" y="232" type="line"/>
      <point x="319" y="0" type="line"/>
      <point x="406" y="0" type="line"/>
      <point x="447" y="232" type="line"/>
      <point x="573" y="232" type="line"/>
      <point x="573" y="290" type="line"/>
      <point x="457" y="290" type="line"/>
      <point x="484" y="444" type="line"/>
      <point x="585" y="444" type="line"/>
      <point x="585" y="502" type="line"/>
      <point x="495" y="502" type="line"/>
      <point x="531" y="706" type="line"/>
      <point x="448" y="706" type="line"/>
      <point x="411" y="502" type="line"/>
      <point x="264" y="502" type="line"/>
      <point x="300" y="706" type="line"/>
      <point x="217" y="706" type="line"/>
      <point x="180" y="502" type="line"/>
      <point x="54" y="502" type="line"/>
      <point x="54" y="444" type="line"/>
      <point x="169" y="444" type="line"/>
      <point x="141" y="290" type="line"/>
      <point x="42" y="290" type="line"/>
      <point x="42" y="232" type="line"/>
      <point x="130" y="232" type="line"/>
    </contour>
    <contour>
      <point x="226" y="290" type="line"/>
      <point x="253" y="444" type="line"/>
      <point x="400" y="444" type="line"/>
      <point x="372" y="290" type="line"/>
    </contour>
  </outline>
</glyph>
<glyph name="dollar" format="1">
  <advance width="1303"/>
  <unicode hex="0024"/>
  <outline>
    <contour>
      <point x="620" y="-372" type="line"/>
      <point x="730" y="-372" type="line"/>
      <point x="730" y="1758" type="line"/>
      <point x="620" y="1758" type="line"/>
    </contour>
    <component base="S"/>
  </outline>
</glyph>
<glyph name="percent" format="1">
  <advance width="1000"/>
  <unicode hex="0025"/>
  <outline>
    <contour>
      <point x="229" y="388" type="curve" smooth="yes"/>
      <point x="162" y="388"/>
      <point x="154" y="439"/>
      <point x="154" y="508" type="curve" smooth="yes"/>
      <point x="154" y="554" type="line" smooth="yes"/>
      <point x="154" y="620"/>
      <point x="159" y="667"/>
      <point x="229" y="667" type="curve" smooth="yes"/>
      <point x="299" y="667"/>
      <point x="306" y="620"/>
      <point x="306" y="553" type="curve" smooth="yes"/>
      <point x="306" y="508" type="line" smooth="yes"/>
      <point x="306" y="439"/>
      <point x="296" y="388"/>
    </contour>
    <contour>
      <point x="229" y="331" type="curve" smooth="yes"/>
      <point x="341" y="331"/>
      <point x="377" y="404"/>
      <point x="377" y="516" type="curve" smooth="yes"/>
      <point x="377" y="542" type="line"/>
      <point x="376" y="656"/>
      <point x="341" y="723"/>
      <point x="229" y="723" type="curve" smooth="yes"/>
      <point x="116" y="723"/>
      <point x="84" y="656"/>
      <point x="84" y="542" type="curve" smooth="yes"/>
      <point x="84" y="516" type="line" smooth="yes"/>
      <point x="84" y="405"/>
      <point x="117" y="331"/>
    </contour>
    <contour>
      <point x="769" y="47" type="curve" smooth="yes"/>
      <point x="702" y="47"/>
      <point x="693" y="98"/>
      <point x="693" y="167" type="curve" smooth="yes"/>
      <point x="693" y="214" type="line" smooth="yes"/>
      <point x="693" y="280"/>
      <point x="699" y="326"/>
      <point x="769" y="326" type="curve" smooth="yes"/>
      <point x="839" y="326"/>
      <point x="845" y="280"/>
      <point x="845" y="213" type="curve" smooth="yes"/>
      <point x="845" y="167" type="line" smooth="yes"/>
      <point x="845" y="98"/>
      <point x="836" y="47"/>
    </contour>
    <contour>
      <point x="769" y="-9" type="curve" smooth="yes"/>
      <point x="881" y="-9"/>
      <point x="916" y="64"/>
      <point x="916" y="176" type="curve" smooth="yes"/>
      <point x="916" y="202" type="line"/>
      <point x="915" y="316"/>
      <point x="881" y="383"/>
      <point x="769" y="383" type="curve" smooth="yes"/>
      <point x="656" y="383"/>
      <point x="623" y="316"/>
      <point x="623" y="202" type="curve" smooth="yes"/>
      <point x="623" y="176" type="line" smooth="yes"/>
      <point x="623" y="65"/>
      <point x="657" y="-9"/>
    </contour>
    <contour>
      <point x="326" y="0" type="line"/>
      <point x="401" y="0" type="line"/>
      <point x="664" y="706" type="line"/>
      <point x="591" y="706" type="line"/>
    </contour>
  </outline>
</glyph>
<glyph name="ampersand" format="1">
  <advance width="732"/>
  <unicode hex="0026"/>
  <outline>
    <contour>
      <point x="352" y="-12" type="curve" smooth="yes"/>
      <point x="476" y="-12"/>
      <point x="542" y="14"/>
      <point x="579" y="56" type="curve"/>
      <point x="648" y="-9" type="line"/>
      <point x="699" y="46" type="line"/>
      <point x="614" y="127" type="line"/>
      <point x="622" y="162"/>
      <point x="623" y="202"/>
      <point x="623" y="244" type="curve" smooth="yes"/>
      <point x="623" y="380" type="line"/>
      <point x="538" y="380" type="line"/>
      <point x="538" y="222" type="line" smooth="yes"/>
      <point x="538" y="214"/>
      <point x="537" y="207"/>
      <point x="537" y="200" type="curve"/>
      <point x="282" y="443" type="line"/>
      <point x="238" y="489"/>
      <point x="222" y="512"/>
      <point x="222" y="550" type="curve" smooth="yes"/>
      <point x="222" y="607"/>
      <point x="241" y="650"/>
      <point x="344" y="650" type="curve" smooth="yes"/>
      <point x="436" y="650"/>
      <point x="468" y="635"/>
      <point x="468" y="568" type="curve" smooth="yes"/>
      <point x="468" y="539" type="line"/>
      <point x="549" y="539" type="line"/>
      <point x="549" y="588" type="line" smooth="yes"/>
      <point x="549" y="703"/>
      <point x="476" y="724"/>
      <point x="336" y="724" type="curve" smooth="yes"/>
      <point x="173" y="724"/>
      <point x="129" y="646"/>
      <point x="129" y="558" type="curve" smooth="yes"/>
      <point x="129" y="483"/>
      <point x="163" y="445"/>
      <point x="214" y="398" type="curve"/>
      <point x="119" y="370"/>
      <point x="86" y="312"/>
      <point x="86" y="214" type="curve" smooth="yes"/>
      <point x="86" y="96"/>
      <point x="136" y="-12"/>
    </contour>
    <contour>
      <point x="352" y="62" type="curve" smooth="yes"/>
      <point x="227" y="62"/>
      <point x="185" y="116"/>
      <point x="185" y="217" type="curve" smooth="yes"/>
      <point x="185" y="277"/>
      <point x="190" y="332"/>
      <point x="263" y="353" type="curve"/>
      <point x="519" y="112" type="line"/>
      <point x="494" y="66"/>
      <point x="443" y="62"/>
    </contour>
  </outline>
</glyph>
<glyph name="quotesingle" format="1">
  <advance width="437"/>
  <unicode hex="0027"/>
  <outline>
    <contour>
      <point x="109" y="454" type="line"/>
      <point x="164" y="454" type="line"/>
      <point x="188" y="735" type="line"/>
      <point x="87" y="735" type="line"/>
    </contour>
  </outline>
</glyph>
<glyph name="parenleft" format="1">
  <advance width="375"/>
  <unicode hex="0028"/>
  <outline>
    <contour>
      <point x="314" y="-73" type="curve"/>
      <point x="314" y="0" type="line"/>
      <point x="178" y="0"/>
      <point x="178" y="75"/>
      <point x="178" y="200" type="curve" smooth="yes"/>
      <point x="178" y="486" type="line" smooth="yes"/>
      <point x="178" y="611"/>
      <point x="178" y="691"/>
      <point x="314" y="691" type="curve"/>
      <point x="314" y="765" type="line"/>
      <point x="85" y="765"/>
      <point x="84" y="617"/>
      <point x="84" y="468" type="curve" smooth="yes"/>
      <point x="84" y="215" type="line" smooth="yes"/>
      <point x="84" y="68"/>
      <point x="85" y="-73"/>
    </contour>
  </outline>
</glyph>
<glyph name="parenright" format="1">
  <advance width="375"/>
  <unicode hex="0029"/>
  <outline>
    <contour>
      <point x="61" y="-73" type="line"/>
      <point x="290" y="-73"/>
      <point x="291" y="75"/>
      <point x="291" y="224" type="curve" smooth="yes"/>
      <point x="291" y="477" type="line" smooth="yes"/>
      <point x="291" y="624"/>
      <point x="290" y="765"/>
      <point x="61" y="765" type="curve"/>
      <point x="61" y="692" type="line"/>
      <point x="197" y="692"/>
      <point x="197" y="617"/>
      <point x="197" y="492" type="curve" smooth="yes"/>
      <point x="197" y="206" type="line" smooth="yes"/>
      <point x="197" y="81"/>
      <point x="197" y="0"/>
      <point x="61" y="0" type="curve"/>
    </contour>
  </outline>
</glyph>
<glyph name="asterisk" format="1">
  <advance width="500"/>
  <unicode hex="002A"/>
  <outline>
    <contour>
      <point x="207" y="292" type="line"/>
      <point x="293" y="292" type="line"/>
      <point x="279" y="445" type="line"/>
      <point x="400" y="353" type="line"/>
      <point x="446" y="427" type="line"/>
      <point x="310" y="497" type="line"/>
      <point x="452" y="554" type="line"/>
      <point x="412" y="632" type="line"/>
      <point x="279" y="547" type="line"/>
      <point x="293" y="706" type="line"/>
      <point x="207" y="706" type="line"/>
      <point x="220" y="553" type="line"/>
      <point x="100" y="646" type="line"/>
      <point x="53" y="571" type="line"/>
      <point x="190" y="502" type="line"/>
      <point x="48" y="445" type="line"/>
      <point x="87" y="366" type="line"/>
      <point x="221" y="451" type="line"/>
    </contour>
  </outline>
</glyph>
<glyph name="plus" format="1">
  <advance width="500"/>
  <unicode hex="002B"/>
  <outline>
    <contour>
      <point x="213" y="76" type="line"/>
      <point x="287" y="76" type="line"/>
      <point x="287" y="241" type="line"/>
      <point x="421" y="241" type="line"/>
      <point x="421" y="313" type="line"/>
      <point x="287" y="313" type="line"/>
      <point x="287" y="473" type="line"/>
      <point x="213" y="473" type="line"/>
      <point x="213" y="313" type="line"/>
      <point x="79" y="313" type="line"/>
      <point x="79" y="241" type="line"/>
      <point x="213" y="241" type="line"/>
    </contour>
  </outline>
</glyph>
<glyph name="hyphen" format="1">
  <advance width="500"/>
  <unicode hex="002D"/>
  <outline>
    <contour>
      <point x="248" y="277" type="move" name="_mid"/>
    </contour>
    <contour>
      <point x="84" y="244" type="line"/>
      <point x="406" y="244" type="line"/>
      <point x="406" y="313" type="line"/>
      <point x="84" y="313" type="line"/>
    </contour>
  </outline>
</glyph>
<glyph name="period" format="1">
  <advance width="306"/>
  <unicode hex="002E"/>
  <outline>
    <contour>
      <point x="91" y="0" type="line"/>
      <point x="216" y="0" type="line"/>
      <point x="216" y="118" type="line"/>
      <point x="91" y="118" type="line"/>
    </contour>
  </outline>
</glyph>
<glyph name="slash" format="1">
  <advance width="375"/>
  <unicode hex="002F"/>
  <outline>
    <contour>
      <point x="31" y="0" type="line"/>
      <point x="123" y="0" type="line"/>
      <point x="344" y="735" type="line"/>
      <point x="254" y="735" type="line"/>
    </contour>
  </outline>
</glyph>
<glyph name="zero" format="1">
  <advance width="610"/>
  <unicode hex="0030"/>
  <outline>
    <contour>
      <point x="310" y="68" type="curve" smooth="yes"/>
      <point x="170" y="68"/>
      <point x="163" y="177"/>
      <point x="163" y="302" type="curve" smooth="yes"/>
      <point x="163" y="398" type="line" smooth="yes"/>
      <point x="163" y="523"/>
      <point x="171" y="638"/>
      <point x="310" y="638" type="curve" smooth="yes"/>
      <point x="449" y="638"/>
      <point x="456" y="523"/>
      <point x="456" y="398" type="curve" smooth="yes"/>
      <point x="456" y="302" type="line" smooth="yes"/>
      <point x="456" y="177"/>
      <point x="450" y="68"/>
    </contour>
    <contour>
      <point x="310" y="-11" type="curve" smooth="yes"/>
      <point x="546" y="-11"/>
      <point x="555" y="164"/>
      <point x="555" y="311" type="curve" smooth="yes"/>
      <point x="555" y="386" type="line" smooth="yes"/>
      <point x="555" y="535"/>
      <point x="547" y="717"/>
      <point x="310" y="717" type="curve" smooth="yes"/>
      <point x="73" y="717"/>
      <point x="64" y="535"/>
      <point x="64" y="386" type="curve" smooth="yes"/>
      <point x="64" y="311" type="line" smooth="yes"/>
      <point x="64" y="164"/>
      <point x="74" y="-11"/>
    </contour>
  </outline>
</glyph>
<glyph name="one" format="1">
  <advance width="610"/>
  <unicode hex="0031"/>
  <outline>
    <contour>
      <point x="101" y="0" type="line"/>
      <point x="567" y="0" type="line"/>
      <point x="567" y="76" type="line"/>
      <point x="395" y="76" type="line"/>
      <point x="395" y="706" type="line"/>
      <point x="314" y="706" type="line"/>
      <point x="105" y="682" type="line"/>
      <point x="114" y="604" type="line"/>
      <point x="296" y="624" type="line"/>
      <point x="296" y="76" type="line"/>
      <point x="101" y="76" type="line"/>
    </contour>
  </outline>
</glyph>
<glyph name="two" format="1">
  <advance width="610"/>
  <unicode hex="0032"/>
  <outline>
    <contour>
      <point x="113" y="0" type="line"/>
      <point x="531" y="0" type="line"/>
      <point x="531" y="76" type="line"/>
      <point x="215" y="76" type="line"/>
      <point x="411" y="284" type="line" smooth="yes"/>
      <point x="482" y="359"/>
      <point x="535" y="407"/>
      <point x="535" y="517" type="curve" smooth="yes"/>
      <point x="535" y="629"/>
      <point x="464" y="717"/>
      <point x="312" y="717" type="curve" smooth="yes"/>
      <point x="169" y="717"/>
      <point x="80" y="655"/>
      <point x="80" y="500" type="curve"/>
      <point x="178" y="500" type="line"/>
      <point x="178" y="615"/>
      <point x="216" y="638"/>
      <point x="319" y="638" type="curve" smooth="yes"/>
      <point x="406" y="638"/>
      <point x="442" y="606"/>
      <point x="442" y="516" type="curve" smooth="yes"/>
      <point x="442" y="445"/>
      <point x="413" y="413"/>
      <point x="342" y="336" type="curve" smooth="yes"/>
      <point x="104" y="77" type="line"/>
    </contour>
  </outline>
</glyph>
<glyph name="three" format="1">
  <advance width="610"/>
  <unicode hex="0033"/>
  <outline>
    <contour>
      <point x="332" y="-11" type="curve" smooth="yes"/>
      <point x="471" y="-11"/>
      <point x="550" y="59"/>
      <point x="550" y="194" type="curve" smooth="yes"/>
      <point x="550" y="313"/>
      <point x="503" y="358"/>
      <point x="422" y="375" type="curve"/>
      <point x="504" y="388"/>
      <point x="536" y="440"/>
      <point x="536" y="533" type="curve" smooth="yes"/>
      <point x="536" y="661"/>
      <point x="452" y="717"/>
      <point x="330" y="717" type="curve" smooth="yes"/>
      <point x="205" y="717"/>
      <point x="106" y="680"/>
      <point x="106" y="500" type="curve"/>
      <point x="200" y="500" type="line"/>
      <point x="200" y="621"/>
      <point x="243" y="638"/>
      <point x="330" y="638" type="curve" smooth="yes"/>
      <point x="414" y="638"/>
      <point x="444" y="597"/>
      <point x="444" y="531" type="curve" smooth="yes"/>
      <point x="444" y="451"/>
      <point x="438" y="410"/>
      <point x="287" y="410" type="curve"/>
      <point x="287" y="337" type="line"/>
      <point x="433" y="337"/>
      <point x="457" y="304"/>
      <point x="457" y="195" type="curve" smooth="yes"/>
      <point x="457" y="112"/>
      <point x="421" y="68"/>
      <point x="337" y="68" type="curve" smooth="yes"/>
      <point x="240" y="68"/>
      <point x="203" y="92"/>
      <point x="195" y="210" type="curve"/>
      <point x="102" y="210" type="line"/>
      <point x="119" y="44"/>
      <point x="175" y="-11"/>
    </contour>
  </outline>
</glyph>
<glyph name="four" format="1">
  <advance width="610"/>
  <unicode hex="0034"/>
  <outline>
    <contour>
      <point x="382" y="0" type="line"/>
      <point x="464" y="0" type="line"/>
      <point x="464" y="171" type="line"/>
      <point x="567" y="171" type="line"/>
      <point x="567" y="247" type="line"/>
      <point x="464" y="247" type="line"/>
      <point x="464" y="409" type="line"/>
      <point x="382" y="409" type="line"/>
      <point x="382" y="247" type="line"/>
      <point x="179" y="247" type="line"/>
      <point x="430" y="706" type="line"/>
      <point x="328" y="706" type="line"/>
      <point x="70" y="248" type="line"/>
      <point x="70" y="171" type="line"/>
      <point x="382" y="171" type="line"/>
    </contour>
  </outline>
</glyph>
<glyph name="five" format="1">
  <advance width="610"/>
  <unicode hex="0035"/>
  <outline>
    <contour>
      <point x="309" y="-11" type="curve" smooth="yes"/>
      <point x="452" y="-11"/>
      <point x="545" y="82"/>
      <point x="545" y="219" type="curve" smooth="yes"/>
      <point x="545" y="358"/>
      <point x="473" y="445"/>
      <point x="327" y="445" type="curve" smooth="yes"/>
      <point x="278" y="445"/>
      <point x="229" y="428"/>
      <point x="198" y="400" type="curve"/>
      <point x="219" y="625" type="line"/>
      <point x="500" y="625" type="line"/>
      <point x="500" y="706" type="line"/>
      <point x="140" y="706" type="line"/>
      <point x="115" y="348" type="line"/>
      <point x="187" y="318" type="line"/>
      <point x="237" y="355"/>
      <point x="267" y="372"/>
      <point x="315" y="372" type="curve" smooth="yes"/>
      <point x="413" y="372"/>
      <point x="453" y="309"/>
      <point x="453" y="214" type="curve" smooth="yes"/>
      <point x="453" y="120"/>
      <point x="397" y="68"/>
      <point x="305" y="68" type="curve" smooth="yes"/>
      <point x="205" y="68"/>
      <point x="161" y="93"/>
      <point x="110" y="127" type="curve"/>
      <point x="84" y="52" type="line"/>
      <point x="135" y="22"/>
      <point x="200" y="-11"/>
    </contour>
  </outline>
</glyph>
<glyph name="six" format="1">
  <advance width="610"/>
  <unicode hex="0036"/>
  <outline>
    <contour>
      <point x="316" y="-11" type="curve" smooth="yes"/>
      <point x="451" y="-11"/>
      <point x="553" y="51"/>
      <point x="553" y="206" type="curve" smooth="yes"/>
      <point x="553" y="367"/>
      <point x="464" y="429"/>
      <point x="319" y="429" type="curve" smooth="yes"/>
      <point x="290" y="429"/>
      <point x="253" y="420"/>
      <point x="232" y="411" type="curve"/>
      <point x="407" y="706" type="line"/>
      <point x="309" y="706" type="line"/>
      <point x="156" y="438" type="line"/>
      <point x="110" y="355"/>
      <point x="87" y="277"/>
      <point x="87" y="208" type="curve" smooth="yes"/>
      <point x="87" y="52"/>
      <point x="181" y="-11"/>
    </contour>
    <contour>
      <point x="317" y="68" type="curve" smooth="yes"/>
      <point x="229" y="68"/>
      <point x="178" y="97"/>
      <point x="178" y="208" type="curve" smooth="yes"/>
      <point x="178" y="316"/>
      <point x="229" y="349"/>
      <point x="317" y="349" type="curve" smooth="yes"/>
      <point x="404" y="349"/>
      <point x="461" y="326"/>
      <point x="461" y="206" type="curve" smooth="yes"/>
      <point x="461" y="96"/>
      <point x="405" y="68"/>
    </contour>
  </outline>
</glyph>
<glyph name="seven" format="1">
  <advance width="610"/>
  <unicode hex="0037"/>
  <outline>
    <contour>
      <point x="180" y="0" type="line"/>
      <point x="283" y="0" type="line"/>
      <point x="522" y="629" type="line"/>
      <point x="522" y="706" type="line"/>
      <point x="92" y="706" type="line"/>
      <point x="92" y="630" type="line"/>
      <point x="424" y="630" type="line"/>
    </contour>
  </outline>
</glyph>
<glyph name="eight" format="1">
  <advance width="610"/>
  <unicode hex="0038"/>
  <outline>
    <contour>
      <point x="303" y="-11" type="curve" smooth="yes"/>
      <point x="449" y="-11"/>
      <point x="546" y="50"/>
      <point x="546" y="179" type="curve" smooth="yes"/>
      <point x="546" y="283"/>
      <point x="473" y="343"/>
      <point x="396" y="377" type="curve"/>
      <point x="470" y="411"/>
      <point x="532" y="450"/>
      <point x="532" y="541" type="curve" smooth="yes"/>
      <point x="532" y="671"/>
      <point x="429" y="717"/>
      <point x="306" y="717" type="curve" smooth="yes"/>
      <point x="181" y="717"/>
      <point x="78" y="671"/>
      <point x="78" y="541" type="curve" smooth="yes"/>
      <point x="78" y="450"/>
      <point x="140" y="411"/>
      <point x="214" y="377" type="curve"/>
      <point x="137" y="343"/>
      <point x="64" y="283"/>
      <point x="64" y="179" type="curve" smooth="yes"/>
      <point x="64" y="50"/>
      <point x="159" y="-11"/>
    </contour>
    <contour>
      <point x="306" y="68" type="curve" smooth="yes"/>
      <point x="213" y="68"/>
      <point x="158" y="98"/>
      <point x="158" y="182" type="curve" smooth="yes"/>
      <point x="158" y="259"/>
      <point x="225" y="297"/>
      <point x="305" y="336" type="curve"/>
      <point x="384" y="297"/>
      <point x="453" y="259"/>
      <point x="453" y="182" type="curve" smooth="yes"/>
      <point x="453" y="98"/>
      <point x="398" y="68"/>
    </contour>
    <contour>
      <point x="305" y="413" type="curve"/>
      <point x="234" y="447"/>
      <point x="173" y="478"/>
      <point x="173" y="541" type="curve" smooth="yes"/>
      <point x="173" y="601"/>
      <point x="208" y="638"/>
      <point x="306" y="638" type="curve" smooth="yes"/>
      <point x="403" y="638"/>
      <point x="437" y="601"/>
      <point x="437" y="541" type="curve" smooth="yes"/>
      <point x="437" y="478"/>
      <point x="376" y="448"/>
    </contour>
  </outline>
</glyph>
<glyph name="nine" format="1">
  <advance width="610"/>
  <unicode hex="0039"/>
  <outline>
    <contour>
      <point x="220" y="0" type="line"/>
      <point x="318" y="0" type="line"/>
      <point x="471" y="268" type="line"/>
      <point x="517" y="351"/>
      <point x="540" y="429"/>
      <point x="540" y="498" type="curve" smooth="yes"/>
      <point x="540" y="654"/>
      <point x="446" y="717"/>
      <point x="311" y="717" type="curve" smooth="yes"/>
      <point x="176" y="717"/>
      <point x="74" y="655"/>
      <point x="74" y="500" type="curve" smooth="yes"/>
      <point x="74" y="339"/>
      <point x="163" y="277"/>
      <point x="308" y="277" type="curve" smooth="yes"/>
      <point x="337" y="277"/>
      <point x="374" y="286"/>
      <point x="395" y="295" type="curve"/>
    </contour>
    <contour>
      <point x="310" y="357" type="curve" smooth="yes"/>
      <point x="223" y="357"/>
      <point x="165" y="380"/>
      <point x="165" y="500" type="curve" smooth="yes"/>
      <point x="165" y="610"/>
      <point x="222" y="638"/>
      <point x="310" y="638" type="curve" smooth="yes"/>
      <point x="398" y="638"/>
      <point x="449" y="610"/>
      <point x="449" y="499" type="curve" smooth="yes"/>
      <point x="449" y="391"/>
      <point x="398" y="357"/>
    </contour>
  </outline>
</glyph>
<glyph name="less" format="1">
  <advance width="610"/>
  <unicode hex="003C"/>
  <outline>
    <contour>
      <point x="509" y="0" type="line"/>
      <point x="509" y="102" type="line"/>
      <point x="152" y="280" type="line"/>
      <point x="509" y="459" type="line"/>
      <point x="509" y="559" type="line"/>
      <point x="76" y="328" type="line"/>
      <point x="76" y="230" type="line"/>
    </contour>
  </outline>
</glyph>
<glyph name="equal" format="1">
  <advance width="610"/>
  <unicode hex="003D"/>
  <outline>
    <contour>
      <point x="109" y="228" type="line"/>
      <point x="501" y="228" type="line"/>
      <point x="501" y="300" type="line"/>
      <point x="109" y="300" type="line"/>
    </contour>
    <contour>
      <point x="109" y="393" type="line"/>
      <point x="501" y="393" type="line"/>
      <point x="501" y="465" type="line"/>
      <point x="109" y="465" type="line"/>
    </contour>
  </outline>
</glyph>
<glyph name="greater" format="1">
  <advance width="610"/>
  <unicode hex="003E"/>
  <outline>
    <contour>
      <point x="102" y="0" type="line"/>
      <point x="534" y="230" type="line"/>
      <point x="534" y="329" type="line"/>
      <point x="102" y="559" type="line"/>
      <point x="102" y="457" type="line"/>
      <point x="458" y="279" type="line"/>
      <point x="102" y="99" type="line"/>
    </contour>
  </outline>
</glyph>
<glyph name="question" format="1">
  <advance width="605"/>
  <unicode hex="003F"/>
  <outline>
    <contour>
      <point x="228" y="210" type="line"/>
      <point x="306" y="210" type="line"/>
      <point x="407" y="317" type="line" smooth="yes"/>
      <point x="483" y="397"/>
      <point x="535" y="455"/>
      <point x="535" y="544" type="curve" smooth="yes"/>
      <point x="535" y="624"/>
      <point x="491" y="717"/>
      <point x="321" y="717" type="curve" smooth="yes"/>
      <point x="154" y="717"/>
      <point x="87" y="671"/>
      <point x="87" y="523" type="curve" smooth="yes"/>
      <point x="87" y="507" type="line"/>
      <point x="184" y="507" type="line"/>
      <point x="184" y="533" type="line" smooth="yes"/>
      <point x="184" y="598"/>
      <point x="216" y="638"/>
      <point x="321" y="638" type="curve" smooth="yes"/>
      <point x="408" y="638"/>
      <point x="431" y="597"/>
      <point x="431" y="539" type="curve" smooth="yes"/>
      <point x="431" y="482"/>
      <point x="403" y="444"/>
      <point x="361" y="388" type="curve" smooth="yes"/>
    </contour>
    <contour>
      <point x="215" y="0" type="line"/>
      <point x="314" y="0" type="line"/>
      <point x="314" y="101" type="line"/>
      <point x="215" y="101" type="line"/>
    </contour>
  </outline>
</glyph>
<glyph name="at" format="1">
  <advance width="2048"/>
  <unicode hex="0040"/>
  <outline>
    <contour>
      <point x="1104" y="-258" type="curve" smooth="yes"/>
      <point x="1327" y="-258"/>
      <point x="1556" y="-207"/>
      <point x="1671" y="-158" type="curve"/>
      <point x="1621" y="-17" type="line"/>
      <point x="1520" y="-61"/>
      <point x="1319" y="-111"/>
      <point x="1104" y="-111" type="curve" smooth="yes"/>
      <point x="769" y="-111"/>
      <point x="552" y="13"/>
      <point x="552" y="298" type="curve" smooth="yes"/>
      <point x="552" y="936" type="line" smooth="yes"/>
      <point x="552" y="1222"/>
      <point x="729" y="1331"/>
      <point x="1062" y="1331" type="curve" smooth="yes"/>
      <point x="1461" y="1331"/>
      <point x="1497" y="1180"/>
      <point x="1497" y="955" type="curve"/>
      <point x="1496" y="955"/>
      <point x="1330" y="915"/>
      <point x="1197" y="883" type="curve" smooth="yes"/>
      <point x="811" y="790"/>
      <point x="744" y="689"/>
      <point x="744" y="533" type="curve" smooth="yes"/>
      <point x="744" y="351"/>
      <point x="870" y="195"/>
      <point x="1121" y="195" type="curve" smooth="yes"/>
      <point x="1338" y="195"/>
      <point x="1468" y="296"/>
      <point x="1521" y="376" type="curve"/>
      <point x="1546" y="294"/>
      <point x="1575" y="212"/>
      <point x="1732" y="212" type="curve" smooth="yes"/>
      <point x="1772" y="212" type="line"/>
      <point x="1792" y="360" type="line"/>
      <point x="1682" y="360"/>
      <point x="1676" y="392"/>
      <point x="1676" y="479" type="curve" smooth="yes"/>
      <point x="1676" y="972" type="line" smooth="yes"/>
      <point x="1676" y="1163"/>
      <point x="1671" y="1483"/>
      <point x="1062" y="1483" type="curve" smooth="yes"/>
      <point x="521" y="1483"/>
      <point x="362" y="1236"/>
      <point x="362" y="895" type="curve" smooth="yes"/>
      <point x="362" y="332" type="line" smooth="yes"/>
      <point x="362" y="-3"/>
      <point x="566" y="-258"/>
    </contour>
    <contour>
      <point x="1153" y="343" type="curve" smooth="yes"/>
      <point x="1028" y="343"/>
      <point x="946" y="404"/>
      <point x="946" y="539" type="curve" smooth="yes"/>
      <point x="946" y="636"/>
      <point x="991" y="692"/>
      <point x="1213" y="749" type="curve" smooth="yes"/>
      <point x="1365" y="788"/>
      <point x="1479" y="816"/>
      <point x="1497" y="825" type="curve"/>
      <point x="1497" y="522" type="line"/>
      <point x="1464" y="412"/>
      <point x="1279" y="343"/>
    </contour>
  </outline>
</glyph>
<glyph name="A" format="1">
  <advance width="697"/>
  <unicode hex="0041"/>
  <outline>
    <contour>
      <point x="627" y="0" type="move" name="ogonek"/>
    </contour>
    <contour>
      <point x="350" y="706" type="move" name="top"/>
    </contour>
    <contour>
      <point x="42" y="0" type="line"/>
      <point x="144" y="0" type="line"/>
      <point x="192" y="138" type="line"/>
      <point x="507" y="138" type="line"/>
      <point x="555" y="0" type="line"/>
      <point x="655" y="0" type="line"/>
      <point x="392" y="706" type="line"/>
      <point x="305" y="706" type="line"/>
    </contour>
    <contour>
      <point x="216" y="208" type="line"/>
      <point x="351" y="594" type="line"/>
      <point x="485" y="208" type="line"/>
    </contour>
  </outline>
</glyph>
<glyph name="B" format="1">
  <advance width="693"/>
  <unicode hex="0042"/>
  <outline>
    <contour>
      <point x="106" y="0" type="line"/>
      <point x="384" y="0" type="line" smooth="yes"/>
      <point x="556" y="0"/>
      <point x="631" y="61"/>
      <point x="631" y="201" type="curve" smooth="yes"/>
      <point x="631" y="291"/>
      <point x="591" y="358"/>
      <point x="508" y="377" type="curve"/>
      <point x="573" y="399"/>
      <point x="596" y="450"/>
      <point x="597" y="512" type="curve"/>
      <point x="597" y="635"/>
      <point x="558" y="706"/>
      <point x="362" y="706" type="curve" smooth="yes"/>
      <point x="106" y="706" type="line"/>
    </contour>
    <contour>
      <point x="205" y="73" type="line"/>
      <point x="205" y="340" type="line"/>
      <point x="400" y="340" type="line" smooth="yes"/>
      <point x="508" y="340"/>
      <point x="534" y="275"/>
      <point x="534" y="211" type="curve" smooth="yes"/>
      <point x="534" y="96"/>
      <point x="485" y="73"/>
      <point x="376" y="73" type="curve" smooth="yes"/>
    </contour>
    <contour>
      <point x="205" y="407" type="line"/>
      <point x="205" y="632" type="line"/>
      <point x="347" y="632" type="line" smooth="yes"/>
      <point x="466" y="632"/>
      <point x="499" y="613"/>
      <point x="499" y="511" type="curve" smooth="yes"/>
      <point x="499" y="448"/>
      <point x="475" y="407"/>
      <point x="386" y="407" type="curve" smooth="yes"/>
    </contour>
    <contour>
      <point x="340" y="706" type="move" name="top"/>
    </contour>
  </outline>
</glyph>
<glyph name="C" format="1">
  <advance width="710"/>
  <unicode hex="0043"/>
  <outline>
    <contour>
      <point x="374" y="0" type="move" name="bot"/>
    </contour>
    <contour>
      <point x="374" y="706" type="move" name="top"/>
    </contour>
    <contour>
      <point x="372" y="-11" type="curve" smooth="yes"/>
      <point x="597" y="-11"/>
      <point x="634" y="72"/>
      <point x="635" y="214" type="curve"/>
      <point x="635" y="219" type="line"/>
      <point x="542" y="219" type="line"/>
      <point x="542" y="207" type="line"/>
      <point x="540" y="81"/>
      <point x="497" y="68"/>
      <point x="374" y="68" type="curve" smooth="yes"/>
      <point x="249" y="68"/>
      <point x="188" y="97"/>
      <point x="188" y="222" type="curve" smooth="yes"/>
      <point x="188" y="477" type="line" smooth="yes"/>
      <point x="188" y="602"/>
      <point x="247" y="638"/>
      <point x="371" y="638" type="curve" smooth="yes"/>
      <point x="497" y="638"/>
      <point x="539" y="620"/>
      <point x="542" y="492" type="curve"/>
      <point x="542" y="479" type="line"/>
      <point x="635" y="487" type="line"/>
      <point x="635" y="493" type="line"/>
      <point x="634" y="639"/>
      <point x="585" y="717"/>
      <point x="371" y="717" type="curve" smooth="yes"/>
      <point x="134" y="717"/>
      <point x="89" y="608"/>
      <point x="89" y="459" type="curve" smooth="yes"/>
      <point x="89" y="237" type="line" smooth="yes"/>
      <point x="89" y="90"/>
      <point x="136" y="-11"/>
    </contour>
  </outline>
</glyph>
<glyph name="D" format="1">
  <advance width="743"/>
  <unicode hex="0044"/>
  <outline>
    <contour>
      <point x="205" y="73" type="line"/>
      <point x="205" y="632" type="line"/>
      <point x="378" y="632" type="line" smooth="yes"/>
      <point x="479" y="632"/>
      <point x="556" y="604"/>
      <point x="556" y="474" type="curve" smooth="yes"/>
      <point x="556" y="226" type="line" smooth="yes"/>
      <point x="556" y="96"/>
      <point x="480" y="73"/>
      <point x="378" y="73" type="curve" smooth="yes"/>
    </contour>
    <contour>
      <point x="106" y="0" type="line"/>
      <point x="388" y="0" type="line" smooth="yes"/>
      <point x="567" y="0"/>
      <point x="654" y="82"/>
      <point x="654" y="235" type="curve" smooth="yes"/>
      <point x="654" y="468" type="line" smooth="yes"/>
      <point x="654" y="603"/>
      <point x="583" y="706"/>
      <point x="387" y="706" type="curve" smooth="yes"/>
      <point x="106" y="706" type="line"/>
    </contour>
    <contour>
      <point x="174" y="372" type="move" name="mid"/>
    </contour>
    <contour>
      <point x="350" y="706" type="move" name="top"/>
    </contour>
  </outline>
</glyph>
<glyph name="E" format="1">
  <advance width="612"/>
  <unicode hex="0045"/>
  <outline>
    <contour>
      <point x="307" y="0" type="move" name="bot"/>
    </contour>
    <contour>
      <point x="412" y="0" type="move" name="ogonek"/>
    </contour>
    <contour>
      <point x="330" y="706" type="move" name="top"/>
    </contour>
    <contour>
      <point x="106" y="0" type="line"/>
      <point x="553" y="0" type="line"/>
      <point x="553" y="73" type="line"/>
      <point x="205" y="73" type="line"/>
      <point x="205" y="327" type="line"/>
      <point x="507" y="327" type="line"/>
      <point x="507" y="400" type="line"/>
      <point x="205" y="400" type="line"/>
      <point x="205" y="633" type="line"/>
      <point x="547" y="633" type="line"/>
      <point x="547" y="706" type="line"/>
      <point x="106" y="706" type="line"/>
    </contour>
  </outline>
</glyph>
<glyph name="F" format="1">
  <advance width="565"/>
  <unicode hex="0046"/>
  <outline>
    <contour>
      <point x="320" y="706" type="move" name="top"/>
    </contour>
    <contour>
      <point x="106" y="0" type="line"/>
      <point x="205" y="0" type="line"/>
      <point x="205" y="324" type="line"/>
      <point x="490" y="324" type="line"/>
      <point x="490" y="397" type="line"/>
      <point x="205" y="397" type="line"/>
      <point x="205" y="633" type="line"/>
      <point x="507" y="633" type="line"/>
      <point x="507" y="706" type="line"/>
      <point x="106" y="706" type="line"/>
    </contour>
  </outline>
</glyph>
<glyph name="G" format="1">
  <advance width="759"/>
  <unicode hex="0047"/>
  <outline>
    <contour>
      <point x="385" y="638" type="curve" smooth="yes"/>
      <point x="523" y="638"/>
      <point x="566" y="620"/>
      <point x="566" y="489" type="curve"/>
      <point x="656" y="496" type="line"/>
      <point x="656" y="509" type="line"/>
      <point x="653" y="634"/>
      <point x="610" y="717"/>
      <point x="385" y="717" type="curve" smooth="yes"/>
      <point x="148" y="717"/>
      <point x="91" y="608"/>
      <point x="91" y="459" type="curve" smooth="yes"/>
      <point x="91" y="237" type="line" smooth="yes"/>
      <point x="91" y="90"/>
      <point x="149" y="-11"/>
      <point x="385" y="-11" type="curve" smooth="yes"/>
      <point x="525" y="-11"/>
      <point x="586" y="43"/>
      <point x="598" y="120" type="curve"/>
      <point x="610" y="0" type="line"/>
      <point x="664" y="0" type="line"/>
      <point x="664" y="359" type="line"/>
      <point x="398" y="359" type="line"/>
      <point x="398" y="287" type="line"/>
      <point x="565" y="287" type="line"/>
      <point x="565" y="222" type="line" smooth="yes"/>
      <point x="565" y="97"/>
      <point x="511" y="68"/>
      <point x="385" y="68" type="curve" smooth="yes"/>
      <point x="260" y="68"/>
      <point x="189" y="97"/>
      <point x="189" y="222" type="curve" smooth="yes"/>
      <point x="189" y="477" type="line" smooth="yes"/>
      <point x="189" y="602"/>
      <point x="261" y="638"/>
    </contour>
    <contour>
      <point x="380" y="0" type="move" name="bot"/>
    </contour>
    <contour>
      <point x="379" y="706" type="move" name="top"/>
    </contour>
  </outline>
</glyph>
<glyph name="H" format="1">
  <advance width="746"/>
  <unicode hex="0048"/>
  <outline>
    <contour>
      <point x="104" y="0" type="line"/>
      <point x="202" y="0" type="line"/>
      <point x="202" y="322" type="line"/>
      <point x="544" y="322" type="line"/>
      <point x="544" y="0" type="line"/>
      <point x="643" y="0" type="line"/>
      <point x="643" y="706" type="line"/>
      <point x="544" y="706" type="line"/>
      <point x="544" y="394" type="line"/>
      <point x="202" y="394" type="line"/>
      <point x="202" y="706" type="line"/>
      <point x="104" y="706" type="line"/>
    </contour>
    <contour>
      <point x="373" y="0" type="move" name="center"/>
    </contour>
    <contour>
      <point x="368" y="706" type="move" name="top"/>
    </contour>
  </outline>
</glyph>
<glyph name="I" format="1">
  <advance width="552"/>
  <unicode hex="0049"/>
  <outline>
    <contour>
      <point x="313" y="0" type="move" name="ogonek"/>
    </contour>
    <contour>
      <point x="277" y="706" type="move" name="top"/>
    </contour>
    <contour>
      <point x="93" y="0" type="line"/>
      <point x="460" y="0" type="line"/>
      <point x="460" y="73" type="line"/>
      <point x="326" y="73" type="line"/>
      <point x="326" y="633" type="line"/>
      <point x="460" y="633" type="line"/>
      <point x="460" y="706" type="line"/>
      <point x="93" y="706" type="line"/>
      <point x="93" y="633" type="line"/>
      <point x="228" y="633" type="line"/>
      <point x="228" y="73" type="line"/>
      <point x="93" y="73" type="line"/>
    </contour>
  </outline>
</glyph>
<glyph name="J" format="1">
  <advance width="588"/>
  <unicode hex="004A"/>
  <outline>
    <contour>
      <point x="315" y="706" type="move" name="top"/>
    </contour>
    <contour>
      <point x="255" y="-8" type="curve" smooth="yes"/>
      <point x="414" y="-8"/>
      <point x="482" y="76"/>
      <point x="482" y="210" type="curve" smooth="yes"/>
      <point x="482" y="706" type="line"/>
      <point x="114" y="706" type="line"/>
      <point x="114" y="625" type="line"/>
      <point x="384" y="625" type="line"/>
      <point x="384" y="212" type="line" smooth="yes"/>
      <point x="384" y="121"/>
      <point x="345" y="72"/>
      <point x="252" y="72" type="curve" smooth="yes"/>
      <point x="181" y="72"/>
      <point x="100" y="99"/>
      <point x="77" y="110" type="curve"/>
      <point x="50" y="34" type="line"/>
      <point x="82" y="17"/>
      <point x="173" y="-8"/>
    </contour>
  </outline>
</glyph>
<glyph name="K" format="1">
  <advance width="692"/>
  <unicode hex="004B"/>
  <outline>
    <contour>
      <point x="346" y="0" type="move" name="bot"/>
    </contour>
    <contour>
      <point x="358" y="706" type="move" name="top"/>
    </contour>
    <contour>
      <point x="106" y="0" type="line"/>
      <point x="205" y="0" type="line"/>
      <point x="205" y="229" type="line"/>
      <point x="311" y="337" type="line"/>
      <point x="550" y="0" type="line"/>
      <point x="659" y="0" type="line"/>
      <point x="380" y="390" type="line"/>
      <point x="645" y="706" type="line"/>
      <point x="539" y="706" type="line"/>
      <point x="428" y="578"/>
      <point x="313" y="453"/>
      <point x="205" y="321" type="curve"/>
      <point x="205" y="706" type="line"/>
      <point x="106" y="706" type="line"/>
    </contour>
  </outline>
</glyph>
<glyph name="L" format="1">
  <advance width="559"/>
  <unicode hex="004C"/>
  <outline>
    <contour>
      <point x="304" y="0" type="move" name="bot"/>
    </contour>
    <contour>
      <point x="291" y="706" type="move" name="top"/>
    </contour>
    <contour>
      <point x="150" y="354" type="move" name="mid"/>
    </contour>
    <contour>
      <point x="106" y="0" type="line"/>
      <point x="521" y="0" type="line"/>
      <point x="521" y="76" type="line"/>
      <point x="205" y="76" type="line"/>
      <point x="205" y="706" type="line"/>
      <point x="106" y="706" type="line"/>
    </contour>
  </outline>
</glyph>
<glyph name="M" format="1">
  <advance width="868"/>
  <unicode hex="004D"/>
  <outline>
    <contour>
      <point x="106" y="0" type="line"/>
      <point x="200" y="0" type="line"/>
      <point x="200" y="545" type="line"/>
      <point x="398" y="224" type="line"/>
      <point x="471" y="224" type="line"/>
      <point x="669" y="547" type="line"/>
      <point x="669" y="0" type="line"/>
      <point x="762" y="0" type="line"/>
      <point x="762" y="706" type="line"/>
      <point x="675" y="706" type="line"/>
      <point x="435" y="312" type="line"/>
      <point x="197" y="706" type="line"/>
      <point x="106" y="706" type="line"/>
    </contour>
    <contour>
      <point x="433" y="706" type="move" name="top"/>
    </contour>
  </outline>
</glyph>
<glyph name="N" format="1">
  <advance width="778"/>
  <unicode hex="004E"/>
  <outline>
    <contour>
      <point x="389" y="0" type="move" name="bot"/>
    </contour>
    <contour>
      <point x="389" y="706" type="move" name="top"/>
    </contour>
    <contour>
      <point x="106" y="0" type="line"/>
      <point x="193" y="0" type="line"/>
      <point x="193" y="539" type="line"/>
      <point x="584" y="0" type="line"/>
      <point x="672" y="0" type="line"/>
      <point x="672" y="706" type="line"/>
      <point x="585" y="706" type="line"/>
      <point x="585" y="142" type="line"/>
      <point x="181" y="706" type="line"/>
      <point x="106" y="706" type="line"/>
    </contour>
  </outline>
</glyph>
<glyph name="O" format="1">
  <advance width="754"/>
  <unicode hex="004F"/>
  <outline>
    <contour>
      <point x="382" y="68" type="curve" smooth="yes"/>
      <point x="257" y="68"/>
      <point x="189" y="97"/>
      <point x="189" y="222" type="curve" smooth="yes"/>
      <point x="189" y="478" type="line" smooth="yes"/>
      <point x="189" y="603"/>
      <point x="258" y="638"/>
      <point x="382" y="638" type="curve" smooth="yes"/>
      <point x="507" y="638"/>
      <point x="566" y="603"/>
      <point x="566" y="478" type="curve" smooth="yes"/>
      <point x="566" y="222" type="line" smooth="yes"/>
      <point x="566" y="97"/>
      <point x="508" y="68"/>
    </contour>
    <contour>
      <point x="382" y="-11" type="curve" smooth="yes"/>
      <point x="609" y="-11"/>
      <point x="664" y="99"/>
      <point x="664" y="244" type="curve" smooth="yes"/>
      <point x="664" y="453" type="line" smooth="yes"/>
      <point x="664" y="602"/>
      <point x="610" y="717"/>
      <point x="382" y="717" type="curve" smooth="yes"/>
      <point x="145" y="717"/>
      <point x="91" y="608"/>
      <point x="91" y="459" type="curve" smooth="yes"/>
      <point x="91" y="237" type="line" smooth="yes"/>
      <point x="91" y="90"/>
      <point x="146" y="-11"/>
    </contour>
    <contour>
      <point x="382" y="0" type="move" name="bot"/>
    </contour>
    <contour>
      <point x="399" y="0" type="move" name="ogonek"/>
    </contour>
    <contour>
      <point x="382" y="706" type="move" name="top"/>
    </contour>
  </outline>
</glyph>
<glyph name="P" format="1">
  <advance width="647"/>
  <unicode hex="0050"/>
  <outline>
    <contour>
      <point x="106" y="0" type="line"/>
      <point x="205" y="0" type="line"/>
      <point x="205" y="258" type="line"/>
      <point x="387" y="258" type="line" smooth="yes"/>
      <point x="507" y="258"/>
      <point x="585" y="315"/>
      <point x="585" y="484" type="curve" smooth="yes"/>
      <point x="585" y="645"/>
      <point x="508" y="706"/>
      <point x="389" y="706" type="curve" smooth="yes"/>
      <point x="106" y="706" type="line"/>
    </contour>
    <contour>
      <point x="205" y="333" type="line"/>
      <point x="205" y="631" type="line"/>
      <point x="392" y="631" type="line" smooth="yes"/>
      <point x="480" y="631"/>
      <point x="486" y="546"/>
      <point x="486" y="477" type="curve" smooth="yes"/>
      <point x="486" y="404"/>
      <point x="474" y="333"/>
      <point x="389" y="333" type="curve" smooth="yes"/>
    </contour>
    <contour>
      <point x="350" y="706" type="move" name="top"/>
    </contour>
  </outline>
</glyph>
<glyph name="Q" format="1">
  <advance width="752"/>
  <unicode hex="0051"/>
  <outline>
    <contour>
      <point x="461" y="-188" type="line"/>
      <point x="530" y="-150" type="line"/>
      <point x="437" y="-8" type="line"/>
      <point x="618" y="9"/>
      <point x="664" y="112"/>
      <point x="664" y="244" type="curve" smooth="yes"/>
      <point x="664" y="453" type="line" smooth="yes"/>
      <point x="664" y="602"/>
      <point x="610" y="717"/>
      <point x="382" y="717" type="curve" smooth="yes"/>
      <point x="145" y="717"/>
      <point x="91" y="608"/>
      <point x="91" y="459" type="curve" smooth="yes"/>
      <point x="91" y="237" type="line" smooth="yes"/>
      <point x="91" y="97"/>
      <point x="141" y="-1"/>
      <point x="349" y="-10" type="curve"/>
    </contour>
    <contour>
      <point x="382" y="68" type="curve" smooth="yes"/>
      <point x="257" y="68"/>
      <point x="189" y="97"/>
      <point x="189" y="222" type="curve" smooth="yes"/>
      <point x="189" y="478" type="line" smooth="yes"/>
      <point x="189" y="603"/>
      <point x="258" y="638"/>
      <point x="382" y="638" type="curve" smooth="yes"/>
      <point x="507" y="638"/>
      <point x="566" y="603"/>
      <point x="566" y="478" type="curve" smooth="yes"/>
      <point x="566" y="222" type="line" smooth="yes"/>
      <point x="566" y="97"/>
      <point x="508" y="68"/>
    </contour>
  </outline>
</glyph>
<glyph name="R" format="1">
  <advance width="714"/>
  <unicode hex="0052"/>
  <outline>
    <contour>
      <point x="357" y="0" type="move" name="bot"/>
    </contour>
    <contour>
      <point x="350" y="706" type="move" name="top"/>
    </contour>
    <contour>
      <point x="106" y="0" type="line"/>
      <point x="205" y="0" type="line"/>
      <point x="205" y="292" type="line"/>
      <point x="205" y="292"/>
      <point x="423" y="293"/>
      <point x="428" y="293" type="curve"/>
      <point x="568" y="0" type="line"/>
      <point x="669" y="0" type="line"/>
      <point x="519" y="311" type="line"/>
      <point x="578" y="336"/>
      <point x="619" y="383"/>
      <point x="619" y="497" type="curve" smooth="yes"/>
      <point x="619" y="655"/>
      <point x="540" y="706"/>
      <point x="421" y="706" type="curve" smooth="yes"/>
      <point x="106" y="706" type="line"/>
    </contour>
    <contour>
      <point x="205" y="367" type="line"/>
      <point x="205" y="631" type="line"/>
      <point x="424" y="631" type="line" smooth="yes"/>
      <point x="512" y="631"/>
      <point x="520" y="556"/>
      <point x="520" y="488" type="curve" smooth="yes"/>
      <point x="520" y="420"/>
      <point x="498" y="367"/>
      <point x="413" y="367" type="curve" smooth="yes"/>
    </contour>
  </outline>
</glyph>
<glyph name="S" format="1">
  <advance width="636"/>
  <unicode hex="0053"/>
  <outline>
    <contour>
      <point x="323" y="0" type="move" name="bot"/>
    </contour>
    <contour>
      <point x="330" y="706" type="move" name="top"/>
    </contour>
    <contour>
      <point x="337" y="-11" type="curve" smooth="yes"/>
      <point x="501" y="-11"/>
      <point x="568" y="68"/>
      <point x="568" y="198" type="curve" smooth="yes"/>
      <point x="568" y="305"/>
      <point x="525" y="351"/>
      <point x="429" y="383" type="curve" smooth="yes"/>
      <point x="251" y="443" type="line" smooth="yes"/>
      <point x="191" y="463"/>
      <point x="179" y="488"/>
      <point x="179" y="531" type="curve" smooth="yes"/>
      <point x="179" y="538"/>
      <point x="180" y="547"/>
      <point x="180" y="555" type="curve" smooth="yes"/>
      <point x="184" y="615"/>
      <point x="240" y="638"/>
      <point x="337" y="638" type="curve" smooth="yes"/>
      <point x="429" y="638"/>
      <point x="491" y="614"/>
      <point x="533" y="591" type="curve"/>
      <point x="557" y="667" type="line"/>
      <point x="512" y="695"/>
      <point x="441" y="717"/>
      <point x="320" y="717" type="curve" smooth="yes"/>
      <point x="185" y="717"/>
      <point x="83" y="667"/>
      <point x="83" y="532" type="curve" smooth="yes"/>
      <point x="83" y="436"/>
      <point x="123" y="391"/>
      <point x="221" y="359" type="curve" smooth="yes"/>
      <point x="392" y="303" type="line" smooth="yes"/>
      <point x="464" y="280"/>
      <point x="478" y="253"/>
      <point x="478" y="213" type="curve" smooth="yes"/>
      <point x="478" y="111"/>
      <point x="450" y="68"/>
      <point x="335" y="68" type="curve" smooth="yes"/>
      <point x="249" y="68"/>
      <point x="159" y="98"/>
      <point x="105" y="130" type="curve"/>
      <point x="70" y="55" type="line"/>
      <point x="144" y="12"/>
      <point x="232" y="-11"/>
    </contour>
  </outline>
</glyph>
<glyph name="T" format="1">
  <advance width="587"/>
  <unicode hex="0054"/>
  <outline>
    <contour>
      <point x="245" y="0" type="line"/>
      <point x="343" y="0" type="line"/>
      <point x="343" y="625" type="line"/>
      <point x="547" y="625" type="line"/>
      <point x="547" y="706" type="line"/>
      <point x="41" y="706" type="line"/>
      <point x="41" y="625" type="line"/>
      <point x="245" y="625" type="line"/>
    </contour>
    <contour>
      <point x="294" y="0" type="move" name="bot"/>
    </contour>
    <contour>
      <point x="294" y="368" type="move" name="mid"/>
    </contour>
    <contour>
      <point x="300" y="706" type="move" name="top"/>
    </contour>
    <contour>
      <point x="294" y="0" type="move" name="center"/>
    </contour>
  </outline>
</glyph>
<glyph name="U" format="1">
  <advance width="750"/>
  <unicode hex="0055"/>
  <outline>
    <contour>
      <point x="411" y="0" type="move" name="ogonek"/>
    </contour>
    <contour>
      <point x="380" y="706" type="move" name="top"/>
    </contour>
    <contour>
      <point x="380" y="-11" type="curve" smooth="yes"/>
      <point x="601" y="-11"/>
      <point x="653" y="100"/>
      <point x="653" y="231" type="curve" smooth="yes"/>
      <point x="653" y="706" type="line"/>
      <point x="555" y="706" type="line"/>
      <point x="555" y="221" type="line" smooth="yes"/>
      <point x="555" y="91"/>
      <point x="479" y="68"/>
      <point x="380" y="68" type="curve" smooth="yes"/>
      <point x="282" y="68"/>
      <point x="196" y="91"/>
      <point x="196" y="221" type="curve" smooth="yes"/>
      <point x="196" y="706" type="line"/>
      <point x="98" y="706" type="line"/>
      <point x="98" y="231" type="line" smooth="yes"/>
      <point x="98" y="99"/>
      <point x="149" y="-11"/>
    </contour>
  </outline>
</glyph>
<glyph name="V" format="1">
  <advance width="676"/>
  <unicode hex="0056"/>
  <outline>
    <contour>
      <point x="294" y="0" type="line"/>
      <point x="380" y="0" type="line"/>
      <point x="635" y="706" type="line"/>
      <point x="533" y="706" type="line"/>
      <point x="338" y="144" type="line"/>
      <point x="143" y="706" type="line"/>
      <point x="42" y="706" type="line"/>
    </contour>
  </outline>
</glyph>
<glyph name="W" format="1">
  <advance width="1000"/>
  <unicode hex="0057"/>
  <outline>
    <contour>
      <point x="506" y="706" type="move" name="top"/>
    </contour>
    <contour>
      <point x="255" y="0" type="line"/>
      <point x="329" y="0" type="line"/>
      <point x="506" y="602" type="line"/>
      <point x="679" y="0" type="line"/>
      <point x="753" y="0" type="line"/>
      <point x="945" y="706" type="line"/>
      <point x="856" y="706" type="line"/>
      <point x="714" y="169" type="line"/>
      <point x="553" y="706" type="line"/>
      <point x="448" y="706" type="line"/>
      <point x="294" y="169" type="line"/>
      <point x="145" y="706" type="line"/>
      <point x="55" y="706" type="line"/>
    </contour>
  </outline>
</glyph>
<glyph name="X" format="1">
  <advance width="652"/>
  <unicode hex="0058"/>
  <outline>
    <contour>
      <point x="46" y="0" type="line"/>
      <point x="149" y="0" type="line"/>
      <point x="326" y="277" type="line"/>
      <point x="500" y="0" type="line"/>
      <point x="606" y="0" type="line"/>
      <point x="377" y="358" type="line"/>
      <point x="599" y="706" type="line"/>
      <point x="493" y="706" type="line"/>
      <point x="327" y="438" type="line"/>
      <point x="156" y="706" type="line"/>
      <point x="57" y="706" type="line"/>
      <point x="276" y="357" type="line"/>
    </contour>
  </outline>
</glyph>
<glyph name="Y" format="1">
  <advance width="1318"/>
  <unicode hex="0059"/>
  <outline>
    <contour>
      <point x="679" y="1446" type="move" name="top"/>
    </contour>
    <contour>
      <point x="560" y="0" type="line"/>
      <point x="761" y="0" type="line"/>
      <point x="761" y="568" type="line"/>
      <point x="1270" y="1446" type="line"/>
      <point x="1063" y="1446" type="line"/>
      <point x="661" y="744" type="line"/>
      <point x="261" y="1446" type="line"/>
      <point x="48" y="1446" type="line"/>
      <point x="560" y="568" type="line"/>
    </contour>
  </outline>
</glyph>
<glyph name="Z" format="1">
  <advance width="606"/>
  <unicode hex="005A"/>
  <outline>
    <contour>
      <point x="88" y="0" type="line"/>
      <point x="535" y="0" type="line"/>
      <point x="535" y="81" type="line"/>
      <point x="196" y="81" type="line"/>
      <point x="529" y="632" type="line"/>
      <point x="529" y="706" type="line"/>
      <point x="103" y="706" type="line"/>
      <point x="103" y="625" type="line"/>
      <point x="421" y="625" type="line"/>
      <point x="88" y="73" type="line"/>
    </contour>
    <contour>
      <point x="324" y="706" type="move" name="top"/>
    </contour>
  </outline>
</glyph>
<glyph name="bracketleft" format="1">
  <advance width="375"/>
  <unicode hex="005B"/>
  <outline>
    <contour>
      <point x="125" y="-37" type="line"/>
      <point x="310" y="-37" type="line"/>
      <point x="310" y="28" type="line"/>
      <point x="217" y="28" type="line"/>
      <point x="217" y="682" type="line"/>
      <point x="310" y="682" type="line"/>
      <point x="310" y="747" type="line"/>
      <point x="125" y="747" type="line"/>
    </contour>
  </outline>
</glyph>
<glyph name="backslash" format="1">
  <advance width="375"/>
  <unicode hex="005C"/>
  <outline>
    <contour>
      <point x="254" y="0" type="line"/>
      <point x="344" y="0" type="line"/>
      <point x="123" y="735" type="line"/>
      <point x="31" y="735" type="line"/>
    </contour>
  </outline>
</glyph>
<glyph name="bracketright" format="1">
  <advance width="375"/>
  <unicode hex="005D"/>
  <outline>
    <contour>
      <point x="95" y="-37" type="line"/>
      <point x="280" y="-37" type="line"/>
      <point x="280" y="747" type="line"/>
      <point x="95" y="747" type="line"/>
      <point x="95" y="681" type="line"/>
      <point x="188" y="681" type="line"/>
      <point x="188" y="28" type="line"/>
      <point x="95" y="28" type="line"/>
    </contour>
  </outline>
</glyph>
<glyph name="asciicircum" format="1">
  <advance width="613"/>
  <unicode hex="005E"/>
  <outline>
    <contour>
      <point x="75" y="306" type="line"/>
      <point x="170" y="306" type="line"/>
      <point x="307" y="567" type="line"/>
      <point x="444" y="306" type="line"/>
      <point x="539" y="306" type="line"/>
      <point x="359" y="626" type="line"/>
      <point x="250" y="626" type="line"/>
    </contour>
  </outline>
</glyph>
<glyph name="underscore" format="1">
  <advance width="453"/>
  <unicode hex="005F"/>
  <outline>
    <contour>
      <point x="7" y="-51" type="line"/>
      <point x="447" y="-51" type="line"/>
      <point x="447" y="22" type="line"/>
      <point x="7" y="22" type="line"/>
    </contour>
  </outline>
</glyph>
<glyph name="grave" format="1">
  <advance width="616"/>
  <unicode hex="0060"/>
  <outline>
    <contour>
      <point x="339" y="1060" type="move" name="_top"/>
    </contour>
    <contour>
      <point x="25" y="1585" type="line"/>
      <point x="260" y="1204" type="line"/>
      <point x="388" y="1204" type="line"/>
      <point x="250" y="1585" type="line"/>
    </contour>
  </outline>
</glyph>
<glyph name="a" format="1">
  <advance width="572"/>
  <unicode hex="0061"/>
  <outline>
    <contour>
      <point x="70" y="131" type="curve" smooth="yes"/>
      <point x="70" y="46"/>
      <point x="111" y="-11"/>
      <point x="220" y="-11" type="curve" smooth="yes"/>
      <point x="315" y="-11"/>
      <point x="366" y="38"/>
      <point x="389" y="73" type="curve"/>
      <point x="405" y="24"/>
      <point x="429" y="-4"/>
      <point x="498" y="-4" type="curve" smooth="yes"/>
      <point x="517" y="-4" type="line"/>
      <point x="527" y="66" type="line"/>
      <point x="483" y="66"/>
      <point x="473" y="76"/>
      <point x="473" y="131" type="curve" smooth="yes"/>
      <point x="473" y="352" type="line" smooth="yes"/>
      <point x="473" y="458"/>
      <point x="426" y="527"/>
      <point x="289" y="527" type="curve" smooth="yes"/>
      <point x="153" y="527"/>
      <point x="85" y="482"/>
      <point x="85" y="380" type="curve" smooth="yes"/>
      <point x="85" y="357" type="line"/>
      <point x="173" y="357" type="line"/>
      <point x="173" y="380" type="line" smooth="yes"/>
      <point x="173" y="422"/>
      <point x="182" y="457"/>
      <point x="286" y="457" type="curve" smooth="yes"/>
      <point x="369" y="457"/>
      <point x="381" y="422"/>
      <point x="381" y="380" type="curve" smooth="yes"/>
      <point x="381" y="345"/>
      <point x="376" y="333"/>
      <point x="355" y="326" type="curve" smooth="yes"/>
      <point x="247" y="286" type="line"/>
      <point x="109" y="236"/>
      <point x="70" y="201"/>
    </contour>
    <contour>
      <point x="238" y="58" type="curve" smooth="yes"/>
      <point x="174" y="58"/>
      <point x="158" y="77"/>
      <point x="158" y="133" type="curve" smooth="yes"/>
      <point x="158" y="176"/>
      <point x="188" y="198"/>
      <point x="265" y="228" type="curve" smooth="yes"/>
      <point x="381" y="272" type="line"/>
      <point x="381" y="145" type="line"/>
      <point x="366" y="97"/>
      <point x="293" y="58"/>
    </contour>
    <contour>
      <point x="491" y="5" type="move" name="ogonek"/>
    </contour>
    <contour>
      <point x="285" y="518" type="move" name="top"/>
    </contour>
  </outline>
</glyph>
<glyph name="b" format="1">
  <advance width="587"/>
  <unicode hex="0062"/>
  <outline>
    <contour>
      <point x="306" y="-11" type="curve" smooth="yes"/>
      <point x="441" y="-11"/>
      <point x="516" y="68"/>
      <point x="516" y="172" type="curve" smooth="yes"/>
      <point x="516" y="359" type="line" smooth="yes"/>
      <point x="516" y="459"/>
      <point x="449" y="527"/>
      <point x="317" y="527" type="curve" smooth="yes"/>
      <point x="269" y="527"/>
      <point x="216" y="512"/>
      <point x="183" y="493" type="curve"/>
      <point x="183" y="735" type="line"/>
      <point x="91" y="735" type="line"/>
      <point x="91" y="0" type="line"/>
      <point x="159" y="0" type="line"/>
      <point x="170" y="35" type="line"/>
      <point x="197" y="18"/>
      <point x="244" y="-11"/>
    </contour>
    <contour>
      <point x="292" y="62" type="curve" smooth="yes"/>
      <point x="249" y="62"/>
      <point x="210" y="77"/>
      <point x="183" y="92" type="curve"/>
      <point x="183" y="425" type="line"/>
      <point x="217" y="441"/>
      <point x="270" y="457"/>
      <point x="313" y="457" type="curve" smooth="yes"/>
      <point x="380" y="457"/>
      <point x="424" y="428"/>
      <point x="424" y="366" type="curve" smooth="yes"/>
      <point x="424" y="162" type="line" smooth="yes"/>
      <point x="424" y="99"/>
      <point x="364" y="62"/>
    </contour>
    <contour>
      <point x="324" y="518" type="move" name="top"/>
    </contour>
  </outline>
</glyph>
<glyph name="c" format="1">
  <advance width="540"/>
  <unicode hex="0063"/>
  <outline>
    <contour>
      <point x="273" y="0" type="move" name="bot"/>
    </contour>
    <contour>
      <point x="290" y="518" type="move" name="top"/>
    </contour>
    <contour>
      <point x="283" y="-11" type="curve" smooth="yes"/>
      <point x="424" y="-11"/>
      <point x="473" y="32"/>
      <point x="483" y="151" type="curve"/>
      <point x="398" y="151" type="line"/>
      <point x="391" y="73"/>
      <point x="374" y="60"/>
      <point x="283" y="60" type="curve" smooth="yes"/>
      <point x="209" y="60"/>
      <point x="164" y="86"/>
      <point x="164" y="160" type="curve" smooth="yes"/>
      <point x="164" y="363" type="line" smooth="yes"/>
      <point x="164" y="432"/>
      <point x="204" y="457"/>
      <point x="283" y="457" type="curve" smooth="yes"/>
      <point x="369" y="457"/>
      <point x="397" y="440"/>
      <point x="397" y="345" type="curve"/>
      <point x="484" y="354" type="line"/>
      <point x="484" y="493"/>
      <point x="404" y="527"/>
      <point x="280" y="527" type="curve" smooth="yes"/>
      <point x="152" y="527"/>
      <point x="72" y="463"/>
      <point x="72" y="365" type="curve" smooth="yes"/>
      <point x="72" y="168" type="line" smooth="yes"/>
      <point x="72" y="72"/>
      <point x="129" y="-11"/>
    </contour>
  </outline>
</glyph>
<glyph name="d" format="1">
  <advance width="585"/>
  <unicode hex="0064"/>
  <outline>
    <contour>
      <point x="277" y="-11" type="curve" smooth="yes"/>
      <point x="330" y="-11"/>
      <point x="387" y="11"/>
      <point x="417" y="34" type="curve"/>
      <point x="433" y="0" type="line"/>
      <point x="495" y="0" type="line"/>
      <point x="495" y="735" type="line"/>
      <point x="403" y="735" type="line"/>
      <point x="403" y="508" type="line"/>
      <point x="371" y="520"/>
      <point x="322" y="527"/>
      <point x="289" y="527" type="curve" smooth="yes"/>
      <point x="139" y="527"/>
      <point x="72" y="463"/>
      <point x="72" y="359" type="curve" smooth="yes"/>
      <point x="72" y="164" type="line" smooth="yes"/>
      <point x="72" y="64"/>
      <point x="128" y="-11"/>
    </contour>
    <contour>
      <point x="283" y="62" type="curve" smooth="yes"/>
      <point x="216" y="62"/>
      <point x="164" y="93"/>
      <point x="164" y="157" type="curve" smooth="yes"/>
      <point x="164" y="369" type="line" smooth="yes"/>
      <point x="164" y="432"/>
      <point x="218" y="457"/>
      <point x="290" y="457" type="curve" smooth="yes"/>
      <point x="333" y="457"/>
      <point x="376" y="449"/>
      <point x="403" y="436" type="curve"/>
      <point x="403" y="92" type="line"/>
      <point x="382" y="79"/>
      <point x="335" y="62"/>
    </contour>
    <contour>
      <point x="448" y="623" type="move" name="mid"/>
    </contour>
    <contour>
      <point x="403" y="518" type="move" name="caron.alt"/>
    </contour>
    <contour>
      <point x="285" y="518" type="move" name="top"/>
    </contour>
  </outline>
</glyph>
<glyph name="e" format="1">
  <advance width="555"/>
  <unicode hex="0065"/>
  <outline>
    <contour>
      <point x="288" y="-11" type="curve" smooth="yes"/>
      <point x="432" y="-11"/>
      <point x="477" y="16"/>
      <point x="490" y="138" type="curve"/>
      <point x="409" y="138" type="line"/>
      <point x="401" y="60"/>
      <point x="374" y="60"/>
      <point x="288" y="60" type="curve" smooth="yes"/>
      <point x="190" y="60"/>
      <point x="164" y="90"/>
      <point x="164" y="174" type="curve" smooth="yes"/>
      <point x="164" y="247" type="line"/>
      <point x="491" y="247" type="line"/>
      <point x="491" y="370" type="line" smooth="yes"/>
      <point x="491" y="468"/>
      <point x="426" y="527"/>
      <point x="284" y="527" type="curve" smooth="yes"/>
      <point x="136" y="527"/>
      <point x="72" y="461"/>
      <point x="72" y="363" type="curve" smooth="yes"/>
      <point x="72" y="183" type="line" smooth="yes"/>
      <point x="72" y="54"/>
      <point x="134" y="-11"/>
    </contour>
    <contour>
      <point x="164" y="309" type="line"/>
      <point x="164" y="371" type="line" smooth="yes"/>
      <point x="164" y="435"/>
      <point x="211" y="457"/>
      <point x="284" y="457" type="curve" smooth="yes"/>
      <point x="355" y="457"/>
      <point x="402" y="442"/>
      <point x="402" y="380" type="curve" smooth="yes"/>
      <point x="402" y="309" type="line"/>
    </contour>
    <contour>
      <point x="288" y="0" type="move" name="bot"/>
    </contour>
    <contour>
      <point x="340" y="0" type="move" name="ogonek"/>
    </contour>
    <contour>
      <point x="285" y="518" type="move" name="top"/>
    </contour>
  </outline>
</glyph>
<glyph name="f" format="1">
  <advance width="782"/>
  <unicode hex="0066"/>
  <outline>
    <contour>
      <point x="388" y="1446" type="move" name="top"/>
    </contour>
    <contour>
      <point x="279" y="0" type="line"/>
      <point x="467" y="0" type="line"/>
      <point x="467" y="918" type="line"/>
      <point x="724" y="918" type="line"/>
      <point x="724" y="1060" type="line"/>
      <point x="467" y="1060" type="line"/>
      <point x="467" y="1239" type="line" smooth="yes"/>
      <point x="467" y="1315"/>
      <point x="505" y="1372"/>
      <point x="620" y="1372" type="curve" smooth="yes"/>
      <point x="736" y="1372" type="line"/>
      <point x="724" y="1505" type="line"/>
      <point x="605" y="1505" type="line" smooth="yes"/>
      <point x="387" y="1505"/>
      <point x="279" y="1419"/>
      <point x="279" y="1221" type="curve" smooth="yes"/>
      <point x="279" y="1060" type="line"/>
      <point x="102" y="1060" type="line"/>
      <point x="102" y="918" type="line"/>
      <point x="279" y="918" type="line"/>
    </contour>
  </outline>
</glyph>
<glyph name="g" format="1">
  <advance width="577"/>
  <unicode hex="0067"/>
  <outline>
    <contour>
      <point x="276" y="518" type="move" name="top"/>
    </contour>
    <contour>
      <point x="294" y="-199" type="curve" smooth="yes"/>
      <point x="431" y="-199"/>
      <point x="493" y="-109"/>
      <point x="493" y="12" type="curve" smooth="yes"/>
      <point x="493" y="518" type="line"/>
      <point x="401" y="518" type="line"/>
      <point x="401" y="476" type="line"/>
      <point x="386" y="500"/>
      <point x="322" y="527"/>
      <point x="269" y="527" type="curve" smooth="yes"/>
      <point x="134" y="527"/>
      <point x="72" y="459"/>
      <point x="72" y="355" type="curve" smooth="yes"/>
      <point x="72" y="185" type="line" smooth="yes"/>
      <point x="72" y="78"/>
      <point x="137" y="20"/>
      <point x="269" y="20" type="curve" smooth="yes"/>
      <point x="305" y="20"/>
      <point x="372" y="30"/>
      <point x="401" y="57" type="curve"/>
      <point x="401" y="-15" type="line" smooth="yes"/>
      <point x="401" y="-92"/>
      <point x="365" y="-129"/>
      <point x="275" y="-129" type="curve" smooth="yes"/>
      <point x="226" y="-129"/>
      <point x="172" y="-121"/>
      <point x="144" y="-111" type="curve"/>
      <point x="124" y="-180" type="line"/>
      <point x="162" y="-194"/>
      <point x="224" y="-199"/>
    </contour>
    <contour>
      <point x="283" y="90" type="curve" smooth="yes"/>
      <point x="216" y="90"/>
      <point x="164" y="109"/>
      <point x="164" y="171" type="curve" smooth="yes"/>
      <point x="164" y="365" type="line" smooth="yes"/>
      <point x="164" y="428"/>
      <point x="210" y="457"/>
      <point x="282" y="457" type="curve" smooth="yes"/>
      <point x="364" y="457"/>
      <point x="401" y="431"/>
      <point x="401" y="386" type="curve" smooth="yes"/>
      <point x="401" y="129" type="line"/>
      <point x="386" y="117"/>
      <point x="351" y="90"/>
    </contour>
  </outline>
</glyph>
<glyph name="h" format="1">
  <advance width="597"/>
  <unicode hex="0068"/>
  <outline>
    <contour>
      <point x="91" y="0" type="line"/>
      <point x="183" y="0" type="line"/>
      <point x="183" y="370" type="line" smooth="yes"/>
      <point x="183" y="420"/>
      <point x="223" y="457"/>
      <point x="313" y="457" type="curve" smooth="yes"/>
      <point x="377" y="457"/>
      <point x="421" y="433"/>
      <point x="421" y="382" type="curve" smooth="yes"/>
      <point x="421" y="0" type="line"/>
      <point x="513" y="0" type="line"/>
      <point x="513" y="377" type="line" smooth="yes"/>
      <point x="513" y="459"/>
      <point x="464" y="527"/>
      <point x="337" y="527" type="curve" smooth="yes"/>
      <point x="262" y="527"/>
      <point x="213" y="504"/>
      <point x="183" y="469" type="curve"/>
      <point x="183" y="735" type="line"/>
      <point x="91" y="735" type="line"/>
    </contour>
    <contour>
      <point x="139" y="623" type="move" name="mid"/>
    </contour>
    <contour>
      <point x="335" y="518" type="move" name="top"/>
    </contour>
  </outline>
</glyph>
<glyph name="k" format="1">
  <advance width="559"/>
  <unicode hex="006B"/>
  <outline>
    <contour>
      <point x="91" y="0" type="line"/>
      <point x="183" y="0" type="line"/>
      <point x="183" y="163" type="line"/>
      <point x="260" y="240" type="line"/>
      <point x="446" y="0" type="line"/>
      <point x="552" y="0" type="line"/>
      <point x="320" y="290" type="line"/>
      <point x="531" y="518" type="line"/>
      <point x="430" y="518" type="line"/>
      <point x="183" y="256" type="line"/>
      <point x="183" y="735" type="line"/>
      <point x="91" y="735" type="line"/>
    </contour>
    <contour>
      <point x="306" y="0" type="move" name="bot"/>
    </contour>
    <contour>
      <point x="300" y="518" type="move" name="top"/>
    </contour>
  </outline>
</glyph>
<glyph name="l" format="1">
  <advance width="337"/>
  <unicode hex="006C"/>
  <outline>
    <contour>
      <point x="259" y="-4" type="curve" smooth="yes"/>
      <point x="285" y="-4" type="line"/>
      <point x="296" y="73" type="line"/>
      <point x="280" y="73" type="line" smooth="yes"/>
      <point x="203" y="73"/>
      <point x="185" y="90"/>
      <point x="185" y="174" type="curve" smooth="yes"/>
      <point x="185" y="735" type="line"/>
      <point x="93" y="735" type="line"/>
      <point x="93" y="175" type="line" smooth="yes"/>
      <point x="93" y="24"/>
      <point x="146" y="-4"/>
    </contour>
    <contour>
      <point x="186" y="0" type="move" name="bot"/>
    </contour>
    <contour>
      <point x="114" y="518" type="move" name="caron.alt"/>
    </contour>
    <contour>
      <point x="147" y="735" type="move" name="top"/>
    </contour>
  </outline>
</glyph>
<glyph name="m" format="1">
  <advance width="908"/>
  <unicode hex="006D"/>
  <outline>
    <contour>
      <point x="91" y="0" type="line"/>
      <point x="183" y="0" type="line"/>
      <point x="183" y="369" type="line" smooth="yes"/>
      <point x="183" y="419"/>
      <point x="218" y="457"/>
      <point x="308" y="457" type="curve" smooth="yes"/>
      <point x="372" y="457"/>
      <point x="412" y="432"/>
      <point x="412" y="381" type="curve" smooth="yes"/>
      <point x="412" y="0" type="line"/>
      <point x="504" y="0" type="line"/>
      <point x="504" y="369" type="line" smooth="yes"/>
      <point x="504" y="419"/>
      <point x="539" y="457"/>
      <point x="629" y="457" type="curve" smooth="yes"/>
      <point x="693" y="457"/>
      <point x="730" y="432"/>
      <point x="730" y="381" type="curve" smooth="yes"/>
      <point x="730" y="0" type="line"/>
      <point x="822" y="0" type="line"/>
      <point x="822" y="376" type="line" smooth="yes"/>
      <point x="822" y="458"/>
      <point x="779" y="527"/>
      <point x="652" y="527" type="curve" smooth="yes"/>
      <point x="577" y="527"/>
      <point x="528" y="503"/>
      <point x="483" y="459" type="curve"/>
      <point x="459" y="500"/>
      <point x="411" y="527"/>
      <point x="331" y="527" type="curve" smooth="yes"/>
      <point x="256" y="527"/>
      <point x="213" y="502"/>
      <point x="183" y="467" type="curve"/>
      <point x="183" y="518" type="line"/>
      <point x="91" y="518" type="line"/>
    </contour>
    <contour>
      <point x="485" y="518" type="move" name="top"/>
    </contour>
  </outline>
</glyph>
<glyph name="n" format="1">
  <advance width="597"/>
  <unicode hex="006E"/>
  <outline>
    <contour>
      <point x="299" y="0" type="move" name="bot"/>
    </contour>
    <contour>
      <point x="334" y="518" type="move" name="top"/>
    </contour>
    <contour>
      <point x="91" y="0" type="line"/>
      <point x="183" y="0" type="line"/>
      <point x="183" y="369" type="line" smooth="yes"/>
      <point x="183" y="419"/>
      <point x="222" y="457"/>
      <point x="312" y="457" type="curve" smooth="yes"/>
      <point x="376" y="457"/>
      <point x="421" y="432"/>
      <point x="421" y="381" type="curve" smooth="yes"/>
      <point x="421" y="0" type="line"/>
      <point x="513" y="0" type="line"/>
      <point x="513" y="376" type="line" smooth="yes"/>
      <point x="513" y="458"/>
      <point x="463" y="527"/>
      <point x="336" y="527" type="curve" smooth="yes"/>
      <point x="261" y="527"/>
      <point x="213" y="502"/>
      <point x="183" y="467" type="curve"/>
      <point x="183" y="518" type="line"/>
      <point x="91" y="518" type="line"/>
    </contour>
  </outline>
</glyph>
<glyph name="o" format="1">
  <advance width="573"/>
  <unicode hex="006F"/>
  <outline>
    <contour>
      <point x="287" y="60" type="curve" smooth="yes"/>
      <point x="214" y="60"/>
      <point x="164" y="82"/>
      <point x="164" y="146" type="curve" smooth="yes"/>
      <point x="164" y="370" type="line" smooth="yes"/>
      <point x="164" y="434"/>
      <point x="214" y="457"/>
      <point x="287" y="457" type="curve" smooth="yes"/>
      <point x="359" y="457"/>
      <point x="409" y="434"/>
      <point x="409" y="370" type="curve" smooth="yes"/>
      <point x="409" y="146" type="line" smooth="yes"/>
      <point x="409" y="82"/>
      <point x="359" y="60"/>
    </contour>
    <contour>
      <point x="287" y="-11" type="curve" smooth="yes"/>
      <point x="441" y="-11"/>
      <point x="501" y="58"/>
      <point x="501" y="154" type="curve" smooth="yes"/>
      <point x="501" y="362" type="line" smooth="yes"/>
      <point x="501" y="458"/>
      <point x="441" y="527"/>
      <point x="287" y="527" type="curve" smooth="yes"/>
      <point x="131" y="527"/>
      <point x="72" y="458"/>
      <point x="72" y="362" type="curve" smooth="yes"/>
      <point x="72" y="154" type="line" smooth="yes"/>
      <point x="72" y="58"/>
      <point x="131" y="-11"/>
    </contour>
    <contour>
      <point x="290" y="0" type="move" name="bot"/>
    </contour>
    <contour>
      <point x="310" y="0" type="move" name="ogonek"/>
    </contour>
    <contour>
      <point x="286" y="518" type="move" name="top"/>
    </contour>
  </outline>
</glyph>
<glyph name="p" format="1">
  <advance width="584"/>
  <unicode hex="0070"/>
  <outline>
    <contour>
      <point x="316" y="518" type="move" name="top"/>
    </contour>
    <contour>
      <point x="91" y="-199" type="line"/>
      <point x="183" y="-199" type="line"/>
      <point x="183" y="17" type="line"/>
      <point x="208" y="4"/>
      <point x="247" y="-11"/>
      <point x="305" y="-11" type="curve" smooth="yes"/>
      <point x="440" y="-11"/>
      <point x="513" y="64"/>
      <point x="513" y="168" type="curve" smooth="yes"/>
      <point x="513" y="356" type="line" smooth="yes"/>
      <point x="513" y="456"/>
      <point x="448" y="527"/>
      <point x="316" y="527" type="curve" smooth="yes"/>
      <point x="257" y="527"/>
      <point x="201" y="503"/>
      <point x="174" y="479" type="curve"/>
      <point x="163" y="518" type="line"/>
      <point x="91" y="518" type="line"/>
    </contour>
    <contour>
      <point x="299" y="60" type="curve" smooth="yes"/>
      <point x="246" y="60"/>
      <point x="206" y="74"/>
      <point x="183" y="87" type="curve"/>
      <point x="183" y="402" type="line"/>
      <point x="191" y="415"/>
      <point x="237" y="457"/>
      <point x="302" y="457" type="curve" smooth="yes"/>
      <point x="369" y="457"/>
      <point x="421" y="425"/>
      <point x="421" y="363" type="curve" smooth="yes"/>
      <point x="421" y="158" type="line" smooth="yes"/>
      <point x="421" y="95"/>
      <point x="371" y="60"/>
    </contour>
  </outline>
</glyph>
<glyph name="q" format="1">
  <advance width="585"/>
  <unicode hex="0071"/>
  <outline>
    <contour>
      <point x="403" y="-199" type="line"/>
      <point x="495" y="-199" type="line"/>
      <point x="495" y="518" type="line"/>
      <point x="403" y="518" type="line"/>
      <point x="403" y="476" type="line"/>
      <point x="388" y="500"/>
      <point x="326" y="527"/>
      <point x="273" y="527" type="curve" smooth="yes"/>
      <point x="138" y="527"/>
      <point x="72" y="459"/>
      <point x="72" y="355" type="curve" smooth="yes"/>
      <point x="72" y="153" type="line" smooth="yes"/>
      <point x="72" y="53"/>
      <point x="148" y="-11"/>
      <point x="280" y="-11" type="curve" smooth="yes"/>
      <point x="316" y="-11"/>
      <point x="371" y="-1"/>
      <point x="403" y="23" type="curve"/>
    </contour>
    <contour>
      <point x="286" y="60" type="curve" smooth="yes"/>
      <point x="219" y="60"/>
      <point x="164" y="77"/>
      <point x="164" y="139" type="curve" smooth="yes"/>
      <point x="164" y="365" type="line" smooth="yes"/>
      <point x="164" y="428"/>
      <point x="215" y="457"/>
      <point x="287" y="457" type="curve" smooth="yes"/>
      <point x="369" y="457"/>
      <point x="403" y="425"/>
      <point x="403" y="396" type="curve" smooth="yes"/>
      <point x="403" y="98" type="line"/>
      <point x="398" y="88"/>
      <point x="354" y="60"/>
    </contour>
  </outline>
</glyph>
<glyph name="r" format="1">
  <advance width="389"/>
  <unicode hex="0072"/>
  <outline>
    <contour>
      <point x="140" y="0" type="move" name="bot"/>
    </contour>
    <contour>
      <point x="233" y="518" type="move" name="top"/>
    </contour>
    <contour>
      <point x="91" y="0" type="line"/>
      <point x="183" y="0" type="line"/>
      <point x="183" y="353" type="line" smooth="yes"/>
      <point x="183" y="405"/>
      <point x="271" y="446"/>
      <point x="359" y="446" type="curve"/>
      <point x="362" y="525" type="line"/>
      <point x="294" y="525"/>
      <point x="208" y="502"/>
      <point x="183" y="435" type="curve"/>
      <point x="183" y="518" type="line"/>
      <point x="91" y="518" type="line"/>
    </contour>
  </outline>
</glyph>
<glyph name="s" format="1">
  <advance width="479"/>
  <unicode hex="0073"/>
  <outline>
    <contour>
      <point x="251" y="0" type="move" name="bot"/>
    </contour>
    <contour>
      <point x="254" y="518" type="move" name="top"/>
    </contour>
    <contour>
      <point x="256" y="-11" type="curve" smooth="yes"/>
      <point x="379" y="-11"/>
      <point x="426" y="56"/>
      <point x="426" y="138" type="curve" smooth="yes"/>
      <point x="426" y="219"/>
      <point x="409" y="252"/>
      <point x="322" y="286" type="curve" smooth="yes"/>
      <point x="201" y="333" type="line" smooth="yes"/>
      <point x="165" y="346"/>
      <point x="156" y="358"/>
      <point x="156" y="390" type="curve" smooth="yes"/>
      <point x="156" y="437"/>
      <point x="172" y="457"/>
      <point x="256" y="457" type="curve" smooth="yes"/>
      <point x="299" y="457"/>
      <point x="362" y="441"/>
      <point x="392" y="429" type="curve"/>
      <point x="413" y="499" type="line"/>
      <point x="375" y="514"/>
      <point x="312" y="527"/>
      <point x="239" y="527" type="curve" smooth="yes"/>
      <point x="111" y="527"/>
      <point x="71" y="473"/>
      <point x="71" y="386" type="curve" smooth="yes"/>
      <point x="71" y="322"/>
      <point x="96" y="288"/>
      <point x="172" y="262" type="curve"/>
      <point x="295" y="216" type="line" smooth="yes"/>
      <point x="344" y="198"/>
      <point x="348" y="177"/>
      <point x="348" y="137" type="curve" smooth="yes"/>
      <point x="348" y="94"/>
      <point x="326" y="60"/>
      <point x="244" y="60" type="curve" smooth="yes"/>
      <point x="174" y="60"/>
      <point x="113" y="86"/>
      <point x="90" y="99" type="curve"/>
      <point x="67" y="31" type="line"/>
      <point x="90" y="18"/>
      <point x="159" y="-11"/>
    </contour>
  </outline>
</glyph>
<glyph name="t" format="1">
  <advance width="406"/>
  <unicode hex="0074"/>
  <outline>
    <contour>
      <point x="330" y="-4" type="curve" smooth="yes"/>
      <point x="344" y="-4" type="line"/>
      <point x="354" y="73" type="line"/>
      <point x="343" y="73" type="line" smooth="yes"/>
      <point x="256" y="73"/>
      <point x="217" y="86"/>
      <point x="217" y="154" type="curve" smooth="yes"/>
      <point x="217" y="448" type="line"/>
      <point x="347" y="448" type="line"/>
      <point x="347" y="518" type="line"/>
      <point x="217" y="518" type="line"/>
      <point x="217" y="678" type="line"/>
      <point x="140" y="678" type="line"/>
      <point x="129" y="518" type="line"/>
      <point x="39" y="518" type="line"/>
      <point x="39" y="448" type="line"/>
      <point x="125" y="448" type="line"/>
      <point x="125" y="148" type="line" smooth="yes"/>
      <point x="125" y="34"/>
      <point x="188" y="-4"/>
    </contour>
    <contour>
      <point x="121" y="518" type="move" name="caron.alt"/>
    </contour>
    <contour>
      <point x="185" y="292" type="move" name="mid"/>
    </contour>
    <contour>
      <point x="218" y="625" type="move" name="top"/>
    </contour>
    <contour>
      <point x="221" y="16" type="move" name="bot"/>
    </contour>
  </outline>
</glyph>
<glyph name="u" format="1">
  <advance width="596"/>
  <unicode hex="0075"/>
  <outline>
    <contour>
      <point x="467" y="0" type="move" name="ogonek"/>
    </contour>
    <contour>
      <point x="304" y="518" type="move" name="top"/>
    </contour>
    <contour>
      <point x="263" y="-11" type="curve" smooth="yes"/>
      <point x="338" y="-11"/>
      <point x="388" y="19"/>
      <point x="414" y="65" type="curve"/>
      <point x="424" y="0" type="line"/>
      <point x="506" y="0" type="line"/>
      <point x="506" y="518" type="line"/>
      <point x="414" y="518" type="line"/>
      <point x="414" y="151" type="line" smooth="yes"/>
      <point x="414" y="108"/>
      <point x="371" y="60"/>
      <point x="281" y="60" type="curve" smooth="yes"/>
      <point x="217" y="60"/>
      <point x="177" y="90"/>
      <point x="177" y="141" type="curve" smooth="yes"/>
      <point x="177" y="518" type="line"/>
      <point x="85" y="518" type="line"/>
      <point x="85" y="142" type="line" smooth="yes"/>
      <point x="85" y="60"/>
      <point x="136" y="-11"/>
    </contour>
  </outline>
</glyph>
<glyph name="v" format="1">
  <advance width="539"/>
  <unicode hex="0076"/>
  <outline>
    <contour>
      <point x="232" y="0" type="line"/>
      <point x="325" y="0" type="line"/>
      <point x="508" y="518" type="line"/>
      <point x="418" y="518" type="line"/>
      <point x="279" y="98" type="line"/>
      <point x="124" y="518" type="line"/>
      <point x="31" y="518" type="line"/>
    </contour>
  </outline>
</glyph>
<glyph name="w" format="1">
  <advance width="788"/>
  <unicode hex="0077"/>
  <outline>
    <contour>
      <point x="174" y="0" type="line"/>
      <point x="261" y="0" type="line"/>
      <point x="394" y="413" type="line"/>
      <point x="526" y="0" type="line"/>
      <point x="611" y="0" type="line"/>
      <point x="763" y="518" type="line"/>
      <point x="678" y="518" type="line"/>
      <point x="567" y="111" type="line"/>
      <point x="437" y="518" type="line"/>
      <point x="349" y="518" type="line"/>
      <point x="224" y="111" type="line"/>
      <point x="109" y="518" type="line"/>
      <point x="25" y="518" type="line"/>
    </contour>
    <contour>
      <point x="396" y="518" type="move" name="top"/>
    </contour>
  </outline>
</glyph>
<glyph name="x" format="1">
  <advance width="515"/>
  <unicode hex="0078"/>
  <outline>
    <contour>
      <point x="31" y="0" type="line"/>
      <point x="123" y="0" type="line"/>
      <point x="261" y="197" type="line"/>
      <point x="399" y="0" type="line"/>
      <point x="488" y="0" type="line"/>
      <point x="306" y="261" type="line"/>
      <point x="486" y="518" type="line"/>
      <point x="397" y="518" type="line"/>
      <point x="261" y="325" type="line"/>
      <point x="126" y="518" type="line"/>
      <point x="34" y="518" type="line"/>
      <point x="215" y="260" type="line"/>
    </contour>
  </outline>
</glyph>
<glyph name="y" format="1">
  <advance width="1118"/>
  <unicode hex="0079"/>
  <outline>
    <contour>
      <point x="198" y="-406" type="line"/>
      <point x="510" y="-406"/>
      <point x="601" y="-280"/>
      <point x="712" y="45" type="curve" smooth="yes"/>
      <point x="1060" y="1060" type="line"/>
      <point x="870" y="1060" type="line"/>
      <point x="599" y="216" type="line"/>
      <point x="275" y="1060" type="line"/>
      <point x="76" y="1060" type="line"/>
      <point x="513" y="4" type="line"/>
      <point x="461" y="-189"/>
      <point x="358" y="-259"/>
      <point x="198" y="-259" type="curve"/>
    </contour>
    <contour>
      <point x="585" y="1060" type="move" name="top"/>
    </contour>
  </outline>
</glyph>
<glyph name="z" format="1">
  <advance width="464"/>
  <unicode hex="007A"/>
  <outline>
    <contour>
      <point x="253" y="0" type="move" name="bot"/>
    </contour>
    <contour>
      <point x="249" y="518" type="move" name="top"/>
    </contour>
    <contour>
      <point x="66" y="0" type="line"/>
      <point x="415" y="0" type="line"/>
      <point x="415" y="64" type="line"/>
      <point x="163" y="64" type="line"/>
      <point x="411" y="457" type="line"/>
      <point x="411" y="518" type="line"/>
      <point x="75" y="518" type="line"/>
      <point x="75" y="451" type="line"/>
      <point x="311" y="451" type="line"/>
      <point x="66" y="62" type="line"/>
    </contour>
  </outline>
</glyph>
<glyph name="braceleft" format="1">
  <advance width="464"/>
  <unicode hex="007B"/>
  <outline>
    <contour>
      <point x="423" y="-101" type="curve"/>
      <point x="423" y="-27" type="line"/>
      <point x="285" y="-27"/>
      <point x="283" y="1"/>
      <point x="283" y="115" type="curve" smooth="yes"/>
      <point x="283" y="145" type="line" smooth="yes"/>
      <point x="283" y="229"/>
      <point x="268" y="299"/>
      <point x="232" y="317" type="curve"/>
      <point x="268" y="335"/>
      <point x="283" y="405"/>
      <point x="283" y="489" type="curve" smooth="yes"/>
      <point x="283" y="520" type="line" smooth="yes"/>
      <point x="283" y="634"/>
      <point x="285" y="662"/>
      <point x="423" y="662" type="curve"/>
      <point x="423" y="735" type="line"/>
      <point x="191" y="735"/>
      <point x="189" y="655"/>
      <point x="189" y="511" type="curve" smooth="yes"/>
      <point x="189" y="491" type="line" smooth="yes"/>
      <point x="189" y="365"/>
      <point x="165" y="354"/>
      <point x="114" y="354" type="curve" smooth="yes"/>
      <point x="78" y="354" type="line"/>
      <point x="78" y="280" type="line"/>
      <point x="92" y="280"/>
      <point x="103" y="281"/>
      <point x="114" y="281" type="curve" smooth="yes"/>
      <point x="165" y="281"/>
      <point x="189" y="270"/>
      <point x="189" y="144" type="curve" smooth="yes"/>
      <point x="189" y="124" type="line" smooth="yes"/>
      <point x="189" y="-20"/>
      <point x="191" y="-101"/>
    </contour>
  </outline>
</glyph>
<glyph name="bar" format="1">
  <advance width="336"/>
  <unicode hex="007C"/>
  <outline>
    <contour>
      <point x="125" y="-82" type="line"/>
      <point x="212" y="-82" type="line"/>
      <point x="212" y="759" type="line"/>
      <point x="125" y="759" type="line"/>
    </contour>
  </outline>
</glyph>
<glyph name="braceright" format="1">
  <advance width="464"/>
  <unicode hex="007D"/>
  <outline>
    <contour>
      <point x="62" y="-101" type="line"/>
      <point x="294" y="-101"/>
      <point x="297" y="-20"/>
      <point x="297" y="124" type="curve" smooth="yes"/>
      <point x="297" y="144" type="line" smooth="yes"/>
      <point x="297" y="270"/>
      <point x="321" y="281"/>
      <point x="372" y="281" type="curve" smooth="yes"/>
      <point x="383" y="281"/>
      <point x="394" y="280"/>
      <point x="408" y="280" type="curve"/>
      <point x="408" y="354" type="line"/>
      <point x="372" y="354" type="line" smooth="yes"/>
      <point x="321" y="354"/>
      <point x="297" y="365"/>
      <point x="297" y="491" type="curve" smooth="yes"/>
      <point x="297" y="511" type="line" smooth="yes"/>
      <point x="297" y="655"/>
      <point x="294" y="735"/>
      <point x="62" y="735" type="curve"/>
      <point x="62" y="662" type="line"/>
      <point x="200" y="662"/>
      <point x="203" y="634"/>
      <point x="203" y="520" type="curve" smooth="yes"/>
      <point x="203" y="489" type="line" smooth="yes"/>
      <point x="203" y="405"/>
      <point x="218" y="335"/>
      <point x="254" y="317" type="curve"/>
      <point x="218" y="299"/>
      <point x="203" y="229"/>
      <point x="203" y="145" type="curve" smooth="yes"/>
      <point x="203" y="115" type="line" smooth="yes"/>
      <point x="203" y="1"/>
      <point x="200" y="-27"/>
      <point x="62" y="-27" type="curve"/>
    </contour>
  </outline>
</glyph>
<glyph name="asciitilde" format="1">
  <advance width="430"/>
  <unicode hex="007E"/>
  <outline>
    <contour>
      <point x="293" y="573" type="curve" smooth="yes"/>
      <point x="352" y="573"/>
      <point x="399" y="628"/>
      <point x="399" y="709" type="curve"/>
      <point x="352" y="709" type="line"/>
      <point x="352" y="679"/>
      <point x="338" y="644"/>
      <point x="298" y="644" type="curve" smooth="yes"/>
      <point x="263" y="644"/>
      <point x="204" y="716"/>
      <point x="137" y="716" type="curve" smooth="yes"/>
      <point x="78" y="716"/>
      <point x="31" y="661"/>
      <point x="31" y="580" type="curve"/>
      <point x="79" y="580" type="line"/>
      <point x="79" y="610"/>
      <point x="92" y="645"/>
      <point x="132" y="645" type="curve" smooth="yes"/>
      <point x="167" y="645"/>
      <point x="226" y="573"/>
    </contour>
  </outline>
</glyph>
<glyph name="cent" format="1">
  <advance width="541"/>
  <unicode hex="00A2"/>
  <outline>
    <contour>
      <point x="264" y="495" type="line"/>
      <point x="314" y="495" type="line"/>
      <point x="314" y="624" type="line"/>
      <point x="264" y="624" type="line"/>
    </contour>
    <contour>
      <point x="264" y="-100" type="line"/>
      <point x="314" y="-100" type="line"/>
      <point x="314" y="29" type="line"/>
      <point x="264" y="29" type="line"/>
    </contour>
    <component base="c"/>
  </outline>
</glyph>
<glyph name="sterling" format="1">
  <advance width="621"/>
  <unicode hex="00A3"/>
  <outline>
    <contour>
      <point x="127" y="0" type="line"/>
      <point x="506" y="0" type="line"/>
      <point x="506" y="79" type="line"/>
      <point x="226" y="79" type="line"/>
      <point x="251" y="326" type="line"/>
      <point x="494" y="326" type="line"/>
      <point x="494" y="395" type="line"/>
      <point x="258" y="395" type="line"/>
      <point x="273" y="539" type="line" smooth="yes"/>
      <point x="282" y="622"/>
      <point x="325" y="648"/>
      <point x="376" y="648" type="curve" smooth="yes"/>
      <point x="425" y="648"/>
      <point x="481" y="624"/>
      <point x="500" y="615" type="curve"/>
      <point x="526" y="683" type="line"/>
      <point x="464" y="713"/>
      <point x="410" y="725"/>
      <point x="365" y="725" type="curve" smooth="yes"/>
      <point x="251" y="725"/>
      <point x="188" y="644"/>
      <point x="179" y="549" type="curve" smooth="yes"/>
      <point x="164" y="395" type="line"/>
      <point x="81" y="395" type="line"/>
      <point x="81" y="326" type="line"/>
      <point x="158" y="326" type="line"/>
    </contour>
  </outline>
</glyph>
<glyph name="currency" format="1">
  <advance width="561"/>
  <unicode hex="00A4"/>
  <outline>
    <contour>
      <point x="275" y="176" type="curve" smooth="yes"/>
      <point x="325" y="176"/>
      <point x="371" y="198"/>
      <point x="399" y="237" type="curve"/>
      <point x="479" y="184" type="line"/>
      <point x="504" y="223" type="line"/>
      <point x="421" y="279" type="line"/>
      <point x="428" y="297"/>
      <point x="431" y="316"/>
      <point x="431" y="336" type="curve" smooth="yes"/>
      <point x="431" y="366"/>
      <point x="423" y="395"/>
      <point x="410" y="420" type="curve"/>
      <point x="500" y="485" type="line"/>
      <point x="475" y="525" type="line"/>
      <point x="381" y="457" type="line"/>
      <point x="353" y="484"/>
      <point x="316" y="497"/>
      <point x="275" y="497" type="curve" smooth="yes"/>
      <point x="235" y="497"/>
      <point x="199" y="484"/>
      <point x="171" y="458" type="curve"/>
      <point x="83" y="518" type="line"/>
      <point x="57" y="478" type="line"/>
      <point x="142" y="421" type="line"/>
      <point x="127" y="396"/>
      <point x="120" y="367"/>
      <point x="120" y="336" type="curve" smooth="yes"/>
      <point x="120" y="312"/>
      <point x="125" y="289"/>
      <point x="134" y="268" type="curve"/>
      <point x="62" y="216" type="line"/>
      <point x="86" y="176" type="line"/>
      <point x="158" y="229" type="line"/>
      <point x="187" y="195"/>
      <point x="229" y="176"/>
    </contour>
    <contour>
      <point x="276" y="217" type="curve" smooth="yes"/>
      <point x="213" y="217"/>
      <point x="166" y="271"/>
      <point x="166" y="337" type="curve" smooth="yes"/>
      <point x="166" y="403"/>
      <point x="213" y="457"/>
      <point x="276" y="457" type="curve" smooth="yes"/>
      <point x="339" y="457"/>
      <point x="386" y="403"/>
      <point x="386" y="337" type="curve" smooth="yes"/>
      <point x="386" y="271"/>
      <point x="339" y="217"/>
    </contour>
  </outline>
</glyph>
<glyph name="yen" format="1">
  <advance width="1318"/>
  <unicode hex="00A5"/>
  <outline>
    <component base="Y"/>
    <contour>
      <point x="1063" y="560" type="line"/>
      <point x="1063" y="708" type="line"/>
      <point x="260" y="708" type="line"/>
      <point x="260" y="560" type="line"/>
    </contour>
    <contour>
      <point x="1063" y="252" type="line"/>
      <point x="1063" y="400" type="line"/>
      <point x="260" y="400" type="line"/>
      <point x="260" y="252" type="line"/>
    </contour>
  </outline>
</glyph>
<glyph name="brokenbar" format="1">
  <advance width="329"/>
  <unicode hex="00A6"/>
  <outline>
    <contour>
      <point x="124" y="-82" type="line"/>
      <point x="211" y="-82" type="line"/>
      <point x="211" y="250" type="line"/>
      <point x="124" y="250" type="line"/>
    </contour>
    <contour>
      <point x="124" y="414" type="line"/>
      <point x="211" y="414" type="line"/>
      <point x="211" y="759" type="line"/>
      <point x="124" y="759" type="line"/>
    </contour>
  </outline>
</glyph>
<glyph name="section" format="1">
  <advance width="1002"/>
  <unicode hex="00A7"/>
  <outline>
    <contour>
      <point x="144" y="64" type="line"/>
      <point x="194" y="37"/>
      <point x="338" y="-22"/>
      <point x="542" y="-22" type="curve" smooth="yes"/>
      <point x="801" y="-22"/>
      <point x="900" y="116"/>
      <point x="900" y="283" type="curve" smooth="yes"/>
      <point x="900" y="376"/>
      <point x="889" y="439"/>
      <point x="846" y="487" type="curve"/>
      <point x="883" y="539"/>
      <point x="900" y="602"/>
      <point x="900" y="671" type="curve" smooth="yes"/>
      <point x="900" y="836"/>
      <point x="865" y="903"/>
      <point x="682" y="973" type="curve" smooth="yes"/>
      <point x="425" y="1071" type="line" smooth="yes"/>
      <point x="352" y="1099"/>
      <point x="332" y="1121"/>
      <point x="332" y="1184" type="curve" smooth="yes"/>
      <point x="332" y="1283"/>
      <point x="363" y="1324"/>
      <point x="542" y="1324" type="curve" smooth="yes"/>
      <point x="633" y="1324"/>
      <point x="766" y="1291"/>
      <point x="829" y="1266" type="curve"/>
      <point x="874" y="1410" type="line"/>
      <point x="793" y="1441"/>
      <point x="659" y="1468"/>
      <point x="506" y="1468" type="curve" smooth="yes"/>
      <point x="236" y="1468"/>
      <point x="151" y="1358"/>
      <point x="151" y="1178" type="curve" smooth="yes"/>
      <point x="151" y="1097"/>
      <point x="171" y="1041"/>
      <point x="223" y="997" type="curve"/>
      <point x="170" y="946"/>
      <point x="151" y="880"/>
      <point x="151" y="792" type="curve" smooth="yes"/>
      <point x="151" y="658"/>
      <point x="205" y="593"/>
      <point x="365" y="536" type="curve" smooth="yes"/>
      <point x="624" y="443" type="line" smooth="yes"/>
      <point x="727" y="406"/>
      <point x="736" y="363"/>
      <point x="736" y="281" type="curve" smooth="yes"/>
      <point x="736" y="192"/>
      <point x="688" y="122"/>
      <point x="516" y="122" type="curve" smooth="yes"/>
      <point x="368" y="122"/>
      <point x="240" y="176"/>
      <point x="191" y="202" type="curve"/>
    </contour>
    <contour>
      <point x="716" y="571" type="curve"/>
      <point x="425" y="683" type="line" smooth="yes"/>
      <point x="352" y="711"/>
      <point x="332" y="742"/>
      <point x="332" y="806" type="curve" smooth="yes"/>
      <point x="332" y="849"/>
      <point x="354" y="924"/>
      <point x="365" y="924" type="curve"/>
      <point x="624" y="831" type="line" smooth="yes"/>
      <point x="727" y="794"/>
      <point x="736" y="751"/>
      <point x="736" y="669" type="curve" smooth="yes"/>
      <point x="736" y="637"/>
      <point x="730" y="602"/>
    </contour>
  </outline>
</glyph>
<glyph name="dieresis" format="1">
  <advance width="1025"/>
  <unicode hex="00A8"/>
  <outline>
    <contour>
      <point x="513" y="1060" type="move" name="_top"/>
    </contour>
    <contour>
      <point x="158" y="1343" type="line"/>
      <point x="364" y="1343" type="line"/>
      <point x="364" y="1524" type="line"/>
      <point x="158" y="1524" type="line"/>
    </contour>
    <contour>
      <point x="661" y="1343" type="line"/>
      <point x="867" y="1343" type="line"/>
      <point x="867" y="1524" type="line"/>
      <point x="661" y="1524" type="line"/>
    </contour>
  </outline>
</glyph>
<glyph name="copyright" format="1">
  <advance width="871"/>
  <unicode hex="00A9"/>
  <outline>
    <contour>
      <point x="441" y="140" type="curve" smooth="yes"/>
      <point x="576" y="140"/>
      <point x="600" y="206"/>
      <point x="600" y="292" type="curve" smooth="yes"/>
      <point x="600" y="309" type="line"/>
      <point x="543" y="309" type="line"/>
      <point x="543" y="279" type="line" smooth="yes"/>
      <point x="543" y="205"/>
      <point x="516" y="184"/>
      <point x="441" y="184" type="curve" smooth="yes"/>
      <point x="367" y="184"/>
      <point x="328" y="205"/>
      <point x="328" y="279" type="curve" smooth="yes"/>
      <point x="328" y="435" type="line" smooth="yes"/>
      <point x="328" y="509"/>
      <point x="366" y="533"/>
      <point x="440" y="533" type="curve" smooth="yes"/>
      <point x="514" y="533"/>
      <point x="543" y="509"/>
      <point x="543" y="435" type="curve" smooth="yes"/>
      <point x="543" y="403" type="line"/>
      <point x="600" y="408" type="line"/>
      <point x="600" y="420" type="line" smooth="yes"/>
      <point x="600" y="509"/>
      <point x="575" y="577"/>
      <point x="440" y="577" type="curve" smooth="yes"/>
      <point x="299" y="577"/>
      <point x="269" y="513"/>
      <point x="269" y="424" type="curve" smooth="yes"/>
      <point x="269" y="288" type="line" smooth="yes"/>
      <point x="269" y="201"/>
      <point x="301" y="140"/>
    </contour>
    <contour>
      <point x="437" y="40" type="curve" smooth="yes"/>
      <point x="259" y="40"/>
      <point x="129" y="175"/>
      <point x="129" y="353" type="curve" smooth="yes"/>
      <point x="129" y="531"/>
      <point x="259" y="665"/>
      <point x="437" y="665" type="curve" smooth="yes"/>
      <point x="616" y="665"/>
      <point x="743" y="531"/>
      <point x="743" y="353" type="curve" smooth="yes"/>
      <point x="743" y="175"/>
      <point x="616" y="40"/>
    </contour>
    <contour>
      <point x="436" y="-7" type="curve" smooth="yes"/>
      <point x="639" y="-7"/>
      <point x="795" y="148"/>
      <point x="795" y="353" type="curve" smooth="yes"/>
      <point x="795" y="557"/>
      <point x="639" y="711"/>
      <point x="436" y="711" type="curve" smooth="yes"/>
      <point x="234" y="711"/>
      <point x="76" y="557"/>
      <point x="76" y="353" type="curve" smooth="yes"/>
      <point x="76" y="148"/>
      <point x="234" y="-7"/>
    </contour>
  </outline>
</glyph>
<glyph name="guillemotleft" format="1">
  <advance width="514"/>
  <unicode hex="00AB"/>
  <outline>
    <contour>
      <point x="184" y="39" type="line"/>
      <point x="252" y="73" type="line"/>
      <point x="151" y="259" type="line"/>
      <point x="252" y="444" type="line"/>
      <point x="180" y="479" type="line"/>
      <point x="47" y="259" type="line"/>
    </contour>
    <contour>
      <point x="386" y="39" type="line"/>
      <point x="453" y="73" type="line"/>
      <point x="353" y="259" type="line"/>
      <point x="453" y="444" type="line"/>
      <point x="382" y="479" type="line"/>
      <point x="249" y="259" type="line"/>
    </contour>
  </outline>
</glyph>
<glyph name="logicalnot" format="1">
  <advance width="421"/>
  <unicode hex="00AC"/>
  <outline>
    <contour>
      <point x="288" y="163" type="line"/>
      <point x="352" y="163" type="line"/>
      <point x="352" y="338" type="line"/>
      <point x="48" y="338" type="line"/>
      <point x="48" y="271" type="line"/>
      <point x="288" y="271" type="line"/>
    </contour>
  </outline>
</glyph>
<glyph name="uni00AD" format="1">
  <advance width="500"/>
  <unicode hex="00AD"/>
  <outline>
    <contour>
      <point x="248" y="277" type="move" name="_mid"/>
    </contour>
    <contour>
      <point x="84" y="244" type="line"/>
      <point x="406" y="244" type="line"/>
      <point x="406" y="313" type="line"/>
      <point x="84" y="313" type="line"/>
    </contour>
  </outline>
</glyph>
<glyph name="registered" format="1">
  <advance width="871"/>
  <unicode hex="00AE"/>
  <outline>
    <contour>
      <point x="291" y="156" type="line"/>
      <point x="355" y="156" type="line"/>
      <point x="355" y="318" type="line"/>
      <point x="481" y="318" type="line"/>
      <point x="569" y="156" type="line"/>
      <point x="632" y="156" type="line"/>
      <point x="542" y="325" type="line"/>
      <point x="587" y="337"/>
      <point x="616" y="372"/>
      <point x="616" y="437" type="curve" smooth="yes"/>
      <point x="616" y="443" type="line"/>
      <point x="614" y="528"/>
      <point x="565" y="563"/>
      <point x="488" y="563" type="curve" smooth="yes"/>
      <point x="291" y="563" type="line"/>
    </contour>
    <contour>
      <point x="355" y="362" type="line"/>
      <point x="355" y="519" type="line"/>
      <point x="490" y="519" type="line" smooth="yes"/>
      <point x="548" y="519"/>
      <point x="552" y="469"/>
      <point x="552" y="440" type="curve" smooth="yes"/>
      <point x="552" y="428" type="line" smooth="yes"/>
      <point x="552" y="397"/>
      <point x="541" y="362"/>
      <point x="485" y="362" type="curve" smooth="yes"/>
    </contour>
    <contour>
      <point x="437" y="40" type="curve" smooth="yes"/>
      <point x="259" y="40"/>
      <point x="129" y="175"/>
      <point x="129" y="353" type="curve" smooth="yes"/>
      <point x="129" y="531"/>
      <point x="259" y="665"/>
      <point x="437" y="665" type="curve" smooth="yes"/>
      <point x="616" y="665"/>
      <point x="743" y="531"/>
      <point x="743" y="353" type="curve" smooth="yes"/>
      <point x="743" y="175"/>
      <point x="616" y="40"/>
    </contour>
    <contour>
      <point x="436" y="-7" type="curve" smooth="yes"/>
      <point x="639" y="-7"/>
      <point x="795" y="148"/>
      <point x="795" y="353" type="curve" smooth="yes"/>
      <point x="795" y="557"/>
      <point x="639" y="711"/>
      <point x="436" y="711" type="curve" smooth="yes"/>
      <point x="234" y="711"/>
      <point x="76" y="557"/>
      <point x="76" y="353" type="curve" smooth="yes"/>
      <point x="76" y="148"/>
      <point x="234" y="-7"/>
    </contour>
  </outline>
</glyph>
<glyph name="macron" format="1">
  <advance width="250"/>
  <unicode hex="00AF"/>
  <outline>
    <contour>
      <point x="-4" y="645" type="line"/>
      <point x="254" y="645" type="line"/>
      <point x="254" y="717" type="line"/>
      <point x="-4" y="717" type="line"/>
    </contour>
    <contour>
      <point x="125" y="681" type="move" name="_mid"/>
    </contour>
    <contour>
      <point x="125" y="518" type="move" name="_top"/>
    </contour>
  </outline>
</glyph>
<glyph name="degree" format="1">
  <advance width="505"/>
  <unicode hex="00B0"/>
  <outline>
    <contour>
      <point x="253" y="432" type="curve" smooth="yes"/>
      <point x="189" y="432"/>
      <point x="142" y="484"/>
      <point x="142" y="548" type="curve" smooth="yes"/>
      <point x="142" y="612"/>
      <point x="189" y="665"/>
      <point x="253" y="665" type="curve" smooth="yes"/>
      <point x="317" y="665"/>
      <point x="365" y="612"/>
      <point x="365" y="548" type="curve" smooth="yes"/>
      <point x="365" y="484"/>
      <point x="317" y="432"/>
    </contour>
    <contour>
      <point x="253" y="390" type="curve" smooth="yes"/>
      <point x="340" y="390"/>
      <point x="411" y="461"/>
      <point x="411" y="548" type="curve" smooth="yes"/>
      <point x="411" y="635"/>
      <point x="340" y="706"/>
      <point x="253" y="706" type="curve" smooth="yes"/>
      <point x="166" y="706"/>
      <point x="95" y="635"/>
      <point x="95" y="548" type="curve" smooth="yes"/>
      <point x="95" y="461"/>
      <point x="166" y="390"/>
    </contour>
  </outline>
</glyph>
<glyph name="plusminus" format="1">
  <advance width="508"/>
  <unicode hex="00B1"/>
  <outline>
    <contour>
      <point x="225" y="163" type="line"/>
      <point x="284" y="163" type="line"/>
      <point x="284" y="298" type="line"/>
      <point x="407" y="298" type="line"/>
      <point x="407" y="354" type="line"/>
      <point x="284" y="354" type="line"/>
      <point x="284" y="484" type="line"/>
      <point x="225" y="484" type="line"/>
      <point x="225" y="354" type="line"/>
      <point x="101" y="354" type="line"/>
      <point x="101" y="298" type="line"/>
      <point x="225" y="298" type="line"/>
    </contour>
    <contour>
      <point x="101" y="0" type="line"/>
      <point x="407" y="0" type="line"/>
      <point x="407" y="59" type="line"/>
      <point x="101" y="59" type="line"/>
    </contour>
  </outline>
</glyph>
<glyph name="twosuperior" format="1">
  <advance width="512"/>
  <unicode hex="00B2"/>
  <outline>
    <contour>
      <point x="119" y="339" type="line"/>
      <point x="402" y="339" type="line"/>
      <point x="402" y="393" type="line"/>
      <point x="198" y="393" type="line"/>
      <point x="302" y="476" type="line"/>
      <point x="364" y="531"/>
      <point x="402" y="569"/>
      <point x="402" y="644" type="curve" smooth="yes"/>
      <point x="402" y="725"/>
      <point x="348" y="773"/>
      <point x="257" y="773" type="curve" smooth="yes"/>
      <point x="165" y="773"/>
      <point x="98" y="731"/>
      <point x="99" y="620" type="curve"/>
      <point x="168" y="620" type="line"/>
      <point x="168" y="702"/>
      <point x="201" y="722"/>
      <point x="260" y="722" type="curve" smooth="yes"/>
      <point x="309" y="722"/>
      <point x="337" y="698"/>
      <point x="337" y="644" type="curve" smooth="yes"/>
      <point x="337" y="592"/>
      <point x="318" y="569"/>
      <point x="264" y="521" type="curve"/>
      <point x="113" y="395" type="line"/>
    </contour>
  </outline>
</glyph>
<glyph name="uni00B2" format="1">
  <advance width="1050"/>
  <unicode hex="00B2"/>
  <outline>
    <contour>
      <point x="243" y="694" type="line"/>
      <point x="823" y="694" type="line"/>
      <point x="823" y="804" type="line"/>
      <point x="405" y="804" type="line"/>
      <point x="618" y="974" type="line"/>
      <point x="744" y="1087"/>
      <point x="824" y="1165"/>
      <point x="824" y="1318" type="curve" smooth="yes"/>
      <point x="824" y="1483"/>
      <point x="712" y="1584"/>
      <point x="526" y="1584" type="curve" smooth="yes"/>
      <point x="338" y="1584"/>
      <point x="200" y="1498"/>
      <point x="202" y="1270" type="curve"/>
      <point x="345" y="1270" type="line"/>
      <point x="344" y="1438"/>
      <point x="412" y="1479"/>
      <point x="533" y="1479" type="curve" smooth="yes"/>
      <point x="633" y="1479"/>
      <point x="691" y="1430"/>
      <point x="691" y="1319" type="curve" smooth="yes"/>
      <point x="691" y="1213"/>
      <point x="650" y="1165"/>
      <point x="540" y="1066" type="curve"/>
      <point x="232" y="808" type="line"/>
    </contour>
  </outline>
</glyph>
<glyph name="threesuperior" format="1">
  <advance width="512"/>
  <unicode hex="00B3"/>
  <outline>
    <contour>
      <point x="272" y="325" type="curve" smooth="yes"/>
      <point x="361" y="325"/>
      <point x="424" y="366"/>
      <point x="424" y="452" type="curve" smooth="yes"/>
      <point x="424" y="514"/>
      <point x="396" y="546"/>
      <point x="337" y="559" type="curve"/>
      <point x="395" y="573"/>
      <point x="415" y="610"/>
      <point x="415" y="657" type="curve" smooth="yes"/>
      <point x="415" y="734"/>
      <point x="346" y="773"/>
      <point x="272" y="773" type="curve" smooth="yes"/>
      <point x="185" y="773"/>
      <point x="110" y="748"/>
      <point x="110" y="629" type="curve"/>
      <point x="173" y="629" type="line"/>
      <point x="173" y="635" type="line" smooth="yes"/>
      <point x="173" y="705"/>
      <point x="209" y="720"/>
      <point x="271" y="720" type="curve" smooth="yes"/>
      <point x="331" y="720"/>
      <point x="354" y="689"/>
      <point x="354" y="656" type="curve" smooth="yes"/>
      <point x="354" y="614"/>
      <point x="350" y="583"/>
      <point x="233" y="583" type="curve" smooth="yes"/>
      <point x="230" y="583" type="line"/>
      <point x="230" y="532" type="line"/>
      <point x="234" y="532" type="line" smooth="yes"/>
      <point x="338" y="532"/>
      <point x="362" y="508"/>
      <point x="362" y="448" type="curve" smooth="yes"/>
      <point x="362" y="403"/>
      <point x="324" y="378"/>
      <point x="274" y="378" type="curve" smooth="yes"/>
      <point x="214" y="378"/>
      <point x="169" y="389"/>
      <point x="169" y="474" type="curve"/>
      <point x="105" y="474" type="line"/>
      <point x="108" y="356"/>
      <point x="173" y="325"/>
    </contour>
  </outline>
</glyph>
<glyph name="uni00B3" format="1">
  <advance width="1050"/>
  <unicode hex="00B3"/>
  <outline>
    <contour>
      <point x="557" y="666" type="curve" smooth="yes"/>
      <point x="740" y="666"/>
      <point x="868" y="748"/>
      <point x="868" y="925" type="curve" smooth="yes"/>
      <point x="868" y="1051"/>
      <point x="811" y="1118"/>
      <point x="691" y="1144" type="curve"/>
      <point x="809" y="1173"/>
      <point x="850" y="1249"/>
      <point x="850" y="1345" type="curve" smooth="yes"/>
      <point x="850" y="1503"/>
      <point x="710" y="1584"/>
      <point x="558" y="1584" type="curve" smooth="yes"/>
      <point x="380" y="1584"/>
      <point x="226" y="1532"/>
      <point x="226" y="1289" type="curve"/>
      <point x="355" y="1289" type="line"/>
      <point x="355" y="1301" type="line" smooth="yes"/>
      <point x="355" y="1445"/>
      <point x="429" y="1475"/>
      <point x="555" y="1475" type="curve" smooth="yes"/>
      <point x="678" y="1475"/>
      <point x="724" y="1410"/>
      <point x="724" y="1343" type="curve" smooth="yes"/>
      <point x="724" y="1258"/>
      <point x="718" y="1194"/>
      <point x="478" y="1194" type="curve" smooth="yes"/>
      <point x="472" y="1194" type="line"/>
      <point x="472" y="1089" type="line"/>
      <point x="479" y="1089" type="line" smooth="yes"/>
      <point x="692" y="1089"/>
      <point x="741" y="1041"/>
      <point x="741" y="918" type="curve" smooth="yes"/>
      <point x="741" y="826"/>
      <point x="664" y="774"/>
      <point x="562" y="774" type="curve" smooth="yes"/>
      <point x="439" y="774"/>
      <point x="347" y="797"/>
      <point x="346" y="971" type="curve"/>
      <point x="215" y="971" type="line"/>
      <point x="221" y="729"/>
      <point x="354" y="666"/>
    </contour>
  </outline>
</glyph>
<glyph name="acute" format="1">
  <advance width="300"/>
  <unicode hex="00B4"/>
  <outline>
    <contour>
      <point x="100" y="588" type="line"/>
      <point x="162" y="588" type="line"/>
      <point x="277" y="774" type="line"/>
      <point x="167" y="774" type="line"/>
    </contour>
    <contour>
      <point x="124" y="518" type="move" name="_top"/>
    </contour>
  </outline>
</glyph>
<glyph name="paragraph" format="1">
  <advance width="610"/>
  <unicode hex="00B6"/>
  <outline>
    <contour>
      <point x="262" y="-103" type="line"/>
      <point x="335" y="-103" type="line"/>
      <point x="335" y="653" type="line"/>
      <point x="403" y="653" type="line"/>
      <point x="403" y="-103" type="line"/>
      <point x="469" y="-103" type="line"/>
      <point x="469" y="706" type="line"/>
      <point x="279" y="706" type="line" smooth="yes"/>
      <point x="184" y="706"/>
      <point x="82" y="669"/>
      <point x="82" y="564" type="curve" smooth="yes"/>
      <point x="82" y="476"/>
      <point x="178" y="427"/>
      <point x="262" y="425" type="curve"/>
    </contour>
  </outline>
</glyph>
<glyph name="periodcentered" format="1">
  <advance width="734"/>
  <unicode hex="00B7"/>
  <outline>
    <contour>
      <point x="429" y="622" type="line"/>
      <point x="634" y="622" type="line"/>
      <point x="634" y="828" type="line"/>
      <point x="429" y="828" type="line"/>
    </contour>
    <contour>
      <point x="105" y="714" type="move" name="_mid"/>
    </contour>
  </outline>
</glyph>
<glyph name="cedilla" format="1">
  <advance width="512"/>
  <unicode hex="00B8"/>
  <outline>
    <contour>
      <point x="213" y="-486" type="curve" smooth="yes"/>
      <point x="378" y="-486"/>
      <point x="460" y="-397"/>
      <point x="460" y="-303" type="curve" smooth="yes"/>
      <point x="460" y="-214"/>
      <point x="386" y="-120"/>
      <point x="239" y="-94" type="curve"/>
      <point x="233" y="0" type="line"/>
      <point x="171" y="0" type="line"/>
      <point x="171" y="-158" type="line"/>
      <point x="271" y="-161"/>
      <point x="331" y="-229"/>
      <point x="331" y="-290" type="curve" smooth="yes"/>
      <point x="331" y="-342"/>
      <point x="289" y="-389"/>
      <point x="191" y="-389" type="curve" smooth="yes"/>
      <point x="170" y="-389"/>
      <point x="146" y="-387"/>
      <point x="120" y="-382" type="curve"/>
      <point x="120" y="-478" type="line"/>
      <point x="154" y="-484"/>
      <point x="185" y="-486"/>
    </contour>
    <contour>
      <point x="205" y="0" type="move" name="_bot"/>
    </contour>
  </outline>
</glyph>
<glyph name="onesuperior" format="1">
  <advance width="512"/>
  <unicode hex="00B9"/>
  <outline>
    <contour>
      <point x="101" y="339" type="line"/>
      <point x="412" y="339" type="line"/>
      <point x="412" y="388" type="line"/>
      <point x="299" y="388" type="line"/>
      <point x="299" y="754" type="line"/>
      <point x="247" y="754" type="line"/>
      <point x="104" y="738" type="line"/>
      <point x="110" y="688" type="line"/>
      <point x="235" y="700" type="line"/>
      <point x="235" y="388" type="line"/>
      <point x="101" y="388" type="line"/>
    </contour>
  </outline>
</glyph>
<glyph name="guillemotright" format="1">
  <advance width="514"/>
  <unicode hex="00BB"/>
  <outline>
    <contour>
      <point x="132" y="39" type="line"/>
      <point x="266" y="259" type="line"/>
      <point x="129" y="479" type="line"/>
      <point x="62" y="444" type="line"/>
      <point x="162" y="259" type="line"/>
      <point x="62" y="73" type="line"/>
    </contour>
    <contour>
      <point x="334" y="39" type="line"/>
      <point x="468" y="259" type="line"/>
      <point x="331" y="479" type="line"/>
      <point x="263" y="444" type="line"/>
      <point x="364" y="259" type="line"/>
      <point x="263" y="73" type="line"/>
    </contour>
  </outline>
</glyph>
<glyph name="onequarter" format="1">
  <advance width="999"/>
  <unicode hex="00BC"/>
  <outline>
    <contour>
      <point x="808" y="0" type="line"/>
      <point x="863" y="0" type="line"/>
      <point x="863" y="101" type="line"/>
      <point x="934" y="101" type="line"/>
      <point x="934" y="146" type="line"/>
      <point x="863" y="146" type="line"/>
      <point x="863" y="260" type="line"/>
      <point x="808" y="260" type="line"/>
      <point x="808" y="146" type="line"/>
      <point x="670" y="146" type="line"/>
      <point x="840" y="436" type="line"/>
      <point x="771" y="436" type="line"/>
      <point x="596" y="146" type="line"/>
      <point x="596" y="101" type="line"/>
      <point x="808" y="101" type="line"/>
    </contour>
    <contour>
      <point x="80" y="319" type="line"/>
      <point x="391" y="319" type="line"/>
      <point x="391" y="369" type="line"/>
      <point x="278" y="369" type="line"/>
      <point x="278" y="735" type="line"/>
      <point x="226" y="735" type="line"/>
      <point x="83" y="719" type="line"/>
      <point x="89" y="668" type="line"/>
      <point x="214" y="681" type="line"/>
      <point x="214" y="369" type="line"/>
      <point x="80" y="369" type="line"/>
    </contour>
    <contour>
      <point x="335" y="0" type="line"/>
      <point x="400" y="0" type="line"/>
      <point x="731" y="706" type="line"/>
      <point x="669" y="706" type="line"/>
    </contour>
  </outline>
</glyph>
<glyph name="onehalf" format="1">
  <advance width="999"/>
  <unicode hex="00BD"/>
  <outline>
    <contour>
      <point x="669" y="1" type="line"/>
      <point x="919" y="1" type="line"/>
      <point x="919" y="49" type="line"/>
      <point x="738" y="49" type="line"/>
      <point x="842" y="166" type="line" smooth="yes"/>
      <point x="882" y="211"/>
      <point x="917" y="242"/>
      <point x="917" y="305" type="curve" smooth="yes"/>
      <point x="917" y="370"/>
      <point x="876" y="423"/>
      <point x="788" y="423" type="curve" smooth="yes"/>
      <point x="705" y="423"/>
      <point x="650" y="385"/>
      <point x="650" y="295" type="curve"/>
      <point x="708" y="295" type="line"/>
      <point x="708" y="361"/>
      <point x="729" y="374"/>
      <point x="789" y="374" type="curve" smooth="yes"/>
      <point x="839" y="374"/>
      <point x="860" y="351"/>
      <point x="860" y="305" type="curve" smooth="yes"/>
      <point x="860" y="265"/>
      <point x="843" y="246"/>
      <point x="802" y="202" type="curve"/>
      <point x="664" y="46" type="line"/>
    </contour>
    <contour>
      <point x="80" y="319" type="line"/>
      <point x="391" y="319" type="line"/>
      <point x="391" y="369" type="line"/>
      <point x="278" y="369" type="line"/>
      <point x="278" y="735" type="line"/>
      <point x="226" y="735" type="line"/>
      <point x="83" y="719" type="line"/>
      <point x="89" y="668" type="line"/>
      <point x="214" y="681" type="line"/>
      <point x="214" y="369" type="line"/>
      <point x="80" y="369" type="line"/>
    </contour>
    <contour>
      <point x="335" y="0" type="line"/>
      <point x="400" y="0" type="line"/>
      <point x="731" y="706" type="line"/>
      <point x="669" y="706" type="line"/>
    </contour>
  </outline>
</glyph>
<glyph name="threequarters" format="1">
  <advance width="999"/>
  <unicode hex="00BE"/>
  <outline>
    <contour>
      <point x="264" y="319" type="curve" smooth="yes"/>
      <point x="361" y="319"/>
      <point x="414" y="360"/>
      <point x="414" y="438" type="curve" smooth="yes"/>
      <point x="414" y="507"/>
      <point x="381" y="532"/>
      <point x="324" y="542" type="curve"/>
      <point x="382" y="550"/>
      <point x="404" y="579"/>
      <point x="404" y="633" type="curve" smooth="yes"/>
      <point x="404" y="707"/>
      <point x="345" y="740"/>
      <point x="260" y="740" type="curve" smooth="yes"/>
      <point x="172" y="740"/>
      <point x="106" y="721"/>
      <point x="104" y="612" type="curve"/>
      <point x="169" y="612" type="line"/>
      <point x="169" y="688"/>
      <point x="199" y="694"/>
      <point x="260" y="694" type="curve" smooth="yes"/>
      <point x="319" y="694"/>
      <point x="339" y="671"/>
      <point x="339" y="632" type="curve" smooth="yes"/>
      <point x="339" y="586"/>
      <point x="334" y="562"/>
      <point x="229" y="562" type="curve"/>
      <point x="229" y="521" type="line"/>
      <point x="332" y="521"/>
      <point x="348" y="500"/>
      <point x="348" y="438" type="curve" smooth="yes"/>
      <point x="348" y="390"/>
      <point x="327" y="364"/>
      <point x="267" y="364" type="curve" smooth="yes"/>
      <point x="199" y="364"/>
      <point x="167" y="378"/>
      <point x="163" y="455" type="curve"/>
      <point x="97" y="455" type="line"/>
      <point x="106" y="351"/>
      <point x="154" y="319"/>
    </contour>
    <contour>
      <point x="808" y="0" type="line"/>
      <point x="863" y="0" type="line"/>
      <point x="863" y="101" type="line"/>
      <point x="934" y="101" type="line"/>
      <point x="934" y="146" type="line"/>
      <point x="863" y="146" type="line"/>
      <point x="863" y="260" type="line"/>
      <point x="808" y="260" type="line"/>
      <point x="808" y="146" type="line"/>
      <point x="670" y="146" type="line"/>
      <point x="840" y="436" type="line"/>
      <point x="771" y="436" type="line"/>
      <point x="596" y="146" type="line"/>
      <point x="596" y="101" type="line"/>
      <point x="808" y="101" type="line"/>
    </contour>
    <contour>
      <point x="335" y="0" type="line"/>
      <point x="400" y="0" type="line"/>
      <point x="731" y="706" type="line"/>
      <point x="669" y="706" type="line"/>
    </contour>
  </outline>
</glyph>
<glyph name="AE" format="1">
  <advance width="823"/>
  <unicode hex="00C6"/>
  <outline>
    <contour>
      <point x="497" y="706" type="move" name="top"/>
    </contour>
    <contour>
      <point x="48" y="1" type="line"/>
      <point x="147" y="0" type="line"/>
      <point x="183" y="138" type="line"/>
      <point x="427" y="138" type="line"/>
      <point x="427" y="0" type="line"/>
      <point x="761" y="0" type="line"/>
      <point x="761" y="73" type="line"/>
      <point x="520" y="73" type="line"/>
      <point x="520" y="324" type="line"/>
      <point x="727" y="324" type="line"/>
      <point x="727" y="397" type="line"/>
      <point x="520" y="397" type="line"/>
      <point x="520" y="633" type="line"/>
      <point x="757" y="633" type="line"/>
      <point x="757" y="706" type="line"/>
      <point x="240" y="706" type="line"/>
    </contour>
    <contour>
      <point x="201" y="204" type="line"/>
      <point x="309" y="633" type="line"/>
      <point x="427" y="633" type="line"/>
      <point x="427" y="204" type="line"/>
    </contour>
  </outline>
</glyph>
<glyph name="multiply" format="1">
  <advance width="475"/>
  <unicode hex="00D7"/>
  <outline>
    <contour>
      <point x="117" y="105" type="line"/>
      <point x="238" y="224" type="line"/>
      <point x="359" y="105" type="line"/>
      <point x="412" y="168" type="line"/>
      <point x="297" y="281" type="line"/>
      <point x="412" y="394" type="line"/>
      <point x="359" y="458" type="line"/>
      <point x="238" y="339" type="line"/>
      <point x="117" y="458" type="line"/>
      <point x="63" y="394" type="line"/>
      <point x="179" y="281" type="line"/>
      <point x="63" y="168" type="line"/>
    </contour>
  </outline>
</glyph>
<glyph name="Oslash" format="1">
  <advance width="1546"/>
  <unicode hex="00D8"/>
  <outline>
    <component base="O"/>
    <contour>
      <point x="791" y="1446" type="move" name="top"/>
    </contour>
    <contour>
      <point x="479" y="-195" type="line"/>
      <point x="1158" y="1638" type="line"/>
      <point x="1054" y="1676" type="line"/>
      <point x="376" y="-157" type="line"/>
    </contour>
  </outline>
</glyph>
<glyph name="Thorn" format="1">
  <advance width="644"/>
  <unicode hex="00DE"/>
  <outline>
    <contour>
      <point x="104" y="0" type="line"/>
      <point x="202" y="0" type="line"/>
      <point x="202" y="162" type="line"/>
      <point x="384" y="162" type="line" smooth="yes"/>
      <point x="504" y="162"/>
      <point x="582" y="208"/>
      <point x="582" y="377" type="curve" smooth="yes"/>
      <point x="582" y="538"/>
      <point x="504" y="590"/>
      <point x="385" y="590" type="curve" smooth="yes"/>
      <point x="202" y="590" type="line"/>
      <point x="202" y="706" type="line"/>
      <point x="104" y="706" type="line"/>
    </contour>
    <contour>
      <point x="202" y="236" type="line"/>
      <point x="202" y="515" type="line"/>
      <point x="388" y="515" type="line" smooth="yes"/>
      <point x="476" y="515"/>
      <point x="483" y="440"/>
      <point x="483" y="371" type="curve" smooth="yes"/>
      <point x="483" y="298"/>
      <point x="471" y="236"/>
      <point x="386" y="236" type="curve" smooth="yes"/>
    </contour>
  </outline>
</glyph>
<glyph name="germandbls" format="1">
  <advance width="625"/>
  <unicode hex="00DF"/>
  <outline>
    <contour>
      <point x="93" y="0" type="line"/>
      <point x="185" y="0" type="line"/>
      <point x="185" y="552" type="line" smooth="yes"/>
      <point x="185" y="637"/>
      <point x="243" y="650"/>
      <point x="314" y="650" type="curve" smooth="yes"/>
      <point x="381" y="650"/>
      <point x="424" y="632"/>
      <point x="424" y="546" type="curve" smooth="yes"/>
      <point x="424" y="483"/>
      <point x="399" y="445"/>
      <point x="293" y="445" type="curve"/>
      <point x="293" y="376" type="line"/>
      <point x="409" y="376"/>
      <point x="484" y="363"/>
      <point x="484" y="237" type="curve" smooth="yes"/>
      <point x="484" y="89"/>
      <point x="384" y="82"/>
      <point x="253" y="72" type="curve"/>
      <point x="262" y="0" type="line"/>
      <point x="460" y="0"/>
      <point x="569" y="58"/>
      <point x="569" y="238" type="curve" smooth="yes"/>
      <point x="569" y="384"/>
      <point x="497" y="405"/>
      <point x="440" y="429" type="curve"/>
      <point x="493" y="444"/>
      <point x="516" y="478"/>
      <point x="516" y="554" type="curve" smooth="yes"/>
      <point x="516" y="658"/>
      <point x="455" y="724"/>
      <point x="318" y="724" type="curve" smooth="yes"/>
      <point x="193" y="724"/>
      <point x="93" y="685"/>
      <point x="93" y="539" type="curve" smooth="yes"/>
    </contour>
  </outline>
</glyph>
<glyph name="ae" format="1">
  <advance width="850"/>
  <unicode hex="00E6"/>
  <outline>
    <contour>
      <point x="229" y="-11" type="curve" smooth="yes"/>
      <point x="345" y="-11"/>
      <point x="394" y="33"/>
      <point x="419" y="87" type="curve"/>
      <point x="440" y="37"/>
      <point x="487" y="-11"/>
      <point x="581" y="-11" type="curve" smooth="yes"/>
      <point x="723" y="-11"/>
      <point x="773" y="29"/>
      <point x="783" y="155" type="curve"/>
      <point x="700" y="155" type="line"/>
      <point x="694" y="66"/>
      <point x="662" y="59"/>
      <point x="581" y="59" type="curve" smooth="yes"/>
      <point x="509" y="59"/>
      <point x="473" y="91"/>
      <point x="473" y="160" type="curve" smooth="yes"/>
      <point x="473" y="250" type="line"/>
      <point x="786" y="250" type="line"/>
      <point x="786" y="370" type="line" smooth="yes"/>
      <point x="786" y="468"/>
      <point x="719" y="527"/>
      <point x="584" y="527" type="curve" smooth="yes"/>
      <point x="513" y="527"/>
      <point x="463" y="506"/>
      <point x="433" y="458" type="curve"/>
      <point x="415" y="505"/>
      <point x="355" y="527"/>
      <point x="288" y="527" type="curve" smooth="yes"/>
      <point x="152" y="527"/>
      <point x="84" y="483"/>
      <point x="84" y="371" type="curve" smooth="yes"/>
      <point x="84" y="357" type="line"/>
      <point x="172" y="357" type="line"/>
      <point x="172" y="370" type="line" smooth="yes"/>
      <point x="172" y="418"/>
      <point x="179" y="457"/>
      <point x="283" y="457" type="curve" smooth="yes"/>
      <point x="377" y="457"/>
      <point x="382" y="415"/>
      <point x="382" y="377" type="curve" smooth="yes"/>
      <point x="382" y="325"/>
      <point x="368" y="306"/>
      <point x="258" y="281" type="curve" smooth="yes"/>
      <point x="100" y="245"/>
      <point x="64" y="206"/>
      <point x="64" y="138" type="curve" smooth="yes"/>
      <point x="64" y="58"/>
      <point x="119" y="-11"/>
    </contour>
    <contour>
      <point x="245" y="59" type="curve" smooth="yes"/>
      <point x="191" y="59"/>
      <point x="152" y="81"/>
      <point x="152" y="139" type="curve" smooth="yes"/>
      <point x="152" y="185"/>
      <point x="200" y="198"/>
      <point x="274" y="219" type="curve" smooth="yes"/>
      <point x="350" y="240"/>
      <point x="381" y="265"/>
      <point x="381" y="275" type="curve" smooth="yes"/>
      <point x="381" y="136" type="line"/>
      <point x="366" y="88"/>
      <point x="300" y="59"/>
    </contour>
    <contour>
      <point x="473" y="309" type="line"/>
      <point x="473" y="371" type="line" smooth="yes"/>
      <point x="473" y="435"/>
      <point x="511" y="458"/>
      <point x="584" y="458" type="curve" smooth="yes"/>
      <point x="655" y="458"/>
      <point x="702" y="442"/>
      <point x="702" y="380" type="curve" smooth="yes"/>
      <point x="702" y="309" type="line"/>
    </contour>
    <contour>
      <point x="438" y="518" type="move" name="top"/>
    </contour>
  </outline>
</glyph>
<glyph name="eth" format="1">
  <advance width="1158"/>
  <unicode hex="00F0"/>
  <outline>
    <contour>
      <point x="587" y="-20" type="curve" smooth="yes"/>
      <point x="970" y="-20"/>
      <point x="1010" y="170"/>
      <point x="1010" y="365" type="curve" smooth="yes"/>
      <point x="1010" y="736" type="line" smooth="yes"/>
      <point x="1010" y="1058"/>
      <point x="924" y="1312"/>
      <point x="693" y="1427" type="curve"/>
      <point x="792" y="1565" type="line"/>
      <point x="697" y="1617" type="line"/>
      <point x="596" y="1470" type="line"/>
      <point x="526" y="1487"/>
      <point x="460" y="1492"/>
      <point x="403" y="1492" type="curve" smooth="yes"/>
      <point x="330" y="1492"/>
      <point x="273" y="1483"/>
      <point x="238" y="1477" type="curve"/>
      <point x="210" y="1349" type="line"/>
      <point x="244" y="1352"/>
      <point x="288" y="1356"/>
      <point x="339" y="1356" type="curve" smooth="yes"/>
      <point x="390" y="1356"/>
      <point x="447" y="1352"/>
      <point x="506" y="1341" type="curve"/>
      <point x="376" y="1152" type="line"/>
      <point x="471" y="1100" type="line"/>
      <point x="612" y="1304" type="line"/>
      <point x="734" y="1238"/>
      <point x="822" y="1112"/>
      <point x="822" y="911" type="curve"/>
      <point x="795" y="934"/>
      <point x="693" y="975"/>
      <point x="577" y="975" type="curve" smooth="yes"/>
      <point x="314" y="975"/>
      <point x="150" y="846"/>
      <point x="150" y="646" type="curve" smooth="yes"/>
      <point x="150" y="314" type="line" smooth="yes"/>
      <point x="150" y="118"/>
      <point x="271" y="-20"/>
    </contour>
    <contour>
      <point x="587" y="121" type="curve" smooth="yes"/>
      <point x="440" y="121"/>
      <point x="337" y="166"/>
      <point x="337" y="308" type="curve" smooth="yes"/>
      <point x="337" y="652" type="line" smooth="yes"/>
      <point x="337" y="783"/>
      <point x="441" y="833"/>
      <point x="587" y="833" type="curve" smooth="yes"/>
      <point x="647" y="833"/>
      <point x="778" y="813"/>
      <point x="825" y="783" type="curve"/>
      <point x="825" y="329" type="line" smooth="yes"/>
      <point x="825" y="213"/>
      <point x="802" y="121"/>
    </contour>
  </outline>
</glyph>
<glyph name="divide" format="1">
  <advance width="500"/>
  <unicode hex="00F7"/>
  <outline>
    <contour>
      <point x="202" y="44" type="line"/>
      <point x="302" y="44" type="line"/>
      <point x="302" y="146" type="line"/>
      <point x="202" y="146" type="line"/>
    </contour>
    <contour>
      <point x="49" y="230" type="line"/>
      <point x="452" y="230" type="line"/>
      <point x="452" y="297" type="line"/>
      <point x="49" y="297" type="line"/>
    </contour>
    <contour>
      <point x="202" y="384" type="line"/>
      <point x="302" y="384" type="line"/>
      <point x="302" y="486" type="line"/>
      <point x="202" y="486" type="line"/>
    </contour>
  </outline>
</glyph>
<glyph name="oslash" format="1">
  <advance width="573"/>
  <unicode hex="00F8"/>
  <outline>
    <contour>
      <point x="177" y="-110" type="line"/>
      <point x="440" y="596" type="line"/>
      <point x="396" y="611" type="line"/>
      <point x="132" y="-95" type="line"/>
    </contour>
    <component base="o"/>
    <contour>
      <point x="287" y="518" type="move" name="top"/>
    </contour>
  </outline>
</glyph>
<glyph name="thorn" format="1">
  <advance width="583"/>
  <unicode hex="00FE"/>
  <outline>
    <contour>
      <point x="86" y="-199" type="line"/>
      <point x="178" y="-199" type="line"/>
      <point x="178" y="17" type="line"/>
      <point x="203" y="4"/>
      <point x="242" y="-12"/>
      <point x="300" y="-12" type="curve" smooth="yes"/>
      <point x="435" y="-12"/>
      <point x="510" y="64"/>
      <point x="510" y="168" type="curve" smooth="yes"/>
      <point x="510" y="356" type="line" smooth="yes"/>
      <point x="510" y="456"/>
      <point x="444" y="525"/>
      <point x="312" y="525" type="curve" smooth="yes"/>
      <point x="259" y="525"/>
      <point x="207" y="507"/>
      <point x="178" y="485" type="curve"/>
      <point x="178" y="735" type="line"/>
      <point x="87" y="735" type="line"/>
    </contour>
    <contour>
      <point x="294" y="57" type="curve" smooth="yes"/>
      <point x="241" y="57"/>
      <point x="201" y="74"/>
      <point x="178" y="87" type="curve"/>
      <point x="178" y="402" type="line"/>
      <point x="186" y="415"/>
      <point x="233" y="456"/>
      <point x="298" y="456" type="curve" smooth="yes"/>
      <point x="365" y="456"/>
      <point x="418" y="424"/>
      <point x="418" y="362" type="curve" smooth="yes"/>
      <point x="418" y="158" type="line" smooth="yes"/>
      <point x="418" y="95"/>
      <point x="366" y="57"/>
    </contour>
  </outline>
</glyph>
<glyph name="Hbar" format="1">
  <advance width="750"/>
  <unicode hex="0126"/>
  <outline>
    <component base="H"/>
    <contour>
      <point x="70" y="518" type="line"/>
      <point x="680" y="518" type="line"/>
      <point x="680" y="578" type="line"/>
      <point x="70" y="578" type="line"/>
    </contour>
  </outline>
</glyph>
<glyph name="hbar" format="1">
  <advance width="597"/>
  <unicode hex="0127"/>
  <outline>
    <contour>
      <point x="14" y="610" type="line"/>
      <point x="412" y="610" type="line"/>
      <point x="412" y="670" type="line"/>
      <point x="14" y="670" type="line"/>
    </contour>
    <component base="h"/>
  </outline>
</glyph>
<glyph name="dotlessi" format="1">
  <advance width="556"/>
  <unicode hex="0131"/>
  <outline>
    <contour>
      <point x="192" y="0" type="line"/>
      <point x="380" y="0" type="line"/>
      <point x="380" y="1060" type="line"/>
      <point x="192" y="1060" type="line"/>
    </contour>
    <contour>
      <point x="295" y="1060" type="move" name="top"/>
    </contour>
    <contour>
      <point x="304" y="0" type="move" name="ogonek"/>
    </contour>
  </outline>
</glyph>
<glyph name="kgreenlandic" format="1">
  <advance width="560"/>
  <unicode hex="0138"/>
  <outline>
    <contour>
      <point x="91" y="0" type="line"/>
      <point x="183" y="0" type="line"/>
      <point x="183" y="173" type="line"/>
      <point x="254" y="243" type="line"/>
      <point x="442" y="0" type="line"/>
      <point x="548" y="0" type="line"/>
      <point x="325" y="285" type="line"/>
      <point x="527" y="518" type="line"/>
      <point x="425" y="518" type="line"/>
      <point x="342" y="429"/>
      <point x="266" y="338"/>
      <point x="183" y="249" type="curve"/>
      <point x="183" y="518" type="line"/>
      <point x="91" y="518" type="line"/>
    </contour>
  </outline>
</glyph>
<glyph name="Lslash" format="1">
  <advance width="559"/>
  <unicode hex="0141"/>
  <outline>
    <contour>
      <point x="25" y="301" type="line"/>
      <point x="403" y="489" type="line"/>
      <point x="403" y="550" type="line"/>
      <point x="25" y="361" type="line"/>
    </contour>
    <component base="L"/>
  </outline>
</glyph>
<glyph name="lslash" format="1">
  <advance width="345"/>
  <unicode hex="0142"/>
  <outline>
    <component base="l"/>
    <contour>
      <point x="25" y="301" type="line"/>
      <point x="295" y="433" type="line"/>
      <point x="295" y="494" type="line"/>
      <point x="25" y="361" type="line"/>
    </contour>
  </outline>
</glyph>
<glyph name="Eng" format="1">
  <advance width="772"/>
  <unicode hex="014A"/>
  <outline>
    <contour>
      <point x="401" y="-182" type="line"/>
      <point x="563" y="-182"/>
      <point x="669" y="-126"/>
      <point x="669" y="60" type="curve" smooth="yes"/>
      <point x="669" y="706" type="line"/>
      <point x="583" y="706" type="line"/>
      <point x="583" y="229" type="line"/>
      <point x="178" y="706" type="line"/>
      <point x="104" y="706" type="line"/>
      <point x="104" y="0" type="line"/>
      <point x="190" y="0" type="line"/>
      <point x="190" y="539" type="line"/>
      <point x="577" y="93" type="line"/>
      <point x="577" y="56" type="line" smooth="yes"/>
      <point x="577" y="-96"/>
      <point x="506" y="-102"/>
      <point x="387" y="-113" type="curve"/>
    </contour>
  </outline>
</glyph>
<glyph name="eng" format="1">
  <advance width="598"/>
  <unicode hex="014B"/>
  <outline>
    <contour>
      <point x="313" y="-154" type="line"/>
      <point x="482" y="-154"/>
      <point x="513" y="-79"/>
      <point x="513" y="107" type="curve" smooth="yes"/>
      <point x="513" y="376" type="line" smooth="yes"/>
      <point x="513" y="458"/>
      <point x="463" y="527"/>
      <point x="336" y="527" type="curve" smooth="yes"/>
      <point x="261" y="527"/>
      <point x="213" y="502"/>
      <point x="183" y="467" type="curve"/>
      <point x="183" y="518" type="line"/>
      <point x="91" y="518" type="line"/>
      <point x="91" y="0" type="line"/>
      <point x="183" y="0" type="line"/>
      <point x="183" y="369" type="line" smooth="yes"/>
      <point x="183" y="419"/>
      <point x="222" y="457"/>
      <point x="312" y="457" type="curve" smooth="yes"/>
      <point x="376" y="457"/>
      <point x="421" y="432"/>
      <point x="421" y="381" type="curve" smooth="yes"/>
      <point x="421" y="104" type="line" smooth="yes"/>
      <point x="421" y="-48"/>
      <point x="420" y="-85"/>
      <point x="299" y="-85" type="curve"/>
    </contour>
  </outline>
</glyph>
<glyph name="OE" format="1">
  <advance width="760"/>
  <unicode hex="0152"/>
  <outline>
    <contour>
      <point x="380" y="0" type="move" name="top"/>
    </contour>
    <contour>
      <point x="378" y="0" type="curve" smooth="yes"/>
      <point x="683" y="0" type="line"/>
      <point x="683" y="73" type="line"/>
      <point x="477" y="73" type="line"/>
      <point x="477" y="324" type="line"/>
      <point x="649" y="324" type="line"/>
      <point x="649" y="397" type="line"/>
      <point x="477" y="397" type="line"/>
      <point x="477" y="633" type="line"/>
      <point x="679" y="633" type="line"/>
      <point x="679" y="706" type="line"/>
      <point x="378" y="706" type="line" smooth="yes"/>
      <point x="141" y="706"/>
      <point x="89" y="597"/>
      <point x="89" y="448" type="curve" smooth="yes"/>
      <point x="89" y="249" type="line" smooth="yes"/>
      <point x="89" y="102"/>
      <point x="142" y="0"/>
    </contour>
    <contour>
      <point x="374" y="73" type="line" smooth="yes"/>
      <point x="252" y="73"/>
      <point x="188" y="110"/>
      <point x="188" y="234" type="curve" smooth="yes"/>
      <point x="188" y="466" type="line" smooth="yes"/>
      <point x="188" y="590"/>
      <point x="252" y="632"/>
      <point x="373" y="632" type="curve" smooth="yes"/>
      <point x="378" y="632" type="line"/>
      <point x="378" y="73" type="line"/>
    </contour>
  </outline>
</glyph>
<glyph name="oe" format="1">
  <advance width="846"/>
  <unicode hex="0153"/>
  <outline>
    <contour>
      <point x="278" y="-10" type="curve" smooth="yes"/>
      <point x="357" y="-10"/>
      <point x="401" y="17"/>
      <point x="431" y="60" type="curve"/>
      <point x="462" y="18"/>
      <point x="515" y="-10"/>
      <point x="585" y="-10" type="curve" smooth="yes"/>
      <point x="727" y="-10"/>
      <point x="773" y="36"/>
      <point x="783" y="162" type="curve"/>
      <point x="700" y="162" type="line"/>
      <point x="694" y="73"/>
      <point x="666" y="59"/>
      <point x="585" y="59" type="curve" smooth="yes"/>
      <point x="513" y="59"/>
      <point x="478" y="91"/>
      <point x="478" y="160" type="curve" smooth="yes"/>
      <point x="478" y="247" type="line"/>
      <point x="783" y="247" type="line"/>
      <point x="783" y="370" type="line" smooth="yes"/>
      <point x="783" y="468"/>
      <point x="720" y="527"/>
      <point x="585" y="527" type="curve" smooth="yes"/>
      <point x="514" y="527"/>
      <point x="463" y="509"/>
      <point x="431" y="464" type="curve"/>
      <point x="397" y="509"/>
      <point x="345" y="527"/>
      <point x="278" y="527" type="curve" smooth="yes"/>
      <point x="150" y="527"/>
      <point x="73" y="463"/>
      <point x="73" y="365" type="curve" smooth="yes"/>
      <point x="73" y="155" type="line" smooth="yes"/>
      <point x="73" y="59"/>
      <point x="124" y="-10"/>
    </contour>
    <contour>
      <point x="278" y="59" type="curve" smooth="yes"/>
      <point x="206" y="59"/>
      <point x="165" y="83"/>
      <point x="165" y="147" type="curve" smooth="yes"/>
      <point x="165" y="373" type="line" smooth="yes"/>
      <point x="165" y="437"/>
      <point x="210" y="458"/>
      <point x="278" y="458" type="curve" smooth="yes"/>
      <point x="349" y="458"/>
      <point x="386" y="434"/>
      <point x="386" y="373" type="curve" smooth="yes"/>
      <point x="386" y="147" type="line" smooth="yes"/>
      <point x="386" y="84"/>
      <point x="346" y="59"/>
    </contour>
    <contour>
      <point x="478" y="309" type="line"/>
      <point x="478" y="371" type="line" smooth="yes"/>
      <point x="478" y="435"/>
      <point x="512" y="458"/>
      <point x="585" y="458" type="curve" smooth="yes"/>
      <point x="656" y="458"/>
      <point x="694" y="442"/>
      <point x="694" y="380" type="curve" smooth="yes"/>
      <point x="694" y="309" type="line"/>
    </contour>
    <contour>
      <point x="423" y="0" type="move" name="top"/>
    </contour>
  </outline>
</glyph>
<glyph name="florin" format="1">
  <advance width="434"/>
  <unicode hex="0192"/>
  <outline>
    <contour>
      <point x="123" y="-93" type="curve" smooth="yes"/>
      <point x="221" y="-93"/>
      <point x="254" y="-48"/>
      <point x="254" y="44" type="curve" smooth="yes"/>
      <point x="254" y="355" type="line"/>
      <point x="317" y="355" type="line"/>
      <point x="317" y="419" type="line"/>
      <point x="254" y="419" type="line"/>
      <point x="254" y="575" type="line" smooth="yes"/>
      <point x="254" y="617"/>
      <point x="265" y="652"/>
      <point x="332" y="652" type="curve" smooth="yes"/>
      <point x="337" y="652"/>
      <point x="342" y="651"/>
      <point x="347" y="651" type="curve"/>
      <point x="347" y="712" type="line"/>
      <point x="328" y="714"/>
      <point x="311" y="715"/>
      <point x="296" y="715" type="curve" smooth="yes"/>
      <point x="194" y="715"/>
      <point x="163" y="670"/>
      <point x="163" y="564" type="curve" smooth="yes"/>
      <point x="163" y="419" type="line"/>
      <point x="105" y="419" type="line"/>
      <point x="105" y="355" type="line"/>
      <point x="163" y="355" type="line"/>
      <point x="163" y="31" type="line" smooth="yes"/>
      <point x="163" y="-9"/>
      <point x="146" y="-30"/>
      <point x="92" y="-30" type="curve" smooth="yes"/>
      <point x="85" y="-30"/>
      <point x="77" y="-30"/>
      <point x="69" y="-29" type="curve"/>
      <point x="69" y="-89" type="line"/>
      <point x="89" y="-91"/>
      <point x="107" y="-93"/>
    </contour>
  </outline>
</glyph>
<glyph name="uni0237" format="1">
  <advance width="290"/>
  <unicode hex="0237"/>
  <outline>
    <contour>
      <point x="162" y="518" type="move" name="top"/>
    </contour>
    <contour>
      <point x="13" y="-172" type="line"/>
      <point x="45" y="-172" type="line" smooth="yes"/>
      <point x="146" y="-172"/>
      <point x="203" y="-149"/>
      <point x="203" y="3" type="curve" smooth="yes"/>
      <point x="203" y="518" type="line"/>
      <point x="111" y="518" type="line"/>
      <point x="111" y="-2" type="line" smooth="yes"/>
      <point x="111" y="-85"/>
      <point x="83" y="-96"/>
      <point x="18" y="-96" type="curve" smooth="yes"/>
      <point x="4" y="-96" type="line"/>
    </contour>
  </outline>
</glyph>
<glyph name="uni02BC" format="1">
  <advance width="292"/>
  <unicode hex="02BC"/>
  <outline>
    <component base="comma" xOffset="-98" yOffset="791"/>
    <contour>
      <point x="50" y="518" type="move" name="_top"/>
    </contour>
  </outline>
</glyph>
<glyph name="circumflex" format="1">
  <advance width="250"/>
  <unicode hex="02C6"/>
  <outline>
    <contour>
      <point x="-15" y="628" type="line"/>
      <point x="73" y="628" type="line"/>
      <point x="128" y="699" type="line"/>
      <point x="179" y="628" type="line"/>
      <point x="265" y="628" type="line"/>
      <point x="164" y="758" type="line"/>
      <point x="91" y="758" type="line"/>
    </contour>
    <contour>
      <point x="125" y="518" type="move" name="_top"/>
    </contour>
  </outline>
</glyph>
<glyph name="caron" format="1">
  <advance width="250"/>
  <unicode hex="02C7"/>
  <outline>
    <contour>
      <point x="125" y="518" type="move" name="_top"/>
    </contour>
    <contour>
      <point x="164" y="628" type="line"/>
      <point x="265" y="758" type="line"/>
      <point x="179" y="758" type="line"/>
      <point x="128" y="688" type="line"/>
      <point x="73" y="758" type="line"/>
      <point x="-15" y="758" type="line"/>
      <point x="91" y="628" type="line"/>
    </contour>
  </outline>
</glyph>
<glyph name="firsttonechinese" format="1">
  <advance width="513"/>
  <unicode hex="02C9"/>
  <outline>
    <contour>
      <point x="-8" y="1321" type="line"/>
      <point x="521" y="1321" type="line"/>
      <point x="521" y="1468" type="line"/>
      <point x="-8" y="1468" type="line"/>
    </contour>
    <contour>
      <point x="257" y="1394" type="move" name="_mid"/>
    </contour>
    <contour>
      <point x="257" y="1060" type="move" name="_top"/>
    </contour>
  </outline>
</glyph>
<glyph name="breve" format="1">
  <advance width="512"/>
  <unicode hex="02D8"/>
  <outline>
    <contour>
      <point x="267" y="1060" type="move" name="_top"/>
    </contour>
    <contour>
      <point x="256" y="1294" type="curve" smooth="yes"/>
      <point x="395" y="1294"/>
      <point x="482" y="1391"/>
      <point x="482" y="1506" type="curve"/>
      <point x="356" y="1506" type="line"/>
      <point x="356" y="1446"/>
      <point x="306" y="1416"/>
      <point x="256" y="1416" type="curve" smooth="yes"/>
      <point x="206" y="1416"/>
      <point x="156" y="1446"/>
      <point x="156" y="1506" type="curve"/>
      <point x="30" y="1506" type="line"/>
      <point x="30" y="1391"/>
      <point x="117" y="1294"/>
    </contour>
  </outline>
</glyph>
<glyph name="dotaccent" format="1">
  <advance width="250"/>
  <unicode hex="02D9"/>
  <outline>
    <contour>
      <point x="73" y="648" type="line"/>
      <point x="167" y="648" type="line"/>
      <point x="167" y="750" type="line"/>
      <point x="73" y="750" type="line"/>
    </contour>
    <contour>
      <point x="125" y="518" type="move" name="_top"/>
    </contour>
  </outline>
</glyph>
<glyph name="ring" format="1">
  <advance width="250"/>
  <unicode hex="02DA"/>
  <outline>
    <contour>
      <point x="125" y="518" type="move" name="_top"/>
    </contour>
    <contour>
      <point x="125" y="602" type="curve" smooth="yes"/>
      <point x="97" y="602"/>
      <point x="72" y="615"/>
      <point x="72" y="658" type="curve" smooth="yes"/>
      <point x="72" y="700"/>
      <point x="98" y="712"/>
      <point x="125" y="712" type="curve" smooth="yes"/>
      <point x="153" y="712"/>
      <point x="178" y="699"/>
      <point x="178" y="657" type="curve" smooth="yes"/>
      <point x="178" y="615"/>
      <point x="153" y="602"/>
    </contour>
    <contour>
      <point x="125" y="570" type="curve" smooth="yes"/>
      <point x="174" y="570"/>
      <point x="220" y="597"/>
      <point x="220" y="657" type="curve" smooth="yes"/>
      <point x="220" y="717"/>
      <point x="174" y="744"/>
      <point x="125" y="744" type="curve" smooth="yes"/>
      <point x="76" y="744"/>
      <point x="30" y="717"/>
      <point x="30" y="657" type="curve" smooth="yes"/>
      <point x="30" y="597"/>
      <point x="76" y="570"/>
    </contour>
  </outline>
</glyph>
<glyph name="ogonek" format="1">
  <advance width="250"/>
  <unicode hex="02DB"/>
  <outline>
    <contour>
      <point x="157" y="0" type="move" name="_ogonek"/>
    </contour>
    <contour>
      <point x="199" y="-232" type="curve"/>
      <point x="199" y="-185" type="line"/>
      <point x="137" y="-185"/>
      <point x="116" y="-157"/>
      <point x="116" y="-120" type="curve" smooth="yes"/>
      <point x="116" y="-78"/>
      <point x="142" y="-26"/>
      <point x="175" y="5" type="curve"/>
      <point x="145" y="5" type="line"/>
      <point x="82" y="-49"/>
      <point x="56" y="-98"/>
      <point x="56" y="-137" type="curve" smooth="yes"/>
      <point x="56" y="-195"/>
      <point x="112" y="-232"/>
    </contour>
  </outline>
</glyph>
<glyph name="tilde" format="1">
  <advance width="512"/>
  <unicode hex="02DC"/>
  <outline>
    <contour>
      <point x="145" y="1203" type="curve" smooth="yes"/>
      <point x="282" y="1203"/>
      <point x="314" y="1310"/>
      <point x="385" y="1310" type="curve" smooth="yes"/>
      <point x="426" y="1310"/>
      <point x="455" y="1279"/>
      <point x="455" y="1217" type="curve"/>
      <point x="552" y="1217" type="line"/>
      <point x="552" y="1382"/>
      <point x="486" y="1446"/>
      <point x="366" y="1446" type="curve" smooth="yes"/>
      <point x="229" y="1446"/>
      <point x="197" y="1339"/>
      <point x="126" y="1339" type="curve" smooth="yes"/>
      <point x="85" y="1339"/>
      <point x="56" y="1370"/>
      <point x="56" y="1432" type="curve"/>
      <point x="-41" y="1432" type="line"/>
      <point x="-41" y="1267"/>
      <point x="25" y="1203"/>
    </contour>
    <contour>
      <point x="256" y="1060" type="move" name="_top"/>
    </contour>
  </outline>
</glyph>
<glyph name="hungarumlaut" format="1">
  <advance width="500"/>
  <unicode hex="02DD"/>
  <outline>
    <contour>
      <point x="206" y="518" type="move" name="_top"/>
    </contour>
    <contour>
      <point x="80" y="631" type="line"/>
      <point x="143" y="631" type="line"/>
      <point x="257" y="817" type="line"/>
      <point x="147" y="817" type="line"/>
    </contour>
    <contour>
      <point x="280" y="631" type="line"/>
      <point x="343" y="631" type="line"/>
      <point x="458" y="817" type="line"/>
      <point x="348" y="817" type="line"/>
    </contour>
  </outline>
</glyph>
<glyph name="uni0307" format="1">
  <advance width="201"/>
  <unicode hex="0307"/>
  <outline>
    <contour>
      <point x="54" y="648" type="line"/>
      <point x="148" y="648" type="line"/>
      <point x="148" y="750" type="line"/>
      <point x="54" y="750" type="line"/>
    </contour>
    <contour>
      <point x="106" y="518" type="move" name="_top"/>
    </contour>
  </outline>
</glyph>
<glyph name="uni030F" format="1">
  <advance width="500"/>
  <unicode hex="030F"/>
  <outline>
    <contour>
      <point x="365" y="631" type="line"/>
      <point x="428" y="631" type="line"/>
      <point x="360" y="817" type="line"/>
      <point x="250" y="817" type="line"/>
    </contour>
    <contour>
      <point x="165" y="631" type="line"/>
      <point x="228" y="631" type="line"/>
      <point x="160" y="817" type="line"/>
      <point x="50" y="817" type="line"/>
    </contour>
    <contour>
      <point x="302" y="518" type="move" name="_top"/>
    </contour>
  </outline>
</glyph>
<glyph name="uni0311" format="1">
  <advance width="250"/>
  <unicode hex="0311"/>
  <outline>
    <contour>
      <point x="15" y="613" type="curve"/>
      <point x="76" y="613" type="line"/>
      <point x="76" y="642"/>
      <point x="101" y="657"/>
      <point x="125" y="657" type="curve" smooth="yes"/>
      <point x="149" y="657"/>
      <point x="174" y="642"/>
      <point x="174" y="613" type="curve"/>
      <point x="235" y="613" type="line"/>
      <point x="235" y="669"/>
      <point x="193" y="717"/>
      <point x="125" y="717" type="curve" smooth="yes"/>
      <point x="57" y="717"/>
      <point x="15" y="669"/>
    </contour>
    <contour>
      <point x="130" y="518" type="move" name="_top"/>
    </contour>
  </outline>
</glyph>
<glyph name="uni0326" format="1">
  <advance width="292"/>
  <unicode hex="0326"/>
  <outline>
    <component base="comma" yOffset="-219"/>
    <contour>
      <point x="156" y="0" type="move" name="_bot"/>
    </contour>
  </outline>
</glyph>
<glyph name="uni0358" format="1">
  <advance width="292"/>
  <unicode hex="0358"/>
  <outline>
    <contour>
      <point x="141" y="518" type="move" name="_top"/>
    </contour>
    <contour>
      <point x="88" y="648" type="line"/>
      <point x="183" y="648" type="line"/>
      <point x="183" y="750" type="line"/>
      <point x="88" y="750" type="line"/>
    </contour>
  </outline>
</glyph>
<glyph name="uni0394" format="1">
  <advance width="697"/>
  <unicode hex="0394"/>
  <outline>
    <contour>
      <point x="79" y="0" type="line"/>
      <point x="615" y="0" type="line"/>
      <point x="392" y="706" type="line"/>
      <point x="305" y="706" type="line"/>
    </contour>
    <contour>
      <point x="191" y="70" type="line"/>
      <point x="351" y="584" type="line"/>
      <point x="506" y="70" type="line"/>
    </contour>
  </outline>
</glyph>
<glyph name="Sigma" format="1">
  <advance width="564"/>
  <unicode hex="03A3"/>
  <outline>
    <contour>
      <point x="525" y="0" type="line"/>
      <point x="525" y="79" type="line"/>
      <point x="157" y="79" type="line"/>
      <point x="379" y="360" type="line"/>
      <point x="379" y="394" type="line"/>
      <point x="155" y="628" type="line"/>
      <point x="525" y="628" type="line"/>
      <point x="525" y="706" type="line"/>
      <point x="55" y="706" type="line"/>
      <point x="55" y="634" type="line"/>
      <point x="292" y="372" type="line"/>
      <point x="55" y="76" type="line"/>
      <point x="55" y="0" type="line"/>
    </contour>
  </outline>
</glyph>
<glyph name="uni03A9" format="1">
  <advance width="774"/>
  <unicode hex="03A9"/>
  <outline>
    <contour>
      <point x="387" y="717" type="curve" smooth="yes"/>
      <point x="212" y="717"/>
      <point x="91" y="670"/>
      <point x="91" y="350" type="curve" smooth="yes"/>
      <point x="91" y="179"/>
      <point x="145" y="107"/>
      <point x="221" y="69" type="curve"/>
      <point x="101" y="69" type="line"/>
      <point x="101" y="0" type="line"/>
      <point x="340" y="0" type="line"/>
      <point x="340" y="69" type="line"/>
      <point x="228" y="110"/>
      <point x="188" y="175"/>
      <point x="188" y="359" type="curve" smooth="yes"/>
      <point x="188" y="609"/>
      <point x="260" y="637"/>
      <point x="387" y="637" type="curve" smooth="yes"/>
      <point x="514" y="637"/>
      <point x="586" y="609"/>
      <point x="586" y="359" type="curve" smooth="yes"/>
      <point x="586" y="175"/>
      <point x="546" y="110"/>
      <point x="434" y="69" type="curve"/>
      <point x="434" y="0" type="line"/>
      <point x="673" y="0" type="line"/>
      <point x="673" y="69" type="line"/>
      <point x="554" y="69" type="line"/>
      <point x="630" y="107"/>
      <point x="684" y="179"/>
      <point x="684" y="350" type="curve" smooth="yes"/>
      <point x="684" y="670"/>
      <point x="562" y="717"/>
    </contour>
  </outline>
</glyph>
<glyph name="mu" format="1">
  <advance width="1224"/>
  <unicode hex="03BC"/>
  <outline>
    <contour>
      <point x="957" y="0" type="move" name="ogonek"/>
    </contour>
    <contour>
      <point x="622" y="1060" type="move" name="top"/>
    </contour>
    <contour>
      <point x="848" y="1060" type="line"/>
      <point x="848" y="309" type="line" smooth="yes"/>
      <point x="848" y="220"/>
      <point x="760" y="122"/>
      <point x="576" y="122" type="curve" smooth="yes"/>
      <point x="445" y="122"/>
      <point x="362" y="184"/>
      <point x="362" y="289" type="curve" smooth="yes"/>
      <point x="362" y="1060" type="line"/>
      <point x="174" y="1060" type="line"/>
      <point x="174" y="-383" type="line"/>
      <point x="362" y="-383" type="line"/>
      <point x="362" y="7" type="line"/>
      <point x="410" y="-12"/>
      <point x="469" y="-22"/>
      <point x="539" y="-22" type="curve" smooth="yes"/>
      <point x="693" y="-22"/>
      <point x="794" y="38"/>
      <point x="848" y="133" type="curve"/>
      <point x="868" y="0" type="line"/>
      <point x="1036" y="0" type="line"/>
      <point x="1036" y="1060" type="line"/>
    </contour>
  </outline>
</glyph>
<glyph name="pi" format="1">
  <advance width="576"/>
  <unicode hex="03C0"/>
  <outline>
    <contour>
      <point x="15" y="427" type="line"/>
      <point x="15" y="427"/>
      <point x="68" y="457"/>
      <point x="123" y="457" type="curve"/>
      <point x="123" y="0" type="line"/>
      <point x="214" y="0" type="line"/>
      <point x="214" y="457" type="line"/>
      <point x="364" y="457" type="line"/>
      <point x="364" y="130" type="line" smooth="yes"/>
      <point x="364" y="15"/>
      <point x="410" y="-11"/>
      <point x="510" y="-11" type="curve"/>
      <point x="533" y="61" type="line"/>
      <point x="467" y="76"/>
      <point x="456" y="82"/>
      <point x="456" y="163" type="curve" smooth="yes"/>
      <point x="456" y="457" type="line"/>
      <point x="544" y="457" type="line"/>
      <point x="544" y="518" type="line"/>
      <point x="106" y="518" type="line" smooth="yes"/>
      <point x="47" y="518"/>
      <point x="15" y="488"/>
      <point x="15" y="488" type="curve"/>
    </contour>
  </outline>
</glyph>
<glyph name="endash" format="1">
  <advance width="263"/>
  <unicode hex="2013"/>
  <outline>
    <contour>
      <point x="1" y="296" type="line"/>
      <point x="261" y="296" type="line"/>
      <point x="261" y="357" type="line"/>
      <point x="1" y="357" type="line"/>
    </contour>
  </outline>
</glyph>
<glyph name="emdash" format="1">
  <advance width="537"/>
  <unicode hex="2014"/>
  <outline>
    <contour>
      <point x="1" y="196" type="line"/>
      <point x="536" y="196" type="line"/>
      <point x="536" y="268" type="line"/>
      <point x="1" y="268" type="line"/>
    </contour>
  </outline>
</glyph>
<glyph name="quoteleft" format="1">
  <advance width="375"/>
  <unicode hex="2018"/>
  <outline>
    <contour>
      <point x="240" y="717" type="line"/>
      <point x="212" y="691"/>
      <point x="156" y="620"/>
      <point x="156" y="527" type="curve" smooth="yes"/>
      <point x="156" y="438" type="line"/>
      <point x="282" y="438" type="line"/>
      <point x="282" y="552" type="line"/>
      <point x="213" y="552" type="line"/>
      <point x="213" y="616"/>
      <point x="257" y="668"/>
      <point x="280" y="695" type="curve"/>
    </contour>
  </outline>
</glyph>
<glyph name="quoteright" format="1">
  <advance width="375"/>
  <unicode hex="2019"/>
  <outline>
    <contour>
      <point x="135" y="438" type="line"/>
      <point x="163" y="464"/>
      <point x="219" y="534"/>
      <point x="219" y="627" type="curve" smooth="yes"/>
      <point x="219" y="717" type="line"/>
      <point x="94" y="717" type="line"/>
      <point x="94" y="603" type="line"/>
      <point x="163" y="603" type="line"/>
      <point x="163" y="539"/>
      <point x="119" y="486"/>
      <point x="96" y="459" type="curve"/>
    </contour>
  </outline>
</glyph>
<glyph name="quotesinglbase" format="1">
  <advance width="375"/>
  <unicode hex="201A"/>
  <outline>
    <contour>
      <point x="135" y="-165" type="line"/>
      <point x="163" y="-139"/>
      <point x="219" y="-69"/>
      <point x="219" y="24" type="curve" smooth="yes"/>
      <point x="219" y="114" type="line"/>
      <point x="94" y="114" type="line"/>
      <point x="94" y="0" type="line"/>
      <point x="163" y="0" type="line"/>
      <point x="163" y="-64"/>
      <point x="119" y="-117"/>
      <point x="96" y="-144" type="curve"/>
    </contour>
  </outline>
</glyph>
<glyph name="quotedblleft" format="1">
  <advance width="576"/>
  <unicode hex="201C"/>
  <outline>
    <contour>
      <point x="240" y="717" type="line"/>
      <point x="212" y="691"/>
      <point x="156" y="620"/>
      <point x="156" y="527" type="curve" smooth="yes"/>
      <point x="156" y="438" type="line"/>
      <point x="282" y="438" type="line"/>
      <point x="282" y="552" type="line"/>
      <point x="213" y="552" type="line"/>
      <point x="213" y="616"/>
      <point x="257" y="668"/>
      <point x="280" y="695" type="curve"/>
    </contour>
    <contour>
      <point x="441" y="717" type="line"/>
      <point x="413" y="691"/>
      <point x="357" y="620"/>
      <point x="357" y="527" type="curve" smooth="yes"/>
      <point x="357" y="438" type="line"/>
      <point x="483" y="438" type="line"/>
      <point x="483" y="552" type="line"/>
      <point x="414" y="552" type="line"/>
      <point x="414" y="616"/>
      <point x="458" y="668"/>
      <point x="481" y="695" type="curve"/>
    </contour>
  </outline>
</glyph>
<glyph name="quotedblright" format="1">
  <advance width="1181"/>
  <unicode hex="201D"/>
  <outline>
    <contour>
      <point x="277" y="897" type="line"/>
      <point x="335" y="951"/>
      <point x="449" y="1094"/>
      <point x="449" y="1285" type="curve" smooth="yes"/>
      <point x="449" y="1468" type="line"/>
      <point x="192" y="1468" type="line"/>
      <point x="192" y="1235" type="line"/>
      <point x="333" y="1235" type="line"/>
      <point x="333" y="1103"/>
      <point x="243" y="996"/>
      <point x="196" y="941" type="curve"/>
    </contour>
    <contour>
      <point x="689" y="897" type="line"/>
      <point x="747" y="951"/>
      <point x="861" y="1094"/>
      <point x="861" y="1285" type="curve" smooth="yes"/>
      <point x="861" y="1468" type="line"/>
      <point x="604" y="1468" type="line"/>
      <point x="604" y="1235" type="line"/>
      <point x="745" y="1235" type="line"/>
      <point x="745" y="1103"/>
      <point x="655" y="996"/>
      <point x="608" y="941" type="curve"/>
    </contour>
  </outline>
</glyph>
<glyph name="quotedblbase" format="1">
  <advance width="576"/>
  <unicode hex="201E"/>
  <outline>
    <contour>
      <point x="336" y="-165" type="line"/>
      <point x="364" y="-139"/>
      <point x="420" y="-69"/>
      <point x="420" y="24" type="curve" smooth="yes"/>
      <point x="420" y="114" type="line"/>
      <point x="295" y="114" type="line"/>
      <point x="295" y="0" type="line"/>
      <point x="364" y="0" type="line"/>
      <point x="364" y="-64"/>
      <point x="320" y="-117"/>
      <point x="297" y="-144" type="curve"/>
    </contour>
    <contour>
      <point x="135" y="-165" type="line"/>
      <point x="163" y="-139"/>
      <point x="219" y="-69"/>
      <point x="219" y="24" type="curve" smooth="yes"/>
      <point x="219" y="114" type="line"/>
      <point x="94" y="114" type="line"/>
      <point x="94" y="0" type="line"/>
      <point x="163" y="0" type="line"/>
      <point x="163" y="-64"/>
      <point x="119" y="-117"/>
      <point x="96" y="-144" type="curve"/>
    </contour>
  </outline>
</glyph>
<glyph name="dagger" format="1">
  <advance width="434"/>
  <unicode hex="2020"/>
  <outline>
    <contour>
      <point x="170" y="0" type="line"/>
      <point x="262" y="0" type="line"/>
      <point x="262" y="455" type="line"/>
      <point x="392" y="455" type="line"/>
      <point x="392" y="518" type="line"/>
      <point x="262" y="518" type="line"/>
      <point x="262" y="706" type="line"/>
      <point x="170" y="706" type="line"/>
      <point x="170" y="518" type="line"/>
      <point x="43" y="518" type="line"/>
      <point x="43" y="455" type="line"/>
      <point x="170" y="455" type="line"/>
    </contour>
  </outline>
</glyph>
<glyph name="daggerdbl" format="1">
  <advance width="458"/>
  <unicode hex="2021"/>
  <outline>
    <contour>
      <point x="182" y="0" type="line"/>
      <point x="273" y="0" type="line"/>
      <point x="273" y="200" type="line"/>
      <point x="403" y="200" type="line"/>
      <point x="403" y="263" type="line"/>
      <point x="273" y="263" type="line"/>
      <point x="273" y="455" type="line"/>
      <point x="403" y="455" type="line"/>
      <point x="403" y="518" type="line"/>
      <point x="273" y="518" type="line"/>
      <point x="273" y="706" type="line"/>
      <point x="182" y="706" type="line"/>
      <point x="182" y="518" type="line"/>
      <point x="55" y="518" type="line"/>
      <point x="55" y="455" type="line"/>
      <point x="182" y="455" type="line"/>
      <point x="182" y="263" type="line"/>
      <point x="55" y="263" type="line"/>
      <point x="55" y="200" type="line"/>
      <point x="182" y="200" type="line"/>
    </contour>
  </outline>
</glyph>
<glyph name="bullet" format="1">
  <advance width="476"/>
  <unicode hex="2022"/>
  <outline>
    <contour>
      <point x="237" y="146" type="curve" smooth="yes"/>
      <point x="348" y="146"/>
      <point x="388" y="197"/>
      <point x="388" y="292" type="curve" smooth="yes"/>
      <point x="388" y="388"/>
      <point x="349" y="440"/>
      <point x="238" y="440" type="curve" smooth="yes"/>
      <point x="128" y="440"/>
      <point x="88" y="388"/>
      <point x="88" y="292" type="curve" smooth="yes"/>
      <point x="88" y="197"/>
      <point x="127" y="146"/>
    </contour>
  </outline>
</glyph>
<glyph name="perthousand" format="1">
  <advance width="1409"/>
  <unicode hex="2030"/>
  <outline>
    <contour>
      <point x="248" y="378" type="curve" smooth="yes"/>
      <point x="181" y="378"/>
      <point x="172" y="429"/>
      <point x="172" y="498" type="curve" smooth="yes"/>
      <point x="172" y="544" type="line" smooth="yes"/>
      <point x="172" y="610"/>
      <point x="178" y="657"/>
      <point x="248" y="657" type="curve" smooth="yes"/>
      <point x="318" y="657"/>
      <point x="324" y="610"/>
      <point x="324" y="543" type="curve" smooth="yes"/>
      <point x="324" y="498" type="line" smooth="yes"/>
      <point x="324" y="429"/>
      <point x="315" y="378"/>
    </contour>
    <contour>
      <point x="248" y="321" type="curve" smooth="yes"/>
      <point x="360" y="321"/>
      <point x="395" y="394"/>
      <point x="395" y="506" type="curve" smooth="yes"/>
      <point x="395" y="533" type="line"/>
      <point x="394" y="647"/>
      <point x="360" y="713"/>
      <point x="248" y="713" type="curve" smooth="yes"/>
      <point x="135" y="713"/>
      <point x="102" y="646"/>
      <point x="102" y="532" type="curve" smooth="yes"/>
      <point x="102" y="506" type="line" smooth="yes"/>
      <point x="102" y="395"/>
      <point x="136" y="321"/>
    </contour>
    <contour>
      <point x="787" y="47" type="curve" smooth="yes"/>
      <point x="720" y="47"/>
      <point x="711" y="98"/>
      <point x="711" y="167" type="curve" smooth="yes"/>
      <point x="711" y="214" type="line" smooth="yes"/>
      <point x="711" y="280"/>
      <point x="717" y="326"/>
      <point x="787" y="326" type="curve" smooth="yes"/>
      <point x="857" y="326"/>
      <point x="863" y="280"/>
      <point x="863" y="213" type="curve" smooth="yes"/>
      <point x="863" y="167" type="line" smooth="yes"/>
      <point x="863" y="98"/>
      <point x="854" y="47"/>
    </contour>
    <contour>
      <point x="787" y="-9" type="curve" smooth="yes"/>
      <point x="899" y="-9"/>
      <point x="934" y="64"/>
      <point x="934" y="176" type="curve" smooth="yes"/>
      <point x="934" y="202" type="line"/>
      <point x="933" y="316"/>
      <point x="899" y="383"/>
      <point x="787" y="383" type="curve" smooth="yes"/>
      <point x="674" y="383"/>
      <point x="641" y="316"/>
      <point x="641" y="202" type="curve" smooth="yes"/>
      <point x="641" y="176" type="line" smooth="yes"/>
      <point x="641" y="65"/>
      <point x="675" y="-9"/>
    </contour>
    <contour>
      <point x="1167" y="47" type="curve" smooth="yes"/>
      <point x="1100" y="47"/>
      <point x="1091" y="98"/>
      <point x="1091" y="167" type="curve" smooth="yes"/>
      <point x="1091" y="214" type="line" smooth="yes"/>
      <point x="1091" y="280"/>
      <point x="1097" y="326"/>
      <point x="1167" y="326" type="curve" smooth="yes"/>
      <point x="1237" y="326"/>
      <point x="1244" y="280"/>
      <point x="1244" y="213" type="curve" smooth="yes"/>
      <point x="1244" y="167" type="line" smooth="yes"/>
      <point x="1244" y="98"/>
      <point x="1234" y="47"/>
    </contour>
    <contour>
      <point x="1167" y="-9" type="curve" smooth="yes"/>
      <point x="1279" y="-9"/>
      <point x="1314" y="64"/>
      <point x="1314" y="176" type="curve" smooth="yes"/>
      <point x="1314" y="202" type="line"/>
      <point x="1313" y="316"/>
      <point x="1279" y="383"/>
      <point x="1167" y="383" type="curve" smooth="yes"/>
      <point x="1054" y="383"/>
      <point x="1021" y="316"/>
      <point x="1021" y="202" type="curve" smooth="yes"/>
      <point x="1021" y="176" type="line" smooth="yes"/>
      <point x="1021" y="65"/>
      <point x="1055" y="-9"/>
    </contour>
    <contour>
      <point x="344" y="0" type="line"/>
      <point x="419" y="0" type="line"/>
      <point x="682" y="706" type="line"/>
      <point x="609" y="706" type="line"/>
    </contour>
  </outline>
</glyph>
<glyph name="guilsinglright" format="1">
  <advance width="375"/>
  <unicode hex="203A"/>
  <outline>
    <contour>
      <point x="160" y="39" type="line"/>
      <point x="293" y="259" type="line"/>
      <point x="156" y="479" type="line"/>
      <point x="88" y="444" type="line"/>
      <point x="189" y="259" type="line"/>
      <point x="88" y="73" type="line"/>
    </contour>
  </outline>
</glyph>
<glyph name="fraction" format="1">
  <advance width="375"/>
  <unicode hex="2044"/>
  <outline>
    <contour>
      <point x="8" y="0" type="line"/>
      <point x="99" y="0" type="line"/>
      <point x="367" y="735" type="line"/>
      <point x="278" y="735" type="line"/>
    </contour>
  </outline>
</glyph>
<glyph name="foursuperior" format="1">
  <advance width="512"/>
  <unicode hex="2074"/>
  <outline>
    <contour>
      <point x="290" y="339" type="line"/>
      <point x="348" y="339" type="line"/>
      <point x="348" y="428" type="line"/>
      <point x="410" y="428" type="line"/>
      <point x="410" y="478" type="line"/>
      <point x="348" y="478" type="line"/>
      <point x="348" y="579" type="line"/>
      <point x="290" y="579" type="line"/>
      <point x="290" y="478" type="line"/>
      <point x="171" y="478" type="line"/>
      <point x="336" y="754" type="line"/>
      <point x="268" y="754" type="line"/>
      <point x="92" y="475" type="line"/>
      <point x="92" y="428" type="line"/>
      <point x="290" y="428" type="line"/>
    </contour>
  </outline>
</glyph>
<glyph name="Euro" format="1">
  <advance width="712"/>
  <unicode hex="20AC"/>
  <outline>
    <component base="C"/>
    <contour>
      <point x="363" y="400" type="line"/>
      <point x="363" y="465" type="line"/>
      <point x="0" y="465" type="line"/>
      <point x="0" y="400" type="line"/>
    </contour>
    <contour>
      <point x="363" y="247" type="line"/>
      <point x="363" y="312" type="line"/>
      <point x="0" y="312" type="line"/>
      <point x="0" y="247" type="line"/>
    </contour>
  </outline>
</glyph>
<glyph name="trademark" format="1">
  <advance width="899"/>
  <unicode hex="2122"/>
  <outline>
    <contour>
      <point x="413" y="374" type="line"/>
      <point x="474" y="374" type="line"/>
      <point x="474" y="649" type="line"/>
      <point x="561" y="455" type="line"/>
      <point x="640" y="455" type="line"/>
      <point x="724" y="649" type="line"/>
      <point x="724" y="374" type="line"/>
      <point x="786" y="374" type="line"/>
      <point x="786" y="706" type="line"/>
      <point x="690" y="706" type="line"/>
      <point x="599" y="504" type="line"/>
      <point x="509" y="706" type="line"/>
      <point x="413" y="706" type="line"/>
    </contour>
    <contour>
      <point x="168" y="374" type="line"/>
      <point x="234" y="374" type="line"/>
      <point x="234" y="650" type="line"/>
      <point x="338" y="650" type="line"/>
      <point x="338" y="706" type="line"/>
      <point x="65" y="706" type="line"/>
      <point x="65" y="650" type="line"/>
      <point x="168" y="650" type="line"/>
    </contour>
  </outline>
</glyph>
<glyph name="Ohm" format="1">
  <advance width="1586"/>
  <unicode hex="2126"/>
  <outline>
    <contour>
      <point x="793" y="1468" type="curve" smooth="yes"/>
      <point x="435" y="1468"/>
      <point x="186" y="1372"/>
      <point x="186" y="716" type="curve" smooth="yes"/>
      <point x="186" y="365"/>
      <point x="297" y="219"/>
      <point x="452" y="141" type="curve"/>
      <point x="207" y="141" type="line"/>
      <point x="207" y="0" type="line"/>
      <point x="697" y="0" type="line"/>
      <point x="697" y="141" type="line"/>
      <point x="468" y="225"/>
      <point x="386" y="360"/>
      <point x="386" y="736" type="curve" smooth="yes"/>
      <point x="386" y="1248"/>
      <point x="533" y="1304"/>
      <point x="793" y="1304" type="curve" smooth="yes"/>
      <point x="1053" y="1304"/>
      <point x="1200" y="1248"/>
      <point x="1200" y="736" type="curve" smooth="yes"/>
      <point x="1200" y="360"/>
      <point x="1118" y="225"/>
      <point x="889" y="141" type="curve"/>
      <point x="889" y="0" type="line"/>
      <point x="1379" y="0" type="line"/>
      <point x="1379" y="141" type="line"/>
      <point x="1134" y="141" type="line"/>
      <point x="1289" y="219"/>
      <point x="1400" y="365"/>
      <point x="1400" y="716" type="curve" smooth="yes"/>
      <point x="1400" y="1372"/>
      <point x="1151" y="1468"/>
    </contour>
  </outline>
</glyph>
<glyph name="estimated" format="1">
  <advance width="585"/>
  <unicode hex="212E"/>
  <outline>
    <contour>
      <point x="312" y="591" type="curve" smooth="yes"/>
      <point x="370" y="591"/>
      <point x="426" y="567"/>
      <point x="458" y="520" type="curve"/>
      <point x="458" y="386" type="line"/>
      <point x="159" y="386" type="line"/>
      <point x="159" y="521" type="line"/>
      <point x="194" y="567"/>
      <point x="254" y="591"/>
    </contour>
    <contour>
      <point x="46" y="356" type="curve" smooth="yes"/>
      <point x="46" y="201"/>
      <point x="137" y="87"/>
      <point x="323" y="87" type="curve" smooth="yes"/>
      <point x="424" y="87"/>
      <point x="490" y="130"/>
      <point x="538" y="188" type="curve"/>
      <point x="513" y="213" type="line"/>
      <point x="461" y="157"/>
      <point x="389" y="129"/>
      <point x="321" y="129" type="curve" smooth="yes"/>
      <point x="259" y="129"/>
      <point x="199" y="152"/>
      <point x="159" y="198" type="curve"/>
      <point x="159" y="347" type="line"/>
      <point x="542" y="347" type="line"/>
      <point x="542" y="513"/>
      <point x="466" y="625"/>
      <point x="311" y="625" type="curve" smooth="yes"/>
      <point x="155" y="625"/>
      <point x="46" y="508"/>
    </contour>
  </outline>
</glyph>
<glyph name="partialdiff" format="1">
  <advance width="586"/>
  <unicode hex="2202"/>
  <outline>
    <contour>
      <point x="229" y="-10" type="curve" smooth="yes"/>
      <point x="401" y="-10"/>
      <point x="516" y="188"/>
      <point x="516" y="446" type="curve" smooth="yes"/>
      <point x="516" y="647"/>
      <point x="409" y="736"/>
      <point x="283" y="736" type="curve" smooth="yes"/>
      <point x="230" y="736"/>
      <point x="174" y="720"/>
      <point x="120" y="691" type="curve"/>
      <point x="132" y="661" type="line"/>
      <point x="168" y="678"/>
      <point x="206" y="687"/>
      <point x="242" y="687" type="curve" smooth="yes"/>
      <point x="339" y="687"/>
      <point x="421" y="621"/>
      <point x="421" y="473" type="curve" smooth="yes"/>
      <point x="421" y="455" type="line"/>
      <point x="198" y="452"/>
      <point x="74" y="278"/>
      <point x="74" y="144" type="curve" smooth="yes"/>
      <point x="74" y="60"/>
      <point x="124" y="-10"/>
    </contour>
    <contour>
      <point x="236" y="48" type="curve" smooth="yes"/>
      <point x="200" y="48"/>
      <point x="182" y="83"/>
      <point x="182" y="130" type="curve" smooth="yes"/>
      <point x="182" y="232"/>
      <point x="264" y="394"/>
      <point x="418" y="404" type="curve"/>
      <point x="408" y="264"/>
      <point x="354" y="48"/>
    </contour>
  </outline>
</glyph>
<glyph name="emptyset" format="1">
  <advance width="1552"/>
  <unicode hex="2205"/>
  <outline>
    <contour>
      <point x="778" y="167" type="curve" smooth="yes"/>
      <point x="485" y="167"/>
      <point x="271" y="388"/>
      <point x="271" y="682" type="curve" smooth="yes"/>
      <point x="271" y="974"/>
      <point x="485" y="1196"/>
      <point x="778" y="1196" type="curve" smooth="yes"/>
      <point x="1072" y="1196"/>
      <point x="1283" y="974"/>
      <point x="1283" y="682" type="curve" smooth="yes"/>
      <point x="1283" y="388"/>
      <point x="1072" y="167"/>
    </contour>
    <contour>
      <point x="776" y="66" type="curve" smooth="yes"/>
      <point x="1124" y="66"/>
      <point x="1392" y="331"/>
      <point x="1392" y="682" type="curve" smooth="yes"/>
      <point x="1392" y="1031"/>
      <point x="1124" y="1296"/>
      <point x="776" y="1296" type="curve" smooth="yes"/>
      <point x="430" y="1296"/>
      <point x="160" y="1031"/>
      <point x="160" y="682" type="curve" smooth="yes"/>
      <point x="160" y="331"/>
      <point x="430" y="66"/>
    </contour>
    <contour>
      <point x="207" y="54" type="line"/>
      <point x="274" y="-2" type="line"/>
      <point x="1351" y="1281" type="line"/>
      <point x="1284" y="1337" type="line"/>
    </contour>
  </outline>
</glyph>
<glyph name="product" format="1">
  <advance width="875"/>
  <unicode hex="220F"/>
  <outline>
    <contour>
      <point x="322" y="156" type="line"/>
      <point x="386" y="156" type="line"/>
      <point x="386" y="318" type="line"/>
      <point x="473" y="318" type="line" smooth="yes"/>
      <point x="580" y="318"/>
      <point x="608" y="372"/>
      <point x="608" y="437" type="curve" smooth="yes"/>
      <point x="608" y="443" type="line"/>
      <point x="606" y="528"/>
      <point x="556" y="563"/>
      <point x="479" y="563" type="curve" smooth="yes"/>
      <point x="322" y="563" type="line"/>
    </contour>
    <contour>
      <point x="386" y="362" type="line"/>
      <point x="386" y="519" type="line"/>
      <point x="481" y="519" type="line" smooth="yes"/>
      <point x="539" y="519"/>
      <point x="543" y="469"/>
      <point x="543" y="440" type="curve" smooth="yes"/>
      <point x="543" y="428" type="line" smooth="yes"/>
      <point x="543" y="397"/>
      <point x="533" y="362"/>
      <point x="477" y="362" type="curve" smooth="yes"/>
    </contour>
    <contour>
      <point x="438" y="40" type="curve" smooth="yes"/>
      <point x="260" y="40"/>
      <point x="131" y="175"/>
      <point x="131" y="353" type="curve" smooth="yes"/>
      <point x="131" y="531"/>
      <point x="260" y="665"/>
      <point x="438" y="665" type="curve" smooth="yes"/>
      <point x="617" y="665"/>
      <point x="745" y="531"/>
      <point x="745" y="353" type="curve" smooth="yes"/>
      <point x="745" y="175"/>
      <point x="617" y="40"/>
    </contour>
    <contour>
      <point x="438" y="-7" type="curve" smooth="yes"/>
      <point x="641" y="-7"/>
      <point x="797" y="148"/>
      <point x="797" y="353" type="curve" smooth="yes"/>
      <point x="797" y="557"/>
      <point x="641" y="711"/>
      <point x="438" y="711" type="curve" smooth="yes"/>
      <point x="236" y="711"/>
      <point x="78" y="557"/>
      <point x="78" y="353" type="curve" smooth="yes"/>
      <point x="78" y="148"/>
      <point x="236" y="-7"/>
    </contour>
  </outline>
</glyph>
<glyph name="minus" format="1">
  <advance width="444"/>
  <unicode hex="2212"/>
  <outline>
    <contour>
      <point x="69" y="214" type="line"/>
      <point x="375" y="214" type="line"/>
      <point x="375" y="297" type="line"/>
      <point x="69" y="297" type="line"/>
    </contour>
  </outline>
</glyph>
<glyph name="bulletoperator" format="1">
  <advance width="386"/>
  <unicode hex="2219"/>
  <outline>
    <contour>
      <point x="193" y="159" type="curve" smooth="yes"/>
      <point x="129" y="159"/>
      <point x="82" y="211"/>
      <point x="82" y="275" type="curve" smooth="yes"/>
      <point x="82" y="339"/>
      <point x="129" y="391"/>
      <point x="193" y="391" type="curve" smooth="yes"/>
      <point x="257" y="391"/>
      <point x="305" y="339"/>
      <point x="305" y="275" type="curve" smooth="yes"/>
      <point x="305" y="211"/>
      <point x="257" y="159"/>
    </contour>
  </outline>
</glyph>
<glyph name="radical" format="1">
  <advance width="1249"/>
  <unicode hex="221A"/>
  <outline>
    <contour>
      <point x="98" y="442" type="line"/>
      <point x="217" y="442" type="line"/>
      <point x="447" y="0" type="line"/>
      <point x="624" y="0" type="line"/>
      <point x="1238" y="1506" type="line"/>
      <point x="1102" y="1506" type="line"/>
      <point x="544" y="159" type="line"/>
      <point x="359" y="553" type="line"/>
      <point x="98" y="553" type="line"/>
    </contour>
  </outline>
</glyph>
<glyph name="infinity" format="1">
  <advance width="805"/>
  <unicode hex="221E"/>
  <outline>
    <contour>
      <point x="180" y="237" type="curve" smooth="yes"/>
      <point x="267" y="237"/>
      <point x="399" y="359"/>
      <point x="399" y="359" type="curve"/>
      <point x="399" y="359"/>
      <point x="538" y="237"/>
      <point x="625" y="237" type="curve" smooth="yes"/>
      <point x="724" y="237"/>
      <point x="774" y="318"/>
      <point x="774" y="400" type="curve" smooth="yes"/>
      <point x="774" y="483"/>
      <point x="724" y="565"/>
      <point x="625" y="565" type="curve" smooth="yes"/>
      <point x="538" y="565"/>
      <point x="399" y="456"/>
      <point x="399" y="456" type="curve"/>
      <point x="399" y="456"/>
      <point x="267" y="565"/>
      <point x="180" y="565" type="curve" smooth="yes"/>
      <point x="81" y="565"/>
      <point x="31" y="483"/>
      <point x="31" y="401" type="curve" smooth="yes"/>
      <point x="31" y="319"/>
      <point x="81" y="237"/>
    </contour>
    <contour>
      <point x="184" y="301" type="curve" smooth="yes"/>
      <point x="133" y="301"/>
      <point x="107" y="351"/>
      <point x="107" y="401" type="curve" smooth="yes"/>
      <point x="107" y="451"/>
      <point x="133" y="501"/>
      <point x="184" y="501" type="curve" smooth="yes"/>
      <point x="220" y="501"/>
      <point x="350" y="405"/>
      <point x="350" y="405" type="curve"/>
      <point x="350" y="405"/>
      <point x="220" y="301"/>
    </contour>
    <contour>
      <point x="616" y="301" type="curve" smooth="yes"/>
      <point x="580" y="301"/>
      <point x="449" y="403"/>
      <point x="449" y="403" type="curve"/>
      <point x="449" y="403"/>
      <point x="580" y="501"/>
      <point x="616" y="501" type="curve" smooth="yes"/>
      <point x="667" y="501"/>
      <point x="692" y="451"/>
      <point x="692" y="401" type="curve" smooth="yes"/>
      <point x="692" y="351"/>
      <point x="667" y="301"/>
    </contour>
  </outline>
</glyph>
<glyph name="integral" format="1">
  <advance width="434"/>
  <unicode hex="222B"/>
  <outline>
    <contour>
      <point x="123" y="-186" type="curve" smooth="yes"/>
      <point x="221" y="-186"/>
      <point x="254" y="-140"/>
      <point x="254" y="-48" type="curve" smooth="yes"/>
      <point x="254" y="577" type="line" smooth="yes"/>
      <point x="254" y="619"/>
      <point x="265" y="654"/>
      <point x="332" y="654" type="curve" smooth="yes"/>
      <point x="337" y="654"/>
      <point x="342" y="653"/>
      <point x="347" y="653" type="curve"/>
      <point x="347" y="714" type="line"/>
      <point x="328" y="716"/>
      <point x="311" y="717"/>
      <point x="296" y="717" type="curve" smooth="yes"/>
      <point x="194" y="717"/>
      <point x="163" y="672"/>
      <point x="163" y="566" type="curve" smooth="yes"/>
      <point x="163" y="-62" type="line" smooth="yes"/>
      <point x="163" y="-102"/>
      <point x="146" y="-123"/>
      <point x="92" y="-123" type="curve" smooth="yes"/>
      <point x="85" y="-123"/>
      <point x="77" y="-123"/>
      <point x="69" y="-122" type="curve"/>
      <point x="69" y="-182" type="line"/>
      <point x="89" y="-184"/>
      <point x="107" y="-186"/>
    </contour>
  </outline>
</glyph>
<glyph name="approxequal" format="1">
  <advance width="430"/>
  <unicode hex="2248"/>
  <outline>
    <contour>
      <point x="293" y="310" type="curve" smooth="yes"/>
      <point x="352" y="310"/>
      <point x="399" y="351"/>
      <point x="399" y="432" type="curve"/>
      <point x="352" y="432" type="line"/>
      <point x="352" y="402"/>
      <point x="338" y="381"/>
      <point x="298" y="381" type="curve" smooth="yes"/>
      <point x="263" y="381"/>
      <point x="204" y="438"/>
      <point x="137" y="438" type="curve" smooth="yes"/>
      <point x="78" y="438"/>
      <point x="31" y="398"/>
      <point x="31" y="317" type="curve"/>
      <point x="79" y="317" type="line"/>
      <point x="79" y="347"/>
      <point x="92" y="367"/>
      <point x="132" y="367" type="curve" smooth="yes"/>
      <point x="167" y="367"/>
      <point x="226" y="310"/>
    </contour>
    <contour>
      <point x="293" y="459" type="curve" smooth="yes"/>
      <point x="352" y="459"/>
      <point x="399" y="500"/>
      <point x="399" y="581" type="curve"/>
      <point x="352" y="581" type="line"/>
      <point x="352" y="551"/>
      <point x="338" y="531"/>
      <point x="298" y="531" type="curve" smooth="yes"/>
      <point x="263" y="531"/>
      <point x="204" y="588"/>
      <point x="137" y="588" type="curve" smooth="yes"/>
      <point x="78" y="588"/>
      <point x="31" y="547"/>
      <point x="31" y="466" type="curve"/>
      <point x="79" y="466" type="line"/>
      <point x="79" y="496"/>
      <point x="92" y="517"/>
      <point x="132" y="517" type="curve" smooth="yes"/>
      <point x="167" y="517"/>
      <point x="226" y="459"/>
    </contour>
  </outline>
</glyph>
<glyph name="notequal" format="1">
  <advance width="375"/>
  <unicode hex="2260"/>
  <outline>
    <contour>
      <point x="62" y="100" type="line"/>
      <point x="134" y="100" type="line"/>
      <point x="318" y="579" type="line"/>
      <point x="249" y="579" type="line"/>
    </contour>
    <component base="equal" xOffset="-118"/>
  </outline>
</glyph>
<glyph name="lozenge" format="1">
  <advance width="539"/>
  <unicode hex="25CA"/>
  <outline>
    <contour>
      <point x="234" y="0" type="line"/>
      <point x="317" y="0" type="line"/>
      <point x="482" y="354" type="line"/>
      <point x="317" y="706" type="line"/>
      <point x="234" y="706" type="line"/>
      <point x="57" y="354" type="line"/>
    </contour>
    <contour>
      <point x="277" y="78" type="line"/>
      <point x="144" y="354" type="line"/>
      <point x="277" y="623" type="line"/>
      <point x="397" y="354" type="line"/>
    </contour>
  </outline>
</glyph>
<glyph name="caron.alt" format="1">
  <advance width="600"/>
  <outline>
    <contour>
      <point x="312" y="1060" type="move" name="_caron.alt"/>
    </contour>
    <contour>
      <point x="703" y="1222" type="line"/>
      <point x="761" y="1276"/>
      <point x="875" y="1419"/>
      <point x="875" y="1610" type="curve" smooth="yes"/>
      <point x="875" y="1793" type="line"/>
      <point x="618" y="1793" type="line"/>
      <point x="618" y="1560" type="line"/>
      <point x="759" y="1560" type="line"/>
      <point x="759" y="1428"/>
      <point x="669" y="1321"/>
      <point x="622" y="1266" type="curve"/>
    </contour>
  </outline>
</glyph>
